<?xml version="1.0" encoding="UTF-8" standalone="no"?>
<svg
   width="16"
   height="16"
   version="1.1"
   id="svg2071"
   sodipodi:docname="too-much-ink-icon2.svg"
   inkscape:version="1.2.2 (b0a8486541, 2022-12-01)"
   xmlns:inkscape="http://www.inkscape.org/namespaces/inkscape"
   xmlns:sodipodi="http://sodipodi.sourceforge.net/DTD/sodipodi-0.dtd"
   xmlns="http://www.w3.org/2000/svg"
   xmlns:svg="http://www.w3.org/2000/svg">
  <defs
     id="defs2075" />
  <sodipodi:namedview
     id="namedview2073"
     pagecolor="#ffffff"
     bordercolor="#000000"
     borderopacity="0.25"
     inkscape:showpageshadow="2"
     inkscape:pageopacity="0.0"
     inkscape:pagecheckerboard="0"
     inkscape:deskcolor="#d1d1d1"
     showgrid="true"
     inkscape:zoom="26.047678"
     inkscape:cx="6.7568403"
     inkscape:cy="10.250434"
     inkscape:window-width="1920"
     inkscape:window-height="977"
     inkscape:window-x="3280"
     inkscape:window-y="26"
     inkscape:window-maximized="1"
     inkscape:current-layer="svg2071">
    <inkscape:grid
       type="xygrid"
       id="grid2194" />
  </sodipodi:namedview>
  <path
     d="M 1.8525784,3.2063499 C 2.3061303,3.7870095 2.3506027,4.1941386 2.3509747,4.5825092 2.3512758,4.8922226 1.603863,4.7080584 1.250148,4.568404 0.71641833,4.3576605 0.15244712,3.921055 0.02300631,3.4492806 -0.05731266,3.156248 0.07498783,2.7725142 0.38365527,2.6802168 0.83421408,2.545546 1.5540597,2.8242373 1.8525519,3.2063663 Z M 0.86774102,13.287364 C 1.4990406,12.132978 2.2259969,11.704911 2.9633233,11.355113 c 0.5879429,-0.278936 1.0152914,0.928515 1.1178204,1.547124 0.1546701,0.933472 -0.088201,2.112265 -0.8497734,2.716912 -0.4730162,0.375534 -1.3395265,0.53615 -1.8356558,0.188878 C 0.67142352,15.3011 0.45228544,14.047069 0.8677587,13.287337 Z M 10.831281,7.8026498 c 0.09959,-2.6407646 3.783201,1.2654666 4.827565,-0.2407606 0.620132,-0.894368 0.369363,-2.5512458 -0.545569,-3.174355 C 14.441313,3.9298983 11.598539,4.7552038 10.897698,4.3387166 9.5927159,3.5631747 11.448022,2.0276993 10.293992,1.0586351 8.5693306,-0.38957676 7.1983846,-0.35021013 5.5394756,1.166186 4.4865926,2.1286369 6.2936628,2.6248454 5.7609339,3.9196872 5.0251308,5.708229 3.0510814,4.4569516 2.6014347,6.3297503 2.316695,7.5155632 2.6955777,9.5672894 3.9251365,9.8909556 4.848933,10.134089 4.8836907,8.3961053 6.622432,9.5663354 8.3611113,10.7366 6.9314888,12.311508 7.32307,13.874104 c 0.3916079,1.562605 1.5850188,1.172122 2.4571345,1.00023 1.1083185,-0.21848 0.7718005,-2.012757 2.3383735,-2.20959 1.566573,-0.196825 1.158334,1.446616 2.884802,-0.04223 2.885908,-2.488595 -3.458629,-3.3165444 -4.172091,-4.8199254 v 0 z"
     fill="#dedede"
     fill-rule="evenodd"
     id="path2069"
     style="stroke-width:0.0677464" />
</svg>
