<?xml version="1.0" encoding="UTF-8" standalone="no"?>
<!-- Created with Inkscape (http://www.inkscape.org/) -->

<svg
   width="64"
   height="64"
   viewBox="0 0 64 64"
   version="1.1"
   id="svg5"
   inkscape:version="1.2.1 (9c6d41e410, 2022-07-14, custom)"
   sodipodi:docname="multimedia-photo-manager.svg"
   xmlns:inkscape="http://www.inkscape.org/namespaces/inkscape"
   xmlns:sodipodi="http://sodipodi.sourceforge.net/DTD/sodipodi-0.dtd"
   xmlns="http://www.w3.org/2000/svg"
   xmlns:svg="http://www.w3.org/2000/svg">
  <sodipodi:namedview
     id="namedview7"
     pagecolor="#ffffff"
     bordercolor="#000000"
     borderopacity="0.25"
     inkscape:showpageshadow="2"
     inkscape:pageopacity="0.0"
     inkscape:pagecheckerboard="0"
     inkscape:deskcolor="#d1d1d1"
     inkscape:document-units="px"
     showgrid="true"
     inkscape:zoom="6.8313437"
     inkscape:cx="10.02731"
     inkscape:cy="34.253876"
     inkscape:window-width="1920"
     inkscape:window-height="965"
     inkscape:window-x="1920"
     inkscape:window-y="38"
     inkscape:window-maximized="1"
     inkscape:current-layer="svg5"
     showguides="true">
    <inkscape:grid
       type="xygrid"
       id="grid523" />
  </sodipodi:namedview>
  <defs
     id="defs2" />
  <path
     id="rect2673"
     style="opacity:0.1;fill:#ffffff;fill-opacity:0.3;stroke-width:1.80519;stroke-linejoin:round"
     d="M 24.331669,-54.240419 -1.2346695,-5 H 26.595627 c 6.495172,0 10.107616,-0.396858 12.117761,-2.172984 2.032911,-3.069262 2.521282,-8.002656 2.521282,-15.860697 v -13.906051 c 0,-15.288089 0,-17.300687 -14.639043,-17.300687 z" />
  <g
     id="g4206">
    <path
       id="rect877"
       style="display:inline;fill:#a3dbf0;fill-opacity:1;stroke:none;stroke-width:0.608108;stroke-linecap:round;stroke-linejoin:round;stroke-miterlimit:4;stroke-dasharray:none;stroke-dashoffset:0;stroke-opacity:1;enable-background:new"
       d="m 25.999999,4.007314 c -18.202344,0 -22,3.87967 -22,22 v 12 c 0,18.12033 3.797656,22 22,22 H 38 c 18.20234,0 22,-3.87967 22,-22 v -12 c 0,-18.12033 -3.79766,-22 -22,-22 z" />
    <path
       style="fill:#b6e2f3;fill-opacity:1;stroke:#000000;stroke-width:0;stroke-linecap:square;stroke-linejoin:round;stroke-miterlimit:10;stroke-dasharray:none;stroke-opacity:0.2;paint-order:markers fill stroke"
       d="M 21.99583,36.361401 8.023627,8.369588 6.991062,9.639667 6.112845,11.158722 5.754905,12.021075 5.11145,14.002229 4.672805,15.996656 4.38515,18.011783 l -0.194839,2.003202 -0.102615,1.990439 -0.04673,1.007009 -0.03927,2.306105 10.580165,25.303745 z"
       id="path3734" />
    <path
       style="fill:#ffda64;fill-opacity:1;stroke:#000000;stroke-width:0;stroke-linecap:square;stroke-linejoin:round;stroke-miterlimit:10;stroke-dasharray:none;stroke-opacity:0.2;paint-order:markers fill stroke"
       d="M 36.999999,28.383338 25.975503,4.007314 h -0.980927 l -0.99596,0.0131 -1.000192,0.02486 -0.998887,0.03938 -0.996059,0.04703 -1.003284,0.06367 -1.001666,0.08393 -0.997833,0.104735 -0.997422,0.128717 -1.001976,0.159181 -0.998403,0.198486 -1.001905,0.23876 L 13.003927,5.40341 12.0031,5.760465 11.001942,6.209086 10.002626,6.762223 9.001279,7.475632 8.003956,8.38416 l 21.107377,42.188079 19.661061,0.03432 z"
       id="path3265" />
    <path
       style="fill:#b6e2f3;fill-opacity:1;stroke:#000000;stroke-width:0;stroke-linecap:square;stroke-linejoin:round;stroke-miterlimit:10;stroke-dasharray:none;stroke-opacity:0.2;paint-order:markers fill stroke"
       d="m 48.433211,50.598804 10.254005,0.0044 0.344152,-1.221078 0.224969,-1.052505 0.21876,-1.353694 0.243634,-1.987359 0.150286,-1.999575 L 36.28557,3.9930005 24.966075,4.0190405 Z"
       id="path3868" />
    <g
       id="g3881"
       style="fill:#000000;fill-opacity:0.0980392"
       transform="translate(93.100049,20.807714)">
      <path
         id="path3875"
         style="fill:#000000;fill-opacity:0.0980392;stroke-width:1.33082;stroke-linejoin:round"
         d="M -55,8.376024 -43.022602,31 h -23.954796 z"
         sodipodi:nodetypes="cccc" />
      <path
         id="path3877"
         style="fill:#000000;fill-opacity:0.0980392;stroke-width:1.00786;stroke-linejoin:round"
         d="m -69.999998,16.349656 8.983047,17.300687 h -17.966098 z"
         sodipodi:nodetypes="cccc" />
      <circle
         style="fill:#000000;fill-opacity:0.0980392;stroke-width:1.33082;stroke-linejoin:round"
         id="circle3879"
         cx="-68.855537"
         cy="-0.87301433"
         r="5.9886994" />
    </g>
    <g
       id="g3873"
       transform="translate(91.999999,20.007714)">
      <path
         id="rect1000"
         style="fill:#f1f2f2;fill-opacity:1;stroke-width:1.33082;stroke-linejoin:round"
         d="M -55,8.376024 -43.022602,31 h -23.954796 z"
         sodipodi:nodetypes="cccc" />
      <path
         id="rect1472"
         style="fill:#f8f8f8;fill-opacity:1;stroke-width:1.00786;stroke-linejoin:round"
         d="m -69.999998,16.349656 8.983047,17.300687 h -17.966098 z"
         sodipodi:nodetypes="cccc" />
      <circle
         style="fill:#f9f9f9;fill-opacity:1;stroke-width:1.33082;stroke-linejoin:round"
         id="path4390"
         cx="-68.855537"
         cy="-0.87301433"
         r="5.9886994" />
    </g>
    <path
       id="path1574"
       style="display:inline;opacity:0.454242;fill:#000000;fill-opacity:1;stroke:#000000;stroke-width:0;stroke-linecap:round;stroke-linejoin:round;stroke-miterlimit:4;stroke-dasharray:none;stroke-dashoffset:0;stroke-opacity:0.2;enable-background:new"
       d="m 3.999999,37.007313 v 1 c 0,18.120312 3.797675,22 22,22 h 12 c 18.202323,0 22.000001,-3.879688 22,-22 v -1 c 10e-7,18.120312 -3.797677,22 -22,22 h -12 c -18.202325,0 -22,-3.879688 -22,-22 z" />
    <path
       style="display:inline;fill:#8fbf3a;fill-opacity:1;stroke:none;stroke-width:0.608108;stroke-linecap:round;stroke-linejoin:round;stroke-miterlimit:4;stroke-dasharray:none;stroke-dashoffset:0;stroke-opacity:1;enable-background:new"
       d="m 5.605469,50.604314 c 2.44151,6.646091 8.16414,8.40625 20.39453,8.40625 h 12 c 12.23039,0 17.95302,-1.760159 20.39453,-8.40625 z"
       id="path2991" />
    <path
       id="path3200"
       style="display:inline;opacity:0.454242;fill:#000000;fill-opacity:1;stroke:#000000;stroke-width:0;stroke-linecap:round;stroke-linejoin:round;stroke-miterlimit:4;stroke-dasharray:none;stroke-dashoffset:0;stroke-opacity:0.2;enable-background:new"
       d="m 4,27.007315 v -1 C 4,7.887002 7.797675,4.007314 26,4.007314 h 12 c 18.202323,0 22.000001,3.879688 22,22.000001 v 1 C 60.000001,8.887002 56.202323,5.007314 38,5.007314 H 26 c -18.202325,0 -22,3.879688 -22,22.000001 z" />
  </g>
</svg>
