<?xml version="1.0" encoding="UTF-8" standalone="no"?>
<!-- Created with Inkscape (http://www.inkscape.org/) -->

<svg
   width="64"
   height="64"
   viewBox="0 0 64 64"
   version="1.1"
   id="svg5"
   inkscape:version="1.2.1 (9c6d41e410, 2022-07-14, custom)"
   sodipodi:docname="preferences-desktop-theme.svg"
   xmlns:inkscape="http://www.inkscape.org/namespaces/inkscape"
   xmlns:sodipodi="http://sodipodi.sourceforge.net/DTD/sodipodi-0.dtd"
   xmlns:xlink="http://www.w3.org/1999/xlink"
   xmlns="http://www.w3.org/2000/svg"
   xmlns:svg="http://www.w3.org/2000/svg">
  <sodipodi:namedview
     id="namedview7"
     pagecolor="#ffffff"
     bordercolor="#000000"
     borderopacity="0.25"
     inkscape:showpageshadow="2"
     inkscape:pageopacity="0.0"
     inkscape:pagecheckerboard="0"
     inkscape:deskcolor="#d1d1d1"
     inkscape:document-units="px"
     showgrid="true"
     inkscape:zoom="5.5874356"
     inkscape:cx="20.760866"
     inkscape:cy="14.675784"
     inkscape:window-width="1920"
     inkscape:window-height="965"
     inkscape:window-x="3280"
     inkscape:window-y="38"
     inkscape:window-maximized="1"
     inkscape:current-layer="svg5"
     showguides="true">
    <inkscape:grid
       type="xygrid"
       id="grid1944" />
  </sodipodi:namedview>
  <defs
     id="defs2">
    <radialGradient
       inkscape:collect="always"
       xlink:href="#linearGradient10051"
       id="radialGradient1174"
       cx="14.852401"
       cy="30.071783"
       fx="14.852401"
       fy="30.071783"
       r="14"
       gradientUnits="userSpaceOnUse"
       gradientTransform="matrix(-1.7142856,-1.7142855,1.6162442,-1.6162442,33.568658,85.288472)" />
    <linearGradient
       inkscape:collect="always"
       id="linearGradient10051">
      <stop
         style="stop-color:#aa3ad4;stop-opacity:1"
         offset="0"
         id="stop10047" />
      <stop
         style="stop-color:#aa3ad4;stop-opacity:0"
         offset="1"
         id="stop10049" />
    </linearGradient>
    <radialGradient
       inkscape:collect="always"
       xlink:href="#linearGradient1603"
       id="radialGradient1208"
       gradientUnits="userSpaceOnUse"
       gradientTransform="matrix(1.7142856,-1.7142855,-1.6162442,-1.6162442,30.431342,85.288472)"
       cx="14.852401"
       cy="30.071783"
       fx="14.852401"
       fy="30.071783"
       r="14" />
    <linearGradient
       inkscape:collect="always"
       id="linearGradient1603">
      <stop
         style="stop-color:#ff910c;stop-opacity:1;"
         offset="0"
         id="stop1599" />
      <stop
         style="stop-color:#ff910c;stop-opacity:0;"
         offset="1"
         id="stop1601" />
    </linearGradient>
    <radialGradient
       inkscape:collect="always"
       xlink:href="#linearGradient5569"
       id="radialGradient1243"
       gradientUnits="userSpaceOnUse"
       gradientTransform="matrix(1.7142856,1.7142855,-1.6162442,1.6162442,30.431342,-21.288472)"
       cx="15.190269"
       cy="30.646524"
       fx="15.190269"
       fy="30.646524"
       r="14" />
    <linearGradient
       inkscape:collect="always"
       id="linearGradient5569">
      <stop
         style="stop-color:#f5cc24;stop-opacity:1;"
         offset="0"
         id="stop5565" />
      <stop
         style="stop-color:#f5cc24;stop-opacity:0.00045133"
         offset="1"
         id="stop5567" />
    </linearGradient>
    <radialGradient
       inkscape:collect="always"
       xlink:href="#linearGradient3954"
       id="radialGradient1278"
       gradientUnits="userSpaceOnUse"
       gradientTransform="matrix(-1.7142856,1.7142855,1.6162442,1.6162442,33.568658,-21.288472)"
       cx="15.190269"
       cy="30.646524"
       fx="15.190269"
       fy="30.646524"
       r="14" />
    <linearGradient
       inkscape:collect="always"
       id="linearGradient3954">
      <stop
         style="stop-color:#24c2f5;stop-opacity:1;"
         offset="0"
         id="stop3950" />
      <stop
         style="stop-color:#24c2f5;stop-opacity:0;"
         offset="1"
         id="stop3952" />
    </linearGradient>
    <radialGradient
       inkscape:collect="always"
       xlink:href="#linearGradient7221"
       id="radialGradient1313"
       gradientUnits="userSpaceOnUse"
       gradientTransform="matrix(2.2857142,0,0,-2.2857142,-4.571427,68.571428)"
       cx="16"
       cy="28.250002"
       fx="16"
       fy="28.250002"
       r="14" />
    <linearGradient
       inkscape:collect="always"
       id="linearGradient7221">
      <stop
         style="stop-color:#f43434;stop-opacity:1;"
         offset="0"
         id="stop7217" />
      <stop
         style="stop-color:#f43434;stop-opacity:0;"
         offset="1"
         id="stop7219" />
    </linearGradient>
    <radialGradient
       inkscape:collect="always"
       xlink:href="#linearGradient15132"
       id="radialGradient1348"
       gradientUnits="userSpaceOnUse"
       gradientTransform="matrix(0,2.2857142,-2.2857142,0,68.571427,-4.571429)"
       cx="16"
       cy="28.250002"
       fx="16"
       fy="28.250002"
       r="14" />
    <linearGradient
       inkscape:collect="always"
       id="linearGradient15132">
      <stop
         style="stop-color:#f5e224;stop-opacity:1;"
         offset="0"
         id="stop15128" />
      <stop
         style="stop-color:#f5e224;stop-opacity:0;"
         offset="1"
         id="stop15130" />
    </linearGradient>
    <radialGradient
       inkscape:collect="always"
       xlink:href="#linearGradient12059"
       id="radialGradient991"
       cx="16"
       cy="28.250002"
       fx="16"
       fy="28.250002"
       r="14"
       gradientUnits="userSpaceOnUse"
       gradientTransform="matrix(2.2857142,0,0,2.2857142,-4.5714269,-4.5714279)" />
    <linearGradient
       inkscape:collect="always"
       id="linearGradient12059">
      <stop
         style="stop-color:#47c12a;stop-opacity:1;"
         offset="0"
         id="stop12055" />
      <stop
         style="stop-color:#47c12a;stop-opacity:0;"
         offset="1"
         id="stop12057" />
    </linearGradient>
  </defs>
  <path
     id="path530-5"
     style="fill:#ffffff;fill-opacity:1;stroke-width:2;stroke-linecap:round;stroke-linejoin:round"
     d="M 26,4.0000001 C 7.797637,4.0000001 3.9999999,7.8796523 3.9999999,26 v 12 c 0,18.120348 3.797637,22 22.0000001,22 H 38 C 56.202364,60 60,56.120348 60,38 V 26 C 60,7.8796523 56.202364,4.0000001 38,4.0000001 Z"
     sodipodi:nodetypes="sssssssss" />
  <path
     d="M 26,4 C 7.797619,4 4,7.879634 4,26 V 38 C 4,56.120366 7.797619,60 26,60 H 38 C 56.20238,60 60,56.120366 60,38 V 26 C 60,7.879634 56.20238,4 38,4"
     style="opacity:0.2;fill:#000000;stroke-width:2;stroke-linecap:round;stroke-linejoin:round"
     id="path563" />
  <path
     d="M 38,3.9999999 C 56.202362,3.9999999 60,7.8796521 60,26 V 38 C 60,56.120348 56.202362,60 38,60 H 26 C 7.7976361,60 4.0000001,56.120348 4.0000001,38 V 26 C 4.0000001,7.8796521 7.7976361,3.9999999 26,3.9999999 Z"
     style="fill:url(#radialGradient1208);fill-opacity:1;stroke-width:2;stroke-linecap:round;stroke-linejoin:round"
     id="path1184"
     sodipodi:nodetypes="sssssssss" />
  <path
     d="M 38,60 C 56.202362,60 60,56.120348 60,38 V 26 C 60,7.879652 56.202362,4 38,4 H 26 C 7.7976361,4 4.0000001,7.879652 4.0000001,26 v 12 c 0,18.120348 3.797636,22 21.9999999,22 z"
     style="fill:url(#radialGradient1243);fill-opacity:1;stroke-width:2;stroke-linecap:round;stroke-linejoin:round"
     id="path1219"
     sodipodi:nodetypes="sssssssss" />
  <path
     d="M 26,60 C 7.7976381,60 4,56.120348 4,38 V 26 C 4.0000001,7.8796521 7.7976381,4.0000001 26,4.0000001 h 12 c 18.202364,0 22,3.879652 22,21.9999999 v 12 c 0,18.120348 -3.797636,22 -22,22 z"
     style="fill:url(#radialGradient1278);fill-opacity:1;stroke-width:2;stroke-linecap:round;stroke-linejoin:round"
     id="path1254" />
  <path
     d="M 25.999999,60 C 7.797637,60 4.000001,56.120348 4.000001,38 V 26.000002 c 0,-18.1203498 3.797636,-22.0000018 21.999998,-22.0000018 h 12 c 18.202364,0 22,3.879652 22,22.0000018 V 38 c 0,18.120348 -3.797636,22 -22,22 z"
     style="fill:url(#radialGradient1313);fill-opacity:1;stroke-width:2;stroke-linecap:round;stroke-linejoin:round"
     id="path1289"
     sodipodi:nodetypes="sssssssss" />
  <path
     d="m 59.999999,25.999999 c 0,-18.2023623 -3.879652,-21.9999983 -21.999998,-21.9999983 h -12 c -18.1203501,0 -22.0000001,3.797636 -22.0000001,21.9999983 v 12 c 0,18.202364 3.87965,22 22.0000001,22 h 12 c 18.120346,0 21.999998,-3.797636 21.999998,-22 z"
     style="fill:url(#radialGradient1348);fill-opacity:1;stroke-width:2;stroke-linecap:round;stroke-linejoin:round"
     id="path1324" />
  <path
     d="M 26.000001,4.0000001 C 7.7976391,4.0000001 4.0000011,7.8796521 4.0000011,26 v 12 c 0,18.120348 3.797638,22 21.9999999,22 h 11.999998 c 18.20237,0 22,-3.879652 22,-22 V 26 c 0,-18.1203479 -3.79763,-21.9999999 -22,-21.9999999 z"
     style="fill:url(#radialGradient991);fill-opacity:1;stroke-width:2;stroke-linecap:round;stroke-linejoin:round"
     id="path404"
     sodipodi:nodetypes="sssssssss" />
  <path
     d="M 26,3.9999998 C 7.797638,3.9999998 4,7.8796522 4,26 V 38 C 4,56.120348 7.797638,60 26,60 H 38 C 56.202364,60 60,56.120348 60,38 V 26 C 60,7.8796522 56.202364,3.9999998 38,3.9999998 Z"
     style="fill:url(#radialGradient1174);fill-opacity:1;stroke-width:2;stroke-linecap:round;stroke-linejoin:round"
     id="path371"
     sodipodi:nodetypes="sssssssss" />
  <g
     id="g3070"
     transform="translate(-64.735435,5.8570229)">
    <rect
       style="opacity:0.5;fill:#ffffff;stroke-width:8;stroke-linecap:round;stroke-linejoin:round"
       id="rect820"
       width="30"
       height="22"
       x="81.735435"
       y="6.1429772"
       ry="4" />
    <path
       id="rect236"
       style="fill:#ffffff;fill-opacity:1;stroke-width:8;stroke-linecap:round;stroke-linejoin:round"
       d="m 81.735436,24.142977 v 4 c 0,2.215994 1.784006,4 4,4 h 4 a 3,3 0 0 1 3,3 v 7 c 0,2.215996 1.784004,4 4,4 2.215996,0 4.000004,-1.784004 4.000004,-4 v -7 a 3,3 0 0 1 3,-3 h 4 c 2.21599,0 3.99999,-1.784006 3.99999,-4 v -4 z" />
  </g>
</svg>
