<?xml version="1.0" encoding="UTF-8" standalone="no"?>
<!-- Created with Inkscape (http://www.inkscape.org/) -->

<svg
   width="64"
   height="64"
   viewBox="0 0 64 64"
   version="1.1"
   id="svg2919"
   inkscape:version="1.2.1 (9c6d41e410, 2022-07-14, custom)"
   sodipodi:docname="folder.svg"
   xmlns:inkscape="http://www.inkscape.org/namespaces/inkscape"
   xmlns:sodipodi="http://sodipodi.sourceforge.net/DTD/sodipodi-0.dtd"
   xmlns:xlink="http://www.w3.org/1999/xlink"
   xmlns="http://www.w3.org/2000/svg"
   xmlns:svg="http://www.w3.org/2000/svg">
  <sodipodi:namedview
     id="namedview2921"
     pagecolor="#ffffff"
     bordercolor="#666666"
     borderopacity="1.0"
     inkscape:pageshadow="2"
     inkscape:pageopacity="0.0"
     inkscape:pagecheckerboard="0"
     inkscape:document-units="px"
     showgrid="true"
     units="px"
     inkscape:zoom="9.8747735"
     inkscape:cx="35.241315"
     inkscape:cy="28.253813"
     inkscape:window-width="1539"
     inkscape:window-height="971"
     inkscape:window-x="1932"
     inkscape:window-y="30"
     inkscape:window-maximized="0"
     inkscape:current-layer="svg2919"
     inkscape:showpageshadow="2"
     inkscape:deskcolor="#d1d1d1">
    <inkscape:grid
       type="xygrid"
       id="grid7320" />
  </sodipodi:namedview>
  <defs
     id="defs2916">
    <linearGradient
       inkscape:collect="always"
       id="linearGradient7573">
      <stop
         style="stop-color:#74baf6;stop-opacity:1;"
         offset="0"
         id="stop7569" />
      <stop
         style="stop-color:#0a94ff;stop-opacity:1;"
         offset="1"
         id="stop7571" />
    </linearGradient>
    <linearGradient
       inkscape:collect="always"
       xlink:href="#linearGradient7573"
       id="linearGradient3239"
       x1="0.26356083"
       y1="0.16165335"
       x2="12.437259"
       y2="12.803586"
       gradientUnits="userSpaceOnUse"
       gradientTransform="matrix(4.9286584,0,0,4.7461098,0.70386722,1.7977243)" />
    <linearGradient
       id="linearGradient1777"
       x1="18.52047"
       x2="-1.3228906"
       y1="17.197578"
       y2="1.3228906"
       gradientUnits="userSpaceOnUse"
       gradientTransform="translate(4e-5,-0.5952455)">
      <stop
         stop-color="#0078e1"
         offset="0"
         id="stop4" />
      <stop
         stop-color="#05b9ff"
         offset="1"
         id="stop6" />
    </linearGradient>
  </defs>
  <g
     id="g2985"
     transform="translate(-0.00144788,-0.15542504)">
    <path
       id="rect1262"
       style="fill:#0e85d6;fill-opacity:1;stroke-width:1.27966;stroke-linecap:round;stroke-linejoin:round"
       d="m 13.413548,5.0021832 c -3.7822397,0 -6.5867754,-0.1192441 -8.6800217,1.4053517 C 3.6726888,7.1802181 2.9684259,8.3441361 2.5635199,9.8191302 2.1601782,11.288222 2.0057377,13.101364 2.0057377,15.455251 V 26.34979 h 0.010153 c -0.012519,0.859225 -0.010301,1.774496 -0.00261,2.810702 l 0.017842,2.354516 v 0.01471 c -0.00261,0.225231 -0.017842,0.436006 -0.017842,0.760313 V 46.78011 c 0,2.455102 0.079036,4.330674 0.3744055,5.844593 0.2958871,1.517312 0.8463497,2.74393 1.8516349,3.59309 1.0028075,0.8471 2.2942408,1.19806 3.774588,1.363657 1.4793028,0.164405 3.2259749,0.16189 5.4046379,0.16189 h 37.170335 c 2.220656,0 3.988305,0.0035 5.475956,-0.16189 1.488953,-0.165592 2.779995,-0.518427 3.774584,-1.371014 0.997072,-0.85466 1.527578,-2.083698 1.808339,-3.597997 0.27985,-1.510782 0.348949,-3.380872 0.348949,-5.832329 v -5.36142 -5.361427 -11.81182 c 0,-0.09778 -0.0046,-0.181206 -0.0049,-0.277144 v -0.46845 c 0,-0.324307 -0.01528,-0.535083 -0.01774,-0.760313 v -0.01471 l 0.01774,-2.354515 C 62.00857,18.097168 62.01645,16.287797 61.841535,14.775884 61.666615,13.26371 61.29809,11.975014 60.412513,10.974313 59.52328,9.9693194 58.228728,9.4169401 56.643011,9.1274915 55.061991,8.8390727 53.116256,8.7694093 50.583807,8.7694093 H 29.8465 L 25.934377,5.0021845 Z" />
    <path
       id="path305"
       style="fill:url(#linearGradient3239);fill-opacity:1;stroke-width:1.27966;stroke-linecap:round;stroke-linejoin:round"
       d="m 50.589322,13.002182 c 3.782238,0 6.586773,-0.119246 8.680023,1.405352 1.060835,0.772683 1.765101,1.936601 2.170005,3.411595 0.403361,1.469092 0.557781,3.282234 0.557781,5.636121 v 10.894539 h -0.01035 c 0.01232,0.859225 0.01035,1.774496 0.0026,2.810703 l -0.01774,2.354515 v 0.01471 c 0.0026,0.225232 0.01774,-0.563525 0.01774,-0.239218 v 8.055632 c 0,2.455102 -0.07906,4.330675 -0.37443,5.844594 -0.295868,1.517312 -0.84635,2.74393 -1.851633,3.593089 -1.00281,0.8471 -2.294241,1.198061 -3.774589,1.363657 -1.479302,0.164406 -3.225974,0.16189 -5.404638,0.16189 H 13.413984 c -2.220656,0 -3.9883042,0.0035 -5.4759557,-0.16189 C 6.4490757,57.981883 5.1580336,57.629047 4.1634451,56.776461 3.1663726,55.921801 2.6358666,54.692762 2.3551055,53.178464 2.0752563,51.667682 2.0061565,49.797591 2.0061565,47.346134 v -5.361425 2.173022 -11.912288 c 0,-0.09778 0.00456,-0.181207 0.00493,-0.277145 v -0.46845 c 0,-0.324307 0.015279,-0.535083 0.017743,-0.760313 v -0.01471 L 2.0110852,28.370307 C 1.9943277,26.097164 1.9864419,24.287794 2.16136,22.77588 2.3362288,21.26371 2.7047791,19.975013 3.5903555,18.974312 4.479589,17.969318 5.7741403,17.416939 7.3598573,17.127491 8.9408772,16.839069 10.886612,16.769406 13.419061,16.769406 h 12.017807 l 3.912,-3.767225 z"
       sodipodi:nodetypes="sccscccccsscccsscccsccscsccccccsccs" />
    <path
       style="opacity:1;fill:#ffffff;fill-opacity:0.25098;stroke-width:1.27966;stroke-linecap:round;stroke-linejoin:round"
       d="m 29.346676,13.002189 -3.912109,3.767578 H 13.416991 c -2.532441,0 -4.4775771,0.069 -6.0585941,0.357422 -1.585711,0.289448 -2.8803,0.842665 -3.769531,1.847656 -0.885573,1.000698 -1.254819,2.288617 -1.429688,3.800781 -0.111496,0.963737 -0.14041,2.110466 -0.148437,3.359376 0.0039,-4.55e-4 0.0078,-0.0015 0.01172,-0.002 0.0178,-0.860318 0.0558,-1.656018 0.136718,-2.355468 0.174869,-1.512166 0.544115,-2.802037 1.429688,-3.802735 0.889231,-1.004991 2.18382,-1.556255 3.769531,-1.845703 1.581017,-0.288422 3.5261531,-0.359375 6.0585941,-0.359375 H 25.83496 l 3.912109,-3.767578 h 20.839845 c 3.782232,0 6.586441,-0.118343 8.679687,1.40625 1.060828,0.77268 1.765023,1.937121 2.169922,3.412109 0.326712,1.190121 0.484665,2.623275 0.535156,4.369141 0.006,0.001 0.0116,0.0029 0.01758,0.0039 -0.01184,-2.221111 -0.165198,-3.963543 -0.552734,-5.375 -0.404899,-1.474988 -1.109094,-2.637476 -2.169922,-3.410156 -2.093246,-1.524593 -4.897455,-1.40625 -8.679688,-1.40625 z"
       id="path1446" />
    <path
       id="path2144"
       style="opacity:1;fill:#ffffff;fill-opacity:0.25098;stroke-width:1.27966;stroke-linecap:round;stroke-linejoin:round"
       d="m 13.411988,5.0021385 c -3.7822363,0 -6.5864423,-0.1183443 -8.6796873,1.40625 -1.060836,0.7726824 -1.765017,1.9351636 -2.169922,3.4101562 -0.403342,1.4690903 -0.556641,3.2828333 -0.556641,5.6367183 v 1 c 0,-2.353885 0.153299,-4.165676 0.556641,-5.634766 0.404905,-1.474992 1.109086,-2.6394261 2.169922,-3.4121085 2.093245,-1.5245943 4.897451,-1.40625 8.6796873,-1.40625 h 12.121695 l 3.912109,3.7675781 h 21.13807 c 2.53245,0 4.47767,0.070956 6.0586,0.3593744 1.58571,0.289448 2.8803,0.840711 3.76953,1.845703 0.88558,1.0007 1.25281,2.290562 1.42773,3.802735 0.08744,0.755955 0.13063,1.586244 0.14844,2.511718 -0.006,-1.310973 -0.0326,-2.512114 -0.14844,-3.513671 -0.17492,-1.512173 -0.54215,-2.800082 -1.42773,-3.800782 -0.88923,-1.0049919 -2.18382,-1.5582072 -3.76953,-1.8476555 -1.58093,-0.2884185 -3.52615,-0.3574219 -6.0586,-0.3574219 H 29.845582 L 25.933473,5.0021385 Z m 48.566404,17.9785155 -0.0059,0.74414 v 0.01563 c 0.0024,0.22523 0.01758,0.435459 0.01758,0.759766 v 0.46875 c 0,0.09594 0.0059,0.179564 0.0059,0.277343 v -1 c 0,-0.09778 -0.0059,-0.181405 -0.0059,-0.277343 v -0.46875 c 0,-0.22176 -0.0064,-0.363021 -0.01172,-0.519531 z m -59.9648413,4.36914 c -0.00206,0.584494 -0.00691,1.143027 -0.00195,1.810547 l 0.00195,0.142578 c -0.00243,-0.673006 -0.00675,-1.356027 0.00195,-1.953125 z m 0.011719,4.419922 c -0.00534,0.156671 -0.013672,0.299456 -0.013672,0.521484 v 1 c 0,-0.324306 0.016931,-0.536488 0.019531,-0.761718 v -0.01367 z"
       sodipodi:nodetypes="sccscccsccsccsccccsccscccsscsssccccccccscccc" />
    <path
       style="opacity:1;fill:#000000;fill-opacity:0.403922;stroke-width:1.27976;stroke-linecap:round;stroke-linejoin:round"
       d="m 2.0028685,47.346 v 1 c 0,2.451455 0.069771,4.323204 0.3496651,5.833984 0.280806,1.514297 0.8116521,2.742997 1.808884,3.597657 0.9947465,0.852585 2.2848523,1.205506 3.774043,1.371093 1.4878876,0.16539 3.2564314,0.16211 5.4774414,0.16211 H 50.58878 c 2.179009,0 3.925629,0.0023 5.405166,-0.16211 1.480587,-0.165595 2.773025,-0.516182 3.775995,-1.363281 1.005452,-0.849158 1.55595,-2.076439 1.851867,-3.59375 0.295358,-1.513917 0.37506,-3.390603 0.37506,-5.845703 v -1 c 0,2.4551 -0.07971,4.331786 -0.37506,5.845703 -0.295917,1.517311 -0.846415,2.742639 -1.851867,3.591797 -1.00297,0.847099 -2.295408,1.199639 -3.775995,1.365234 -1.479537,0.164406 -3.226157,0.160157 -5.405166,0.160157 H 13.412902 c -2.22101,0 -3.9895538,0.0052 -5.4774414,-0.160157 C 6.4462699,57.983147 5.1561641,57.630226 4.1614176,56.777641 3.1641857,55.922981 2.6333396,54.692328 2.3525336,53.178031 2.0726407,51.667251 2.0028685,49.797455 2.0028685,47.346 Z"
       id="path2585" />
    <path
       style="opacity:1;fill:#000000;fill-opacity:0.403922;stroke-width:1.27983;stroke-linecap:round;stroke-linejoin:round"
       d="m 2.0106705,47.516346 c -0.0025,9.61e-4 -0.0053,9.43e-4 -0.0078,0.002 0.0035,2.362642 0.074769,4.186852 0.3477458,5.660156 0.2808295,1.514295 0.8117235,2.742997 1.809061,3.597657 0.9948339,0.852583 2.28508,1.205508 3.7744114,1.371093 1.4880312,0.16539 3.2567593,0.16211 5.4779763,0.16211 h 37.179519 c 2.179223,0 3.926016,0.0023 5.405698,-0.16211 1.480702,-0.165593 2.773296,-0.516184 3.776365,-1.363281 1.005539,-0.849156 1.556091,-2.074488 1.852038,-3.591797 0.282773,-1.4492 0.364434,-3.245636 0.371186,-5.548828 -0.003,0.0015 -0.007,0.0024 -0.01,0.0039 -0.02811,1.824864 -0.121371,3.312596 -0.361423,4.542969 -0.295947,1.517309 -0.846499,2.744594 -1.852039,3.59375 -1.003068,0.847097 -2.295662,1.197688 -3.776364,1.363281 -1.479682,0.164406 -3.226475,0.16211 -5.405698,0.16211 H 13.412051 c -2.221217,0 -3.9899451,0.0033 -5.4779763,-0.16211 C 6.4447432,56.981661 5.1544971,56.628736 4.1596633,55.776153 3.1623258,54.921493 2.6314318,53.692791 2.3506023,52.178496 2.1179382,50.922738 2.0335784,49.39596 2.0106705,47.516346 Z"
       id="path2839" />
  </g>
</svg>
