<?xml version="1.0" encoding="UTF-8" standalone="no"?>
<svg
   height="16"
   width="16"
   version="1.1"
   id="svg729"
   sodipodi:docname="x-office-spreadsheet-symbolic.svg"
   inkscape:version="1.2.1 (9c6d41e410, 2022-07-14, custom)"
   xmlns:inkscape="http://www.inkscape.org/namespaces/inkscape"
   xmlns:sodipodi="http://sodipodi.sourceforge.net/DTD/sodipodi-0.dtd"
   xmlns="http://www.w3.org/2000/svg"
   xmlns:svg="http://www.w3.org/2000/svg">
  <defs
     id="defs733" />
  <sodipodi:namedview
     id="namedview731"
     pagecolor="#ffffff"
     bordercolor="#000000"
     borderopacity="0.25"
     inkscape:showpageshadow="2"
     inkscape:pageopacity="0.0"
     inkscape:pagecheckerboard="0"
     inkscape:deskcolor="#d1d1d1"
     showgrid="true"
     inkscape:zoom="23.334524"
     inkscape:cx="14.377838"
     inkscape:cy="8.0138769"
     inkscape:window-width="1360"
     inkscape:window-height="661"
     inkscape:window-x="0"
     inkscape:window-y="30"
     inkscape:window-maximized="1"
     inkscape:current-layer="svg729">
    <inkscape:grid
       type="xygrid"
       id="grid852" />
  </sodipodi:namedview>
  <path
     id="rect4156"
     style="fill:#dddddd;fill-opacity:1;stroke:none;stroke-width:0.564263"
     d="M 3,0 A 1,1 0 0 0 2,1 v 3 11 a 1,1 0 0 0 1,1 h 5 5 a 1,1 0 0 0 1,-1 V 6 5 L 9,0 H 8 Z m 0,1 h 5 v 4 a 1,1 0 0 0 1,1 h 4 v 9 H 8 3 V 4 Z M 9,1.5 12.5,5 H 9 Z M 5.5,8 C 5.223,8 5,8.223 5,8.5 5,8.777 5.223,9 5.5,9 h 5 C 10.777,9 11,8.777 11,8.5 11,8.223 10.777,8 10.5,8 Z m 0,2 C 5.223,10 5,10.223 5,10.5 5,10.777 5.223,11 5.5,11 h 5 C 10.777,11 11,10.777 11,10.5 11,10.223 10.777,10 10.5,10 Z m 0,2 C 5.223,12 5,12.223 5,12.5 5,12.777 5.223,13 5.5,13 h 5 C 10.777,13 11,12.777 11,12.5 11,12.223 10.777,12 10.5,12 Z" />
  <path
     d="m 5,8 v 5 h 6 V 8 Z M 6,9 H 7 V 9.996 H 6 Z m 2,0 h 2 V 9.996 H 8 Z M 6,10.996 H 7 V 12 H 6 Z m 2,0 h 2 V 12 H 8 Z"
     id="path725"
     style="fill:#dedede" />
</svg>
