<?xml version="1.0" encoding="UTF-8" standalone="no"?>
<svg
   inkscape:version="1.2.1 (9c6d41e410, 2022-07-14, custom)"
   sodipodi:docname="user-trash.svg"
   id="svg4109"
   viewBox="0 0 16 16"
   version="1.1"
   height="16"
   width="16"
   xmlns:inkscape="http://www.inkscape.org/namespaces/inkscape"
   xmlns:sodipodi="http://sodipodi.sourceforge.net/DTD/sodipodi-0.dtd"
   xmlns="http://www.w3.org/2000/svg"
   xmlns:svg="http://www.w3.org/2000/svg">
  <sodipodi:namedview
     id="namedview4111"
     pagecolor="#ffffff"
     bordercolor="#000000"
     borderopacity="0.25"
     inkscape:showpageshadow="2"
     inkscape:pageopacity="0.0"
     inkscape:pagecheckerboard="0"
     inkscape:deskcolor="#d1d1d1"
     showgrid="true"
     inkscape:zoom="28.750435"
     inkscape:cx="12.330248"
     inkscape:cy="8.9911685"
     inkscape:window-width="1920"
     inkscape:window-height="1024"
     inkscape:window-x="3280"
     inkscape:window-y="30"
     inkscape:window-maximized="1"
     inkscape:current-layer="svg4109">
    <inkscape:grid
       type="xygrid"
       id="grid4230" />
  </sodipodi:namedview>
  <defs
     id="defs4099">
    <style
       id="current-color-scheme"
       type="text/css">.ColorScheme-Text { color:#dedede; }</style>
  </defs>
  <path
     id="path4101"
     style="fill:#dedede;fill-opacity:1;paint-order:stroke fill markers"
     d="M 6 1 C 5.48267 1 5 1.48069 5 2 L 2 2 C 1.49923 2 1 2.49811 1 3 L 2 3 L 3 3 L 12 3 L 13 3 L 14 3 C 14 2.50337 13.5226 2 13 2 L 10 2 C 10 1.49828 9.51466 1 9 1 L 6 1 Z M 2 4 L 2 15 C 2 15.554 2.446 16 3 16 L 12 16 C 12.554 16 13 15.554 13 15 L 13 4 L 12 4 L 12 15 L 3 15 L 3 4 L 2 4 Z M 5 5 L 5 13 L 6 13 L 6 5 L 5 5 Z M 7 5 L 7 13 L 8 13 L 8 5 L 7 5 Z M 9 5 L 9 13 L 10 13 L 10 5 L 9 5 Z" />
</svg>
