<?xml version="1.0" encoding="UTF-8" standalone="no"?>
<svg
   width="16"
   height="16"
   version="1.1"
   id="svg3351"
   sodipodi:docname="user-trash.svg"
   inkscape:version="1.2.2 (b0a8486541, 2022-12-01)"
   xmlns:inkscape="http://www.inkscape.org/namespaces/inkscape"
   xmlns:sodipodi="http://sodipodi.sourceforge.net/DTD/sodipodi-0.dtd"
   xmlns="http://www.w3.org/2000/svg"
   xmlns:svg="http://www.w3.org/2000/svg">
  <sodipodi:namedview
     id="namedview3353"
     pagecolor="#ffffff"
     bordercolor="#000000"
     borderopacity="0.25"
     inkscape:showpageshadow="2"
     inkscape:pageopacity="0.0"
     inkscape:pagecheckerboard="0"
     inkscape:deskcolor="#d1d1d1"
     showgrid="true"
     inkscape:zoom="25.111012"
     inkscape:cx="20.429284"
     inkscape:cy="13.679258"
     inkscape:window-width="1920"
     inkscape:window-height="988"
     inkscape:window-x="1920"
     inkscape:window-y="22"
     inkscape:window-maximized="1"
     inkscape:current-layer="svg3351">
    <inkscape:grid
       type="xygrid"
       id="grid3835" />
  </sodipodi:namedview>
  <defs
     id="defs3345">
    <inkscape:path-effect
       effect="fillet_chamfer"
       id="path-effect4868"
       is_visible="true"
       lpeversion="1"
       nodesatellites_param="F,0,1,1,0,0.111,0,1 @ F,0,1,1,0,0.111,0,1 @ F,0,1,1,0,0.111,0,1 @ F,0,1,1,0,0.111,0,1 @ F,0,0,1,0,0,0,1 @ F,0,0,1,0,0,0,1 @ F,0,0,1,0,0,0,1 @ F,0,0,1,0,0,0,1 @ F,0,0,1,0,0,0,1 @ F,0,0,1,0,2,0,1 @ F,0,0,1,0,2,0,1 @ F,0,0,1,0,0,0,1 @ F,0,0,1,0,0,0,1 @ F,0,0,1,0,1,0,1 @ F,0,0,1,0,1,0,1 @ F,0,0,1,0,0,0,1 @ F,0,0,1,0,0,0,1 @ F,0,0,1,0,0,0,1 @ F,0,0,1,0,0,0,1 @ F,0,0,1,0,0,0,1 @ F,0,1,1,0,0.111,0,1 @ F,0,1,1,0,0.111,0,1 @ F,0,1,1,0,0.111,0,1 @ F,0,1,1,0,0.111,0,1 | F,0,1,1,0,0.111,0,1 @ F,0,1,1,0,0.111,0,1 @ F,0,1,1,0,0.111,0,1 @ F,0,1,1,0,0.111,0,1 @ F,0,1,1,0,0.111,0,1 @ F,0,1,1,0,0.111,0,1 | F,0,0,1,0,0,0,1 @ F,0,0,1,0,0,0,1 @ F,0,0,1,0,0,0,1 @ F,0,0,1,0,0,0,1 | F,0,0,1,0,0,0,1 @ F,0,0,1,0,0,0,1 @ F,0,0,1,0,0,0,1 @ F,0,0,1,0,0,0,1 | F,0,0,1,0,0,0,1 @ F,0,0,1,0,0,0,1 @ F,0,0,1,0,0,0,1 @ F,0,0,1,0,0,0,1"
       unit="px"
       method="auto"
       mode="F"
       radius="1"
       chamfer_steps="1"
       flexible="false"
       use_knot_distance="true"
       apply_no_radius="true"
       apply_with_radius="true"
       only_selected="true"
       hide_knots="false" />
    <style
       id="current-color-scheme"
       type="text/css">
   .ColorScheme-Text { color:#FFFFFF; } .ColorScheme-Highlight { color:#5294e2; }
  </style>
    <linearGradient
       id="arrongin"
       x1="0"
       x2="0"
       y1="0"
       y2="1">
      <stop
         offset="0%"
         style="stop-color:#dd9b44; stop-opacity:1"
         id="stop3292" />
      <stop
         offset="100%"
         style="stop-color:#ad6c16; stop-opacity:1"
         id="stop3294" />
    </linearGradient>
    <linearGradient
       id="aurora"
       x1="0"
       x2="0"
       y1="0"
       y2="1">
      <stop
         offset="0%"
         style="stop-color:#09D4DF; stop-opacity:1"
         id="stop3297" />
      <stop
         offset="100%"
         style="stop-color:#9269F4; stop-opacity:1"
         id="stop3299" />
    </linearGradient>
    <linearGradient
       id="fitdance"
       x1="0"
       x2="0"
       y1="0"
       y2="1">
      <stop
         offset="0%"
         style="stop-color:#1AD6AB; stop-opacity:1"
         id="stop3302" />
      <stop
         offset="100%"
         style="stop-color:#329DB6; stop-opacity:1"
         id="stop3304" />
    </linearGradient>
    <linearGradient
       id="oomox"
       x1="0"
       x2="0"
       y1="0"
       y2="1">
      <stop
         offset="0%"
         style="stop-color:#efefe7; stop-opacity:1"
         id="stop3307" />
      <stop
         offset="100%"
         style="stop-color:#8f8f8b; stop-opacity:1"
         id="stop3309" />
    </linearGradient>
    <linearGradient
       id="rainblue"
       x1="0"
       x2="0"
       y1="0"
       y2="1">
      <stop
         offset="0%"
         style="stop-color:#00F260; stop-opacity:1"
         id="stop3312" />
      <stop
         offset="100%"
         style="stop-color:#0575E6; stop-opacity:1"
         id="stop3314" />
    </linearGradient>
    <linearGradient
       id="sunrise"
       x1="0"
       x2="0"
       y1="0"
       y2="1">
      <stop
         offset="0%"
         style="stop-color: #FF8501; stop-opacity:1"
         id="stop3317" />
      <stop
         offset="100%"
         style="stop-color: #FFCB01; stop-opacity:1"
         id="stop3319" />
    </linearGradient>
    <linearGradient
       id="telinkrin"
       x1="0"
       x2="0"
       y1="0"
       y2="1">
      <stop
         offset="0%"
         style="stop-color: #b2ced6; stop-opacity:1"
         id="stop3322" />
      <stop
         offset="100%"
         style="stop-color: #6da5b7; stop-opacity:1"
         id="stop3324" />
    </linearGradient>
    <linearGradient
       id="60spsycho"
       x1="0"
       x2="0"
       y1="0"
       y2="1">
      <stop
         offset="0%"
         style="stop-color: #df5940; stop-opacity:1"
         id="stop3327" />
      <stop
         offset="25%"
         style="stop-color: #d8d15f; stop-opacity:1"
         id="stop3329" />
      <stop
         offset="50%"
         style="stop-color: #e9882a; stop-opacity:1"
         id="stop3331" />
      <stop
         offset="100%"
         style="stop-color: #279362; stop-opacity:1"
         id="stop3333" />
    </linearGradient>
    <linearGradient
       id="90ssummer"
       x1="0"
       x2="0"
       y1="0"
       y2="1">
      <stop
         offset="0%"
         style="stop-color: #f618c7; stop-opacity:1"
         id="stop3336" />
      <stop
         offset="20%"
         style="stop-color: #94ffab; stop-opacity:1"
         id="stop3338" />
      <stop
         offset="50%"
         style="stop-color: #fbfd54; stop-opacity:1"
         id="stop3340" />
      <stop
         offset="100%"
         style="stop-color: #0f83ae; stop-opacity:1"
         id="stop3342" />
    </linearGradient>
  </defs>
  <path
     id="path7286"
     style="color:#ffffff;fill:#dedede;fill-opacity:1"
     d="M 7.5 1.8886719 C 7.3625005 1.8886719 7.2256314 1.8935852 7.0917969 1.9023438 C 7.0892826 1.9024838 7.0864949 1.9022014 7.0839844 1.9023438 C 6.1990333 1.9525396 5.5861515 2.1353219 5.4140625 2.1914062 C 5.4005955 2.1953507 5.3554688 2.2089844 5.3554688 2.2089844 L 5 2.3164062 L 5 2.3378906 L 5 4 L 2.0019531 4 L 2 4 L 1 4 L 1 5 L 2 5 L 2 12 L 2 14 C 2 15.104566 2.8954341 16 4 16 L 7 16 L 8 16 L 11 16 C 12.104566 16 13 15.104566 13 14 L 13 12 L 13 5 L 14 5 L 14 4 L 13 4 L 12.998047 4 L 10 4 L 10 2.3378906 L 10 2.3164062 L 9.6445312 2.2089844 C 9.6445312 2.2089844 9.5994045 2.1953507 9.5859375 2.1914062 C 9.4138485 2.1353219 8.8009667 1.9525396 7.9160156 1.9023438 C 7.9133651 1.9021672 7.9108559 1.9025174 7.9082031 1.9023438 C 7.7743686 1.8935852 7.6374995 1.8886719 7.5 1.8886719 z M 7.5 2.8886719 C 8.2279983 2.8886719 8.7340013 3.0452344 9 3.1152344 L 9 4.0488281 C 8.7512607 4.0214982 8.5017211 4.0003291 8.2519531 3.9863281 C 8.2513038 3.9862917 8.2506493 3.9863644 8.25 3.9863281 C 8.1254692 3.9789992 8.0016554 3.9745402 7.8769531 3.9707031 C 7.8763021 3.970684 7.8756511 3.9707221 7.875 3.9707031 C 7.7496451 3.9668652 7.6235465 3.9648438 7.4980469 3.9648438 C 7.2478126 3.9654937 6.9978149 3.9723271 6.7480469 3.9863281 C 6.4982789 4.0003291 6.2487393 4.0214982 6 4.0488281 L 6 3.1152344 C 6.2659987 3.0452344 6.7720017 2.8886719 7.5 2.8886719 z M 3 5 L 12 5 L 12 12 L 12 14 C 12 14.552282 11.552283 15 11 15 L 8 15 L 7 15 L 4 15 C 3.4477166 15 3 14.552282 3 14 L 3 12 L 3 5 z M 5 7 L 5 13 L 6 13 L 6 7 L 5 7 z M 7 7 L 7 13 L 8 13 L 8 7 L 7 7 z M 9 7 L 9 13 L 10 13 L 10 7 L 9 7 z " />
</svg>
