<?xml version="1.0" encoding="UTF-8" standalone="no"?>
<svg
   sodipodi:docname="folder-videos00.svg"
   id="svg1776"
   class=""
   xml:space="preserve"
   viewBox="0 0 16 16"
   y="0"
   x="0"
   height="16"
   width="16"
   version="1.1"
   inkscape:version="1.2.1 (9c6d41e410, 2022-07-14, custom)"
   xmlns:inkscape="http://www.inkscape.org/namespaces/inkscape"
   xmlns:sodipodi="http://sodipodi.sourceforge.net/DTD/sodipodi-0.dtd"
   xmlns="http://www.w3.org/2000/svg"
   xmlns:svg="http://www.w3.org/2000/svg"><defs
     id="defs1780" /><sodipodi:namedview
     id="namedview1778"
     pagecolor="#ffffff"
     bordercolor="#000000"
     borderopacity="0.25"
     inkscape:showpageshadow="2"
     inkscape:pageopacity="0.0"
     inkscape:pagecheckerboard="0"
     inkscape:deskcolor="#d1d1d1"
     showgrid="true"
     inkscape:zoom="32.150929"
     inkscape:cx="16.655817"
     inkscape:cy="7.8069284"
     inkscape:window-width="1920"
     inkscape:window-height="973"
     inkscape:window-x="1920"
     inkscape:window-y="30"
     inkscape:window-maximized="1"
     inkscape:current-layer="svg1776"><inkscape:grid
       type="xygrid"
       id="grid2262" /></sodipodi:namedview><g
     id="g1774"
     style="fill:#dedede;fill-opacity:1"
     transform="matrix(0.66666667,0,0,0.64881524,0,0.21397385)"><path
       d="m 10.089,7.3936421 c -0.497,-0.297 -1.089,0.062 -1.089,0.644 v 7.7708389 c 0,0.585 0.593,0.939 1.089,0.645 L 16.108,12.65 c 0.488,-0.291 0.487,-0.997 0.001,-1.289 z"
       fill="#ffffff"
       data-original="#000000"
       class=""
       id="path1770"
       style="fill:#dedede;fill-opacity:1"
       sodipodi:nodetypes="csscccc" /><path
       d="M 19.904,3.271 C 15.251,2.58 8.751,2.58 4.096,3.271 2.234,3.547 0.767,5.009 0.447,6.907 c -0.596,3.523 -0.596,6.664 0,10.186 0.32,1.899 1.787,3.36 3.649,3.636 2.332,0.346 5.124,0.519 7.915,0.519 2.786,0 5.571,-0.172 7.894,-0.518 1.86,-0.276 3.326,-1.737 3.648,-3.636 0.596,-3.523 0.596,-6.665 0,-10.188 -0.32,-1.897 -1.787,-3.359 -3.649,-3.635 z m 2.17,13.573 C 21.861,18.1 20.901,19.066 19.684,19.246 15.166,19.917 8.846,19.917 4.316,19.245 3.098,19.064 2.137,18.099 1.925,16.843 1.351,13.449 1.351,10.552 1.925,7.156 2.138,5.9 3.098,4.936 4.317,4.754 6.579,4.419 9.29,4.251 11.999,4.251 c 2.711,0 5.422,0.168 7.684,0.503 1.218,0.181 2.179,1.146 2.391,2.402 0.574,3.396 0.574,6.293 0,9.688 z"
       fill="#ffffff"
       data-original="#000000"
       class=""
       id="path1772"
       style="fill:#dedede;fill-opacity:1" /></g></svg>
