<?xml version="1.0" encoding="UTF-8" standalone="no"?>
<svg
   version="1.1"
   viewBox="0 0 16 16"
   id="svg698"
   sodipodi:docname="drive-multidisk3.svg"
   inkscape:version="1.2.1 (9c6d41e410, 2022-07-14, custom)"
   xmlns:inkscape="http://www.inkscape.org/namespaces/inkscape"
   xmlns:sodipodi="http://sodipodi.sourceforge.net/DTD/sodipodi-0.dtd"
   xmlns="http://www.w3.org/2000/svg"
   xmlns:svg="http://www.w3.org/2000/svg">
  <defs
     id="defs702" />
  <sodipodi:namedview
     id="namedview700"
     pagecolor="#ffffff"
     bordercolor="#000000"
     borderopacity="0.25"
     inkscape:showpageshadow="2"
     inkscape:pageopacity="0.0"
     inkscape:pagecheckerboard="0"
     inkscape:deskcolor="#d1d1d1"
     showgrid="true"
     inkscape:zoom="33.956549"
     inkscape:cx="17.19845"
     inkscape:cy="7.5390464"
     inkscape:window-width="1920"
     inkscape:window-height="973"
     inkscape:window-x="3280"
     inkscape:window-y="30"
     inkscape:window-maximized="1"
     inkscape:current-layer="svg698">
    <inkscape:grid
       type="xygrid"
       id="grid2008" />
  </sodipodi:namedview>
  <style
     id="current-color-scheme"
     type="text/css">.ColorScheme-Text {
            color:#ffffff;
        }</style>
  <path
     d="M 0 16 L 16 16 L 16 7 L 13 0 L 4 0 L 0 7 M 12.2 1 L 14.4 7 L 1.6 7.00003 L 4.8 1 Z M 1 8 L 15 8 L 15 9.5 L 15 11 L 1 11 L 1 9.5 Z M 12 9 L 12 10 L 13 10 L 13 9 Z M 1 12 L 15 12 L 15 13.5 L 15 15 L 1 15 L 1 13.5 Z M 12 13 L 12 14 L 13 14 L 13 13 Z"
     style="fill:#dddddd;fill-opacity:1"
     class="ColorScheme-Text"
     id="path696"
     sodipodi:nodetypes="ccccccccccccccccccccccccccccccccccc" />
</svg>
