<?xml version="1.0" encoding="UTF-8" standalone="no"?>
<svg
   role="img"
   viewBox="0 0 16 16"
   version="1.1"
   id="svg14368"
   sodipodi:docname="nextcloud.svg"
   width="16"
   height="16"
   inkscape:version="1.2.1 (9c6d41e410, 2022-07-14, custom)"
   xmlns:inkscape="http://www.inkscape.org/namespaces/inkscape"
   xmlns:sodipodi="http://sodipodi.sourceforge.net/DTD/sodipodi-0.dtd"
   xmlns="http://www.w3.org/2000/svg"
   xmlns:svg="http://www.w3.org/2000/svg">
  <defs
     id="defs14372" />
  <sodipodi:namedview
     id="namedview14370"
     pagecolor="#ffffff"
     bordercolor="#000000"
     borderopacity="0.25"
     inkscape:showpageshadow="2"
     inkscape:pageopacity="0.0"
     inkscape:pagecheckerboard="0"
     inkscape:deskcolor="#d1d1d1"
     showgrid="true"
     inkscape:zoom="38.817699"
     inkscape:cx="6.9298285"
     inkscape:cy="9.4802115"
     inkscape:window-width="1920"
     inkscape:window-height="965"
     inkscape:window-x="3280"
     inkscape:window-y="38"
     inkscape:window-maximized="1"
     inkscape:current-layer="svg14368">
    <inkscape:grid
       type="xygrid"
       id="grid14854" />
  </sodipodi:namedview>
  <path
     d="M 8 4 C 6.34533 4 4.94533 5.09683 4.518 6.5723 C 4.14467 5.78299 3.32267 5.22369 2.368 5.22369 A 2.38325 2.38325 0 0 0 3.1225e-17 7.5 A 2.38325 2.38325 0 0 0 2.368 9.7763 C 3.32267 9.7763 4.144 9.21636 4.51733 8.42705 C 4.94467 9.9032 6.34533 11 8.012 11 C 9.67 11 11.0627 9.9153 11.4994 8.45204 C 11.8787 9.22725 12.688 9.7763 13.6314 9.7763 A 2.38259 2.38259 0 0 0 16 7.5 A 2.38325 2.38325 0 0 0 13.6314 5.22369 C 12.6874 5.22369 11.878 5.77338 11.4987 6.54796 C 11.0627 5.08466 9.67 3.99936 8.012 4 Z M 8 5.3358 C 9.264 5.3358 10.264 6.29681 10.264 7.5 C 10.264 8.70318 9.264 9.6642 8.012 9.6642 A 2.24503 2.24503 0 0 1 5.76067 7.5 C 5.74867 6.29681 6.74867 5.3358 8 5.3358 Z M 2.368 6.55949 C 2.916 6.55949 3.346 6.97272 3.346 7.5 C 3.346 8.02727 2.91667 8.43987 2.368 8.44051 A 0.969595 0.969595 0 0 1 1.39 7.5 A 0.968259 0.968259 0 0 1 2.368 6.56013 Z M 13.6314 6.55949 C 14.18 6.55949 14.61 6.97272 14.61 7.5 C 14.61 8.02727 14.18 8.44051 13.6314 8.44051 A 0.969595 0.969595 0 0 1 12.6534 7.5 A 0.968259 0.968259 0 0 1 13.6314 6.56013 Z"
     id="path14366"
     style="fill:#dddddd;fill-opacity:1;stroke-width:0.667765" />
</svg>
