<?xml version="1.0" encoding="UTF-8" standalone="no"?>
<svg
   width="16"
   height="16"
   version="1.1"
   id="svg14"
   sodipodi:docname="media-removable-harddrive2.svg"
   inkscape:version="1.2.1 (9c6d41e410, 2022-07-14, custom)"
   xmlns:inkscape="http://www.inkscape.org/namespaces/inkscape"
   xmlns:sodipodi="http://sodipodi.sourceforge.net/DTD/sodipodi-0.dtd"
   xmlns="http://www.w3.org/2000/svg"
   xmlns:svg="http://www.w3.org/2000/svg"
   xmlns:rdf="http://www.w3.org/1999/02/22-rdf-syntax-ns#"
   xmlns:cc="http://creativecommons.org/ns#"
   xmlns:dc="http://purl.org/dc/elements/1.1/">
  <defs
     id="defs18" />
  <sodipodi:namedview
     id="namedview16"
     pagecolor="#ffffff"
     bordercolor="#000000"
     borderopacity="0.25"
     inkscape:showpageshadow="2"
     inkscape:pageopacity="0.0"
     inkscape:pagecheckerboard="0"
     inkscape:deskcolor="#d1d1d1"
     showgrid="false"
     inkscape:zoom="50.3125"
     inkscape:cx="7.642236"
     inkscape:cy="8.0099379"
     inkscape:window-width="1920"
     inkscape:window-height="965"
     inkscape:window-x="1920"
     inkscape:window-y="38"
     inkscape:window-maximized="1"
     inkscape:current-layer="svg14" />
  <metadata
     id="metadata2">
    <rdf:RDF>
      <cc:Work
         rdf:about="">
        <dc:format>image/svg+xml</dc:format>
        <dc:type
           rdf:resource="http://purl.org/dc/dcmitype/StillImage" />
        <dc:title />
      </cc:Work>
    </rdf:RDF>
  </metadata>
  <g
     fill="#f2f2f2"
     id="g12"
     style="fill:#dedede;fill-opacity:1">
    <path
       d="m4 10v6h8v-6h-1v5h-6v-5h-1z"
       fill-rule="evenodd"
       style="paint-order:normal;fill:#dedede;fill-opacity:1"
       id="path4" />
    <path
       d="m5 0c-1.108 0-2 0.892-2 2v7c0 1.108 0.892 2 2 2h6c1.108 0 2-0.892 2-2v-7c0-1.108-0.892-2-2-2h-6zm0 1h6c0.554 0 1 0.446 1 1v7c0 0.554-0.446 1-1 1h-6c-0.554 0-1-0.446-1-1v-7c0-0.554 0.446-1 1-1z"
       fill-rule="evenodd"
       style="paint-order:normal;fill:#dedede;fill-opacity:1"
       id="path6" />
    <rect
       x="6"
       y="13"
       width="1"
       height="1"
       rx="0"
       ry="0"
       stroke-linecap="round"
       stroke-linejoin="round"
       id="rect8"
       style="fill:#dedede;fill-opacity:1" />
    <rect
       x="9"
       y="13"
       width="1"
       height="1"
       rx="0"
       ry="0"
       stroke-linecap="round"
       stroke-linejoin="round"
       id="rect10"
       style="fill:#dedede;fill-opacity:1" />
  </g>
</svg>
