<?xml version="1.0" encoding="UTF-8" standalone="no"?>
<svg
   width="16"
   height="16"
   version="1.1"
   id="svg62"
   sodipodi:docname="folder-remote1.svg"
   inkscape:version="1.2.1 (9c6d41e410, 2022-07-14, custom)"
   xmlns:inkscape="http://www.inkscape.org/namespaces/inkscape"
   xmlns:sodipodi="http://sodipodi.sourceforge.net/DTD/sodipodi-0.dtd"
   xmlns="http://www.w3.org/2000/svg"
   xmlns:svg="http://www.w3.org/2000/svg">
  <sodipodi:namedview
     id="namedview64"
     pagecolor="#ffffff"
     bordercolor="#000000"
     borderopacity="0.25"
     inkscape:showpageshadow="2"
     inkscape:pageopacity="0.0"
     inkscape:pagecheckerboard="0"
     inkscape:deskcolor="#d1d1d1"
     showgrid="true"
     inkscape:zoom="20.283834"
     inkscape:cx="20.484293"
     inkscape:cy="14.518951"
     inkscape:window-width="1920"
     inkscape:window-height="1016"
     inkscape:window-x="1920"
     inkscape:window-y="30"
     inkscape:window-maximized="1"
     inkscape:current-layer="svg62">
    <inkscape:grid
       type="xygrid"
       id="grid1500" />
  </sodipodi:namedview>
  <defs
     id="defs56">
    <style
       id="current-color-scheme"
       type="text/css">
   .ColorScheme-Text { color:#e0def4; } .ColorScheme-Highlight { color:#5294e2; }
  </style>
    <linearGradient
       id="arrongin"
       x1="0%"
       x2="0%"
       y1="0%"
       y2="100%">
      <stop
         offset="0%"
         style="stop-color:#dd9b44; stop-opacity:1"
         id="stop3" />
      <stop
         offset="100%"
         style="stop-color:#ad6c16; stop-opacity:1"
         id="stop5" />
    </linearGradient>
    <linearGradient
       id="aurora"
       x1="0%"
       x2="0%"
       y1="0%"
       y2="100%">
      <stop
         offset="0%"
         style="stop-color:#09D4DF; stop-opacity:1"
         id="stop8" />
      <stop
         offset="100%"
         style="stop-color:#9269F4; stop-opacity:1"
         id="stop10" />
    </linearGradient>
    <linearGradient
       id="fitdance"
       x1="0%"
       x2="0%"
       y1="0%"
       y2="100%">
      <stop
         offset="0%"
         style="stop-color:#1AD6AB; stop-opacity:1"
         id="stop13" />
      <stop
         offset="100%"
         style="stop-color:#329DB6; stop-opacity:1"
         id="stop15" />
    </linearGradient>
    <linearGradient
       id="oomox"
       x1="0%"
       x2="0%"
       y1="0%"
       y2="100%">
      <stop
         offset="0%"
         style="stop-color:#efefe7; stop-opacity:1"
         id="stop18" />
      <stop
         offset="100%"
         style="stop-color:#8f8f8b; stop-opacity:1"
         id="stop20" />
    </linearGradient>
    <linearGradient
       id="rainblue"
       x1="0%"
       x2="0%"
       y1="0%"
       y2="100%">
      <stop
         offset="0%"
         style="stop-color:#00F260; stop-opacity:1"
         id="stop23" />
      <stop
         offset="100%"
         style="stop-color:#0575E6; stop-opacity:1"
         id="stop25" />
    </linearGradient>
    <linearGradient
       id="sunrise"
       x1="0%"
       x2="0%"
       y1="0%"
       y2="100%">
      <stop
         offset="0%"
         style="stop-color: #FF8501; stop-opacity:1"
         id="stop28" />
      <stop
         offset="100%"
         style="stop-color: #FFCB01; stop-opacity:1"
         id="stop30" />
    </linearGradient>
    <linearGradient
       id="telinkrin"
       x1="0%"
       x2="0%"
       y1="0%"
       y2="100%">
      <stop
         offset="0%"
         style="stop-color: #b2ced6; stop-opacity:1"
         id="stop33" />
      <stop
         offset="100%"
         style="stop-color: #6da5b7; stop-opacity:1"
         id="stop35" />
    </linearGradient>
    <linearGradient
       id="60spsycho"
       x1="0%"
       x2="0%"
       y1="0%"
       y2="100%">
      <stop
         offset="0%"
         style="stop-color: #df5940; stop-opacity:1"
         id="stop38" />
      <stop
         offset="25%"
         style="stop-color: #d8d15f; stop-opacity:1"
         id="stop40" />
      <stop
         offset="50%"
         style="stop-color: #e9882a; stop-opacity:1"
         id="stop42" />
      <stop
         offset="100%"
         style="stop-color: #279362; stop-opacity:1"
         id="stop44" />
    </linearGradient>
    <linearGradient
       id="90ssummer"
       x1="0%"
       x2="0%"
       y1="0%"
       y2="100%">
      <stop
         offset="0%"
         style="stop-color: #f618c7; stop-opacity:1"
         id="stop47" />
      <stop
         offset="20%"
         style="stop-color: #94ffab; stop-opacity:1"
         id="stop49" />
      <stop
         offset="50%"
         style="stop-color: #fbfd54; stop-opacity:1"
         id="stop51" />
      <stop
         offset="100%"
         style="stop-color: #0f83ae; stop-opacity:1"
         id="stop53" />
    </linearGradient>
  </defs>
  <g
     id="g3258">
    <path
       style="fill:#dedede;fill-opacity:1;stroke-width:1.07087"
       d="M 1,14.99659 V 16 h 14 v -1.00341 z"
       id="path1446"
       sodipodi:nodetypes="ccccc" />
    <path
       id="path4948"
       style="font-variant-ligatures:none;font-variant-position:normal;font-variant-caps:normal;font-variant-numeric:normal;font-variant-alternates:normal;font-feature-settings:normal;text-indent:0;text-decoration-line:none;text-decoration-style:solid;text-decoration-color:#000000;text-transform:none;shape-padding:0;isolation:auto;mix-blend-mode:normal;fill:#dedede;fill-opacity:1;stroke-width:0.963624"
       d="M 4,0 C 2.73614,0.01392857 1.8155,-0.02718857 1.0625,0.35909714 0.672616,0.56442286 0.374825,0.89255214 0.222657,1.2840379 0.058657,1.6907521 0,2.1756429 0,2.7857143 v 7.4285717 c 0,0.611 0.05766,1.094971 0.222657,1.501685 0.17533879,0.510951 0.52013508,0.742132 0.839843,0.926715 C 1.7148108,12.977763 2.007075,13 4,13 h 8 c 2.006297,0 2.288173,-0.02501 2.9375,-0.357314 0.408346,-0.208751 0.6748,-0.52 0.8398,-0.926715 C 15.9413,11.309257 16,10.824357 16,10.214286 V 4.6428571 C 16,4.0318571 15.9423,3.547895 15.7773,3.1411807 15.7573,3.0901093 15.7291,3.04434 15.7031,2.9979114 L 15.6758,2.9453171 C 15.514,2.6386471 15.2567,2.3839771 14.9375,2.2144293 14.054678,1.9244236 13.365235,2 12,2 H 9 L 6.99414,0 H 3.99609 Z M 4,1 H 6.49414 L 8,2.5 6.49414,4 H 4 C 2.5954941,4 1.775721,3.9452042 1.257,4.172 1.0556469,4.2646844 1,4.311 1,4.311 V 2.7857143 C 0.99158627,2.0017913 1.0563,1.851915 1.1543,1.6104957 1.2523,1.3690671 1.35702,1.2653829 1.54102,1.1715971 1.90702,0.98309714 2.5673464,1 4,1 Z m 5,2 h 3 2.245 c 0.238628,0 0.544215,0.3225106 0.587,0.4676386 C 14.883047,3.6581501 15,3.6046396 15,4.6428571 v 5.5714289 c -0.0059,0.549714 -0.069,0.933771 -0.166,1.1752 -0.098,0.241428 -0.2027,0.34515 -0.3867,0.438935 C 14.0813,12.015993 13.509728,12 12,12 H 4 C 2.74,11.986071 1.90702,12.015993 1.54102,11.828421 1.35702,11.735564 1.2513,11.630914 1.1543,11.389486 1.06316,11.148057 1,10.764 1,10.214286 V 6.5 C 1,6.0079775 0.98107701,5.7702814 1.056,5.525 1.1321182,5.2758058 1.3861068,5.1357783 1.54297,5.086 2.1327,4.9803933 2.7631502,5 4,5 h 3 z"
       sodipodi:nodetypes="cccssccccccssccccccccccccccccccccccccscccccccscscccc" />
    <path
       id="rect1502"
       style="fill:#dedede;fill-opacity:1;stroke:#000000;stroke-width:0;stroke-opacity:0.4"
       d="m 7,13 h 2 v 1 H 7 Z"
       sodipodi:nodetypes="ccccc" />
  </g>
</svg>
