<?xml version="1.0" encoding="UTF-8" standalone="no"?>
<svg
   width="16"
   height="16"
   viewBox="0 0 16 16"
   fill="none"
   version="1.1"
   id="svg66"
   sodipodi:docname="folder-tar.svg"
   inkscape:version="1.2.2 (b0a8486541, 2022-12-01)"
   xmlns:inkscape="http://www.inkscape.org/namespaces/inkscape"
   xmlns:sodipodi="http://sodipodi.sourceforge.net/DTD/sodipodi-0.dtd"
   xmlns="http://www.w3.org/2000/svg"
   xmlns:svg="http://www.w3.org/2000/svg">
  <sodipodi:namedview
     id="namedview68"
     pagecolor="#ffffff"
     bordercolor="#000000"
     borderopacity="0.25"
     inkscape:showpageshadow="2"
     inkscape:pageopacity="0.0"
     inkscape:pagecheckerboard="0"
     inkscape:deskcolor="#d1d1d1"
     showgrid="true"
     inkscape:zoom="35.987577"
     inkscape:cx="8.6557647"
     inkscape:cy="8.8085952"
     inkscape:window-width="1920"
     inkscape:window-height="977"
     inkscape:window-x="3280"
     inkscape:window-y="26"
     inkscape:window-maximized="1"
     inkscape:current-layer="svg66">
    <inkscape:grid
       type="xygrid"
       id="grid543" />
  </sodipodi:namedview>
  <defs
     id="defs56">
    <style
       id="current-color-scheme"
       type="text/css">
   .ColorScheme-Text { color:#e0def4; } .ColorScheme-Highlight { color:#5294e2; }
  </style>
    <linearGradient
       id="arrongin"
       x1="0%"
       x2="0%"
       y1="0%"
       y2="100%">
      <stop
         offset="0%"
         style="stop-color:#dd9b44; stop-opacity:1"
         id="stop3" />
      <stop
         offset="100%"
         style="stop-color:#ad6c16; stop-opacity:1"
         id="stop5" />
    </linearGradient>
    <linearGradient
       id="aurora"
       x1="0%"
       x2="0%"
       y1="0%"
       y2="100%">
      <stop
         offset="0%"
         style="stop-color:#09D4DF; stop-opacity:1"
         id="stop8" />
      <stop
         offset="100%"
         style="stop-color:#9269F4; stop-opacity:1"
         id="stop10" />
    </linearGradient>
    <linearGradient
       id="fitdance"
       x1="0%"
       x2="0%"
       y1="0%"
       y2="100%">
      <stop
         offset="0%"
         style="stop-color:#1AD6AB; stop-opacity:1"
         id="stop13" />
      <stop
         offset="100%"
         style="stop-color:#329DB6; stop-opacity:1"
         id="stop15" />
    </linearGradient>
    <linearGradient
       id="oomox"
       x1="0%"
       x2="0%"
       y1="0%"
       y2="100%">
      <stop
         offset="0%"
         style="stop-color:#efefe7; stop-opacity:1"
         id="stop18" />
      <stop
         offset="100%"
         style="stop-color:#8f8f8b; stop-opacity:1"
         id="stop20" />
    </linearGradient>
    <linearGradient
       id="rainblue"
       x1="0%"
       x2="0%"
       y1="0%"
       y2="100%">
      <stop
         offset="0%"
         style="stop-color:#00F260; stop-opacity:1"
         id="stop23" />
      <stop
         offset="100%"
         style="stop-color:#0575E6; stop-opacity:1"
         id="stop25" />
    </linearGradient>
    <linearGradient
       id="sunrise"
       x1="0%"
       x2="0%"
       y1="0%"
       y2="100%">
      <stop
         offset="0%"
         style="stop-color: #FF8501; stop-opacity:1"
         id="stop28" />
      <stop
         offset="100%"
         style="stop-color: #FFCB01; stop-opacity:1"
         id="stop30" />
    </linearGradient>
    <linearGradient
       id="telinkrin"
       x1="0%"
       x2="0%"
       y1="0%"
       y2="100%">
      <stop
         offset="0%"
         style="stop-color: #b2ced6; stop-opacity:1"
         id="stop33" />
      <stop
         offset="100%"
         style="stop-color: #6da5b7; stop-opacity:1"
         id="stop35" />
    </linearGradient>
    <linearGradient
       id="60spsycho"
       x1="0%"
       x2="0%"
       y1="0%"
       y2="100%">
      <stop
         offset="0%"
         style="stop-color: #df5940; stop-opacity:1"
         id="stop38" />
      <stop
         offset="25%"
         style="stop-color: #d8d15f; stop-opacity:1"
         id="stop40" />
      <stop
         offset="50%"
         style="stop-color: #e9882a; stop-opacity:1"
         id="stop42" />
      <stop
         offset="100%"
         style="stop-color: #279362; stop-opacity:1"
         id="stop44" />
    </linearGradient>
    <linearGradient
       id="90ssummer"
       x1="0%"
       x2="0%"
       y1="0%"
       y2="100%">
      <stop
         offset="0%"
         style="stop-color: #f618c7; stop-opacity:1"
         id="stop47" />
      <stop
         offset="20%"
         style="stop-color: #94ffab; stop-opacity:1"
         id="stop49" />
      <stop
         offset="50%"
         style="stop-color: #fbfd54; stop-opacity:1"
         id="stop51" />
      <stop
         offset="100%"
         style="stop-color: #0f83ae; stop-opacity:1"
         id="stop53" />
    </linearGradient>
  </defs>
  <path
     id="path58"
     style="fill:#dedede;fill-opacity:1"
     class="ColorScheme-Text"
     d="M 3.9902344 1 C 2.7402356 1.015 1.8205461 0.97072017 1.0605469 1.3867188 C 0.67065826 1.6078385 0.37287297 1.9612129 0.22070312 2.3828125 C 0.060702985 2.8208121 -1.8503699e-17 3.3430007 0 4 L 0 12 C 0 12.657999 0.060702985 13.179188 0.22070312 13.617188 C 0.39070295 14.056187 0.69054525 14.407235 1.0605469 14.615234 C 1.8105461 15.031234 2.7402356 14.985 3.9902344 15 L 10.996094 15 L 11.996094 15 L 12.009766 15 C 13.259764 14.985 14.189454 15.030234 14.939453 14.615234 C 15.309453 14.408235 15.609297 14.055187 15.779297 13.617188 C 15.939297 13.179188 16 12.656999 16 12 L 16 6 C 16 5.3420007 15.939297 4.8208121 15.779297 4.3828125 C 15.759297 4.3278126 15.729219 4.2785156 15.699219 4.2285156 L 15.679688 4.171875 C 15.517388 3.8413453 15.259353 3.5670554 14.939453 3.3847656 C 14.401775 3.0865337 13.770378 3.027761 12.996094 3.0117188 L 12.996094 3 L 12.009766 3 L 9.9960938 3 L 8.9707031 3 L 6.9394531 1 L 4 1 L 3.9902344 1 z M 4.0097656 2 L 6.5390625 2 L 8 3.5 L 6.5898438 5 L 3.9902344 5 C 2.7402356 5.015 1.8205461 4.969766 1.0605469 5.3847656 C 1.0405469 5.3967656 1.02 5.4147344 1 5.4277344 L 1 4 C 1 3.4080006 1.0601563 2.9943747 1.1601562 2.734375 C 1.2601562 2.4743753 1.3607814 2.3627186 1.5507812 2.2617188 C 1.9107809 2.058719 2.7397669 2.015 4.0097656 2 z M 9 4 L 9.9960938 4 L 10 4 L 10 6.5 C 10 6.6326097 10.052679 6.7597559 10.146484 6.8535156 C 10.24029 6.9472853 10.3673 7 10.5 7 L 10.996094 7 L 10.996094 8 L 10.496094 8 C 10.219994 8 9.9960938 8.2239013 9.9960938 8.5 C 9.9960938 8.7760987 10.219994 9 10.496094 9 L 10.998047 9 L 10.998047 11 L 10.5 11 C 10.223802 11 10 11.2239 10 11.5 C 10 11.7761 10.223802 12 10.5 12 L 11 12 L 11 12.9375 C 10.9975 12.9577 10.996094 12.9791 10.996094 13 C 10.996094 13.0211 10.9975 13.0421 11 13.0625 L 11 14 L 10.996094 14 L 4 14 C 2.7400013 13.985 1.9107809 13.940281 1.5507812 13.738281 C 1.3607814 13.638281 1.2601562 13.525625 1.1601562 13.265625 C 1.0601564 13.005625 1 12.591999 1 12 L 1 8 C 1 7.4080006 1.0601563 6.9943747 1.1601562 6.734375 C 1.2601562 6.4743753 1.3707814 6.3627186 1.5507812 6.2617188 C 1.9207809 6.058719 2.7397669 6.015 4.0097656 6 L 7 6 L 9 4 z M 11 4 L 11.990234 4 L 12 4 L 12 6 L 11 6 L 11 4 z M 12.996094 4.0273438 C 13.696787 4.058423 14.190061 4.1202329 14.449219 4.2617188 C 14.629219 4.3617186 14.739844 4.4743753 14.839844 4.734375 C 14.939844 4.9943747 15 5.4080006 15 6 L 15 12 C 15 12.591999 14.939844 13.005625 14.839844 13.265625 C 14.739844 13.525625 14.639219 13.637281 14.449219 13.738281 C 14.089219 13.940281 13.259999 13.985 12 14 L 11.996094 14 L 12 13.998047 L 12 13.5 L 12.496094 13.5 C 12.772193 13.5 12.996094 13.2761 12.996094 13 C 12.996094 12.7239 12.772193 12.5 12.496094 12.5 L 12 12.5 L 12 11.541016 C 12.0011 11.527416 12 11.5139 12 11.5 C 12 11.4859 11.999294 11.472784 11.998047 11.458984 L 11.998047 10.5 L 12.5 10.5 C 12.7761 10.5 13 10.2761 13 10 C 13 9.7239013 12.7761 9.5 12.5 9.5 L 11.998047 9.5 L 11.996094 7 L 12.5 7 C 12.7761 7 13 6.7761391 13 6.5 L 13 5 L 12.996094 5 L 12.996094 4.0273438 z " />
</svg>
