<?xml version="1.0" encoding="UTF-8" standalone="no"?>
<svg
   id="svg6"
   version="1.1"
   viewBox="0 0 16 16"
   sodipodi:docname="folder-html.svg"
   inkscape:version="1.2.1 (9c6d41e410, 2022-07-14, custom)"
   xmlns:inkscape="http://www.inkscape.org/namespaces/inkscape"
   xmlns:sodipodi="http://sodipodi.sourceforge.net/DTD/sodipodi-0.dtd"
   xmlns="http://www.w3.org/2000/svg"
   xmlns:svg="http://www.w3.org/2000/svg">
  <sodipodi:namedview
     id="namedview999"
     pagecolor="#ffffff"
     bordercolor="#000000"
     borderopacity="0.25"
     inkscape:showpageshadow="2"
     inkscape:pageopacity="0.0"
     inkscape:pagecheckerboard="0"
     inkscape:deskcolor="#d1d1d1"
     showgrid="true"
     inkscape:zoom="40.021561"
     inkscape:cx="11.331392"
     inkscape:cy="8.3579948"
     inkscape:window-width="1920"
     inkscape:window-height="980"
     inkscape:window-x="1920"
     inkscape:window-y="30"
     inkscape:window-maximized="1"
     inkscape:current-layer="svg6">
    <inkscape:grid
       type="xygrid"
       id="grid1118" />
  </sodipodi:namedview>
  <defs
     id="defs3051">
    <style
       id="current-color-scheme"
       type="text/css">.ColorScheme-Text {
        color:#dfdfdf;
      }</style>
  </defs>
  <path
     id="path4"
     class="ColorScheme-Text"
     d="M 7.9989951,0 C 7.9160678,0 7.8343254,0.00200092 7.7520142,0.00398267 6.943451,0.02856312 6.1645456,0.17290249 5.4335804,0.42021369 5.3096862,0.46213914 5.1862007,0.50790449 5.0651008,0.55563814 5.0276146,0.57040618 4.9907394,0.58617983 4.9535609,0.60144341 4.8704347,0.63563796 4.7882248,0.6701241 4.7065801,0.70699482 4.5884134,0.76051725 4.4729934,0.81734218 4.3580182,0.8762758 4.2430134,0.93515007 4.1290973,0.99528072 4.0174237,1.0594971 3.5681336,1.3178497 3.1455897,1.6200851 2.7566259,1.9576799 2.7104885,1.9977222 2.6663971,2.0380408 2.6211846,2.0791636 2.5264246,2.1651952 2.4327601,2.2535957 2.3423352,2.3440379 2.2519501,2.4345297 2.163498,2.5261375 2.0774283,2.6208614 1.9483039,2.7628829 1.8237186,2.9098507 1.7049652,3.0609909 1.4674383,3.3631619 1.2523102,3.6839315 1.0596278,4.0189196 0.9953939,4.1305527 0.93324677,4.2425176 0.8743922,4.3574808 0.84495982,4.4149673 0.81688526,4.4724749 0.78874557,4.5307445 0.70442598,4.7056225 0.62540687,4.8848497 0.55371533,5.0664676 0.5298513,5.127027 0.50647498,5.188436 0.48400293,5.2496889 0.39421455,5.4947105 0.3167895,5.7449305 0.25096453,6.000498 0.21844978,6.1280686 0.18798253,6.2567381 0.16133435,6.386856 v 0.00199 C 0.13468618,6.5190445 0.11180702,6.648832 0.09162197,6.78118 0.07143701,6.9136171 0.05554922,7.0469798 0.04182747,7.1814787 0.01448325,7.4503571 0,7.7238266 0,8 c 0,0.2761337 0.01448325,0.5495932 0.04182747,0.8185213 0.0136224,0.1344493 0.02951009,0.2678914 0.0497945,0.4002986 0.02018495,0.132358 0.04316356,0.2642064 0.06971238,0.3943243 0.0266482,0.1301179 0.0568172,0.2586184 0.0896301,0.3863576 0.065825,0.2555682 0.14327985,0.5057882 0.23303845,0.7508092 0.0448446,0.122477 0.0928364,0.242876 0.14340826,0.36246 0.0505122,0.119571 0.10522402,0.237915 0.16133433,0.354494 0.0280403,0.05828 0.0562143,0.117748 0.0856466,0.175254 0.058865,0.114934 0.12097181,0.226899 0.18523561,0.338561 0.1926724,0.334988 0.4078304,0.655679 0.6453374,0.957929 0.1187733,0.151092 0.2433387,0.298048 0.3724631,0.440131 0.086109,0.09476 0.1743727,0.18638 0.2649069,0.276823 0.090485,0.09049 0.1841391,0.178782 0.2788494,0.264874 0.426182,0.38732 0.8936625,0.728705 1.3962391,1.017675 0.1116836,0.06413 0.2255897,0.126358 0.3405945,0.185212 0.2299799,0.117788 0.4648527,0.225072 0.7070826,0.320637 0.1210702,0.04777 0.2445854,0.0935 0.3684796,0.135425 C 6.2389815,15.852322 7.1015482,16 7.998995,16 c 0.6118442,0 1.2081447,-0.06917 1.7806528,-0.199153 0.2672182,-0.06075 0.5284132,-0.134335 0.7847612,-0.221061 0.123924,-0.04183 0.2473,-0.08772 0.36848,-0.135425 0.2422,-0.09544 0.479095,-0.2028 0.709075,-0.320637 0.115004,-0.05888 0.226979,-0.119034 0.338604,-0.183221 0.502605,-0.288919 0.972048,-0.632396 1.398229,-1.019666 0.09476,-0.08613 0.186404,-0.174432 0.276858,-0.264874 0.09049,-0.09039 0.178818,-0.18213 0.264908,-0.276823 0.129094,-0.142024 0.253738,-0.28899 0.372463,-0.440131 0.187929,-0.239075 0.361717,-0.489008 0.521847,-0.748818 0.04235,-0.06869 0.08521,-0.138987 0.125481,-0.209111 0.06423,-0.111603 0.124389,-0.223568 0.183244,-0.338561 0.02943,-0.05748 0.05949,-0.116986 0.08764,-0.175254 0.05628,-0.11653 0.108761,-0.234862 0.159343,-0.354494 0.05061,-0.119633 0.09861,-0.239913 0.143407,-0.36246 0.08979,-0.245021 0.167224,-0.495282 0.233039,-0.7508092 0.03291,-0.1278284 0.06299,-0.2562397 0.08964,-0.3863576 0.02655,-0.1302269 0.05143,-0.2619465 0.07171,-0.3943243 0.02019,-0.1324072 0.03608,-0.2658197 0.04979,-0.4002986 C 15.985515,8.5496528 16,8.2761734 16,8 16,7.7238663 15.985525,7.4503474 15.958165,7.1814787 15.944434,7.0469701 15.928649,6.9136172 15.90837,6.7811801 15.888182,6.6488223 15.86331,6.5189654 15.836662,6.3888475 15.810012,6.2587296 15.779939,6.1282074 15.74703,6.000498 15.681203,5.7449602 15.603722,5.4947105 15.513991,5.2496889 15.491617,5.1884359 15.468042,5.1270564 15.444277,5.0664676 15.37269,4.8848497 15.295518,4.7076141 15.211238,4.532736 15.183208,4.474456 15.153036,4.4169787 15.123595,4.3594723 15.064734,4.2445091 15.004608,4.1305627 14.940354,4.0189196 14.747672,3.6839017 14.530532,3.3632413 14.293026,3.0609909 14.174252,2.9099102 14.049715,2.7629424 13.920563,2.6208614 13.834552,2.5262068 13.74616,2.4344801 13.655655,2.3440379 13.565271,2.2535461 13.473508,2.165225 13.378797,2.0791636 13.195343,1.9124229 13.003583,1.7544448 12.805165,1.605178 12.542639,1.4076619 12.266776,1.2260687 11.980568,1.0614886 11.868892,0.9973614 11.756918,0.93512029 11.641964,0.8762758 11.589668,0.849515 11.537513,0.8241775 11.484613,0.7986059 11.421075,0.7678803 11.355833,0.7360359 11.291409,0.7069953 11.264461,0.6948042 11.236791,0.685033 11.209742,0.6731392 11.117964,0.6327995 11.026443,0.5925093 10.932885,0.55563857 c -9.94e-4,-5.3522e-4 -0.003,-9.6074e-4 -0.0039,-0.001991 -0.09966,-0.0391503 -0.201169,-0.0761717 -0.302751,-0.11152601 -0.02049,-0.006938 -0.04106,-0.0149689 -0.06175,-0.0219068 C 10.32754,0.34003022 10.085658,0.2709972 9.8394013,0.21309436 9.7624397,0.19495634 9.6861217,0.17926343 9.6083548,0.16330594 9.552274,0.15180863 9.4955017,0.13965868 9.4390533,0.12944983 9.0182607,0.05293323 8.5873645,0.00988108 8.1463869,0.00199152 8.0977639,0.00109951 8.0478667,0 7.9989951,0 Z m 0,0.43017178 c 0.5173623,0 1.0232257,0.0520041 1.5117623,0.15135673 -0.020483,0.0539183 -0.086999,0.0296958 -0.1434084,0.055763 -0.052899,0.0245804 -0.073226,0.0750307 -0.1294657,0.0856361 -0.1563095,0.0294371 -0.2849866,-0.0388119 -0.4202659,-0.0338561 -0.00597,0.0584777 0.065278,0.0927141 0.1015809,0.11152597 0.1226114,0.0642266 0.2235094,0.0556455 0.3963645,0.05178 0.088596,-0.001982 0.1907825,0.0264427 0.2668988,-0.0258899 0.048225,-0.0329062 0.045276,-0.10709344 0.085646,-0.14737369 0.017201,-0.0170477 0.041275,-0.033227 0.069712,-0.0477968 0.084917,0.0200212 0.1690739,0.0408337 0.252956,0.0637292 -0.014115,0.0578831 -0.1063527,0.0440058 -0.1075559,0.12148365 0.05976,0.0358797 0.1992123,-0.0185076 0.2529563,-0.0796614 0.02078,0.005947 0.04106,0.0116796 0.06175,0.0179239 0.121576,0.0369698 0.241561,0.0767043 0.360513,0.11949223 0.169554,0.0610544 0.336198,0.12859313 0.499938,0.20114503 -0.03142,0.018534 -0.06597,0.041921 -0.09362,0.041822 -0.07109,-4.46e-4 -0.100017,-0.094832 -0.179261,-0.059746 -0.007,0.091879 0.09737,0.1288311 0.163327,0.171272 0.07139,0.045989 0.145908,0.091346 0.171293,0.1712721 -0.06991,0.1481766 -0.182097,-0.00697 -0.292796,-0.00797 -0.121995,-8.723e-4 -0.298372,0.2307746 -0.402341,0.041822 0.02586,-0.1001158 0.13634,-0.1162486 0.163325,-0.2150859 -0.02377,0.00396 -0.04684,0.012689 -0.06971,0.021907 -0.04086,0.016156 -0.08181,0.037346 -0.123491,0.059746 -0.05469,0.029438 -0.11212,0.059117 -0.177268,0.073687 -0.05995,0.013182 -0.117729,0.010328 -0.171294,0.02589 C 9.943701,1.4301769 9.8705202,1.5053064 9.7617201,1.545428 9.7192628,1.560989 9.6684847,1.55655 9.6242872,1.571318 9.5205182,1.605909 9.3967078,1.668706 9.2896678,1.7266579 9.1802312,1.7857299 9.0568616,1.8469624 8.9889089,1.9058962 8.9522167,1.9375142 8.8561416,2.0493738 8.859443,2.0851344 c 0.00397,0.051044 0.1011664,0.06929 0.1035726,0.1214837 -0.00198,0.031618 -0.056605,0.099453 -0.017925,0.145382 0.0352,0.041826 0.1065378,0.00871 0.1812521,0.017924 0.1313319,0.016254 0.2179391,0.1236646 0.3186851,0.1792382 0.076167,0.042024 0.1888559,0.092697 0.274866,0.1035599 0.1180772,0.014767 0.2508004,-0.03471 0.2668976,0.059746 0.01561,0.09079 -0.1123795,0.1222671 -0.1214976,0.1792382 0.063637,0.083851 -0.042126,0.1236586 -0.041828,0.1971622 2.785e-4,0.059469 0.073408,0.1499479 0.1374321,0.1553397 0.086611,0.00693 0.2129881,-0.084893 0.2489731,-0.1712721 0.04277,-0.1029207 0.02502,-0.2436951 0.103574,-0.3186457 0.400517,0.011002 0.73887,-0.1812006 0.713057,-0.5914861 -0.003,-0.040538 -0.02647,-0.092883 -0.01792,-0.1374161 0.01253,-0.066308 0.126713,-0.1212771 0.111539,-0.2051282 0.04316,-0.013281 0.06954,-0.048379 0.09162,-0.087627 0.03292,-0.058478 0.05826,-0.1253207 0.119509,-0.1473737 0.0039,-0.00198 0.0073,-0.00299 0.01195,-0.00398 0.03501,-0.00793 0.07304,-0.00137 0.111539,0.00996 0.0686,0.020219 0.143198,0.055339 0.225072,0.049788 0.04165,-0.00298 0.09556,-0.039803 0.137432,-0.033856 0.08403,0.011695 0.134058,0.1133924 0.197187,0.1613145 0.05578,0.042619 0.115227,0.028844 0.129466,0.085636 -0.01651,0.09525 -0.08305,0.099766 -0.07768,0.1872043 v 0.00199 c 0.006,0.078598 0.08865,0.1395932 0.129465,0.1473737 0.06265,0.011695 0.152568,-0.022045 0.215112,-0.051779 0.06751,-0.031915 0.128254,-0.1014431 0.187228,-0.1493651 0.08422,0.064623 0.167496,0.1312401 0.248971,0.1991536 0.009,0.038159 0.01495,0.072302 0.01792,0.095594 0.01203,0.092771 -0.01155,0.1635547 -0.008,0.2489419 0.01103,0.1446482 0.192985,0.1293352 0.282833,0.2051284 0.02705,0.022994 0.03727,0.081653 0.05974,0.111526 0.04366,0.058082 0.0968,0.059537 0.103573,0.1214836 0.01611,0.1481767 -0.133578,0.1592573 -0.119507,0.3246204 -0.03102,0.064128 -0.109896,0.061857 -0.103572,0.1473736 0.0099,0.1354304 0.204011,0.03173 0.25694,0.1374161 0.02863,0.056793 -0.0051,0.098261 -0.0259,0.1792382 0.06672,0.079292 0.06783,0.2049597 -0.04979,0.2051281 -0.0715,0 -0.09104,-0.075761 -0.163327,-0.093602 -0.04017,-0.010015 -0.09621,-0.00871 -0.147392,-0.017924 -0.04375,-0.00793 -0.09598,-0.020934 -0.137433,-0.02589 -0.106105,-0.012587 -0.22009,0.019233 -0.282832,-0.041822 0.102276,-0.1355989 0.236978,-0.2695809 0.368478,-0.386358 0.03907,-0.034888 0.12348,-0.059565 0.103574,-0.1294499 -0.07318,-0.064128 -0.162011,0.00495 -0.231047,0.043815 -0.07249,0.040736 -0.159211,0.099394 -0.241005,0.111526 -0.142151,0.021013 -0.332003,-0.041868 -0.448152,0.033856 -0.01602,0.064722 0.132203,0.039729 0.11154,0.137416 -0.05687,0.00893 -0.109587,0.013855 -0.153368,-0.02589 -0.03997,-0.035879 -0.01796,-0.089879 -0.04383,-0.1115259 -0.04405,-0.036474 -0.208845,-0.046047 -0.282834,-0.033856 -0.09028,0.014668 -0.170821,0.068301 -0.181251,0.1453821 0.108461,0.050747 0.287306,-0.051873 0.326652,0.077669 -0.05945,0.1067664 -0.198053,0.1655365 -0.17926,0.3086881 0.007,0.055306 0.0722,0.1291994 0.119507,0.1374159 0.04753,0.00793 0.07358,-0.038218 0.119507,-0.033856 0.04862,0.00495 0.03853,0.058214 0.0956,0.049788 0.08273,-0.035285 0.12829,-0.1507739 0.223079,-0.1453821 0.113743,0.1378292 -0.102457,0.2052225 -0.223079,0.2489422 -0.137576,0.049756 -0.317456,0.077427 -0.422258,0.1214836 -0.05499,0.022896 -0.261408,0.2227773 -0.2908,0.067712 -0.02098,-0.1118312 0.101443,-0.079235 0.127475,-0.1712722 -0.133044,-0.025868 -0.255379,0.05758 -0.376449,0.10356 -0.172745,0.065218 -0.466211,0.1050403 -0.507902,0.2987304 -0.008,0.038753 0.0159,0.1115767 -0.01001,0.1374159 -0.02059,0.020814 -0.143331,0.025577 -0.197186,0.043814 -0.08292,0.028446 -0.155917,0.087762 -0.207145,0.1015683 -0.03868,0.010605 -0.095,0.00851 -0.119507,0.017924 -0.068267,0.026464 -0.092876,0.1178962 -0.1712499,0.1792382 -0.032116,0.025077 -0.1039114,0.044429 -0.1294658,0.069704 -0.044546,0.044205 -0.050953,0.1546901 -0.1294658,0.171272 -0.049915,0.00396 -0.09044,-0.036512 -0.1374329,-0.00797 -0.00597,0.1094227 0.039661,0.2578021 -0.00797,0.3684342 C 9.3331784,5.7985694 9.2206481,5.8557462 9.0904099,5.9288037 9.0184212,5.9693421 8.9543249,5.9808861 8.8673305,6.0243976 8.8055827,6.0551231 8.7491067,6.1279631 8.6781113,6.1697797 8.5140062,6.2662192 8.3163358,6.3796708 8.3175987,6.62385 c 2.785e-4,0.052829 0.027099,0.1115052 0.03386,0.1732636 0.00397,0.036375 -0.00397,0.07183 0,0.111526 0.010242,0.089699 0.075271,0.2029276 0,0.2648742 C 8.2358396,7.1261356 8.0878813,7.1103656 8.0069622,7.0281305 7.9847886,6.9434862 8.0530557,6.8742237 8.0428145,6.7971124 8.0348596,6.7351657 7.9461833,6.6238217 7.8954224,6.6158826 7.8431205,6.6079534 7.7960477,6.6640574 7.7420553,6.6596964 7.6778213,6.6547406 7.6174,6.5656813 7.53491,6.5561365 7.4140088,6.5420623 7.3242388,6.5827362 7.1903317,6.5641027 7.0607003,6.6331857 7.0245461,6.7574938 6.8656713,6.7453325 6.8096904,6.7413678 6.7570579,6.6988677 6.6923864,6.6855864 6.6222857,6.6711156 6.5163979,6.6446838 6.4434136,6.6497388 6.2970973,6.6596457 6.1906591,6.7658004 6.0649751,6.8309686 5.9540769,6.8886526 5.7971485,6.9604178 5.7642161,7.0799105 c -0.018098,0.064325 -0.00301,0.1535659 -0.025893,0.2130945 -0.015213,0.03915 -0.047336,0.074268 -0.067721,0.111526 -0.096352,0.1757105 -0.176716,0.4084472 -0.1035727,0.6611897 0.010839,0.037465 0.1059449,0.2500374 0.1454,0.2927559 0.044348,0.047476 0.1745469,0.1181838 0.2489728,0.1194922 0.062941,9.912e-4 0.1381658,-0.032911 0.1991782,-0.043814 0.070697,-0.012587 0.1588256,-0.013339 0.2230795,-0.033857 0.1858314,-0.05937 0.1485893,-0.309799 0.3346193,-0.3943241 0.081237,-0.036673 0.1758887,-0.044445 0.3186851,-0.051779 0.045341,0.03806 0.066017,0.1052942 0.059754,0.163306 -0.00498,0.043809 -0.047339,0.08292 -0.069711,0.1453822 -0.019489,0.054711 -0.022538,0.1191404 -0.041829,0.163306 -0.025554,0.057784 -0.08308,0.1009654 -0.1035726,0.1553397 -0.013423,0.035384 -0.0048,0.079592 -0.015934,0.111526 -0.019787,0.056496 -0.096845,0.095218 -0.061745,0.1533482 0.1840414,0.073048 0.4070528,-0.019777 0.5676577,0.00996 0.067813,0.012291 0.2084081,0.092873 0.2071454,0.1971621 -8.354e-4,0.078004 -0.061261,0.1276871 -0.069712,0.2130943 -0.010441,0.1073611 -0.054981,0.2396883 -0.059754,0.3266119 -0.00796,0.1423585 0.2087374,0.3883103 0.3605126,0.3863579 0.1633989,-0.00202 0.2592496,-0.1627996 0.4561179,-0.077669 0.065328,0.028148 0.1350063,0.134685 0.2071453,0.129452 0.059461,-0.0039 0.1474741,-0.1092647 0.1872275,-0.181232 0.048424,-0.087716 0.05193,-0.1608932 0.1374329,-0.2051282 0.092273,-0.047673 0.1667673,-0.025796 0.2848249,-0.069704 0.0527,-0.019526 0.097901,-0.052829 0.1454,-0.085636 0.041663,-0.028545 0.085479,-0.103706 0.1374329,-0.051779 0.068609,0.068389 -0.084063,0.1080037 -0.025893,0.1812298 0.1192306,0.063037 0.1805607,-0.1167466 0.2668987,-0.1194923 0.027543,-8.622e-4 0.1222824,0.053324 0.1712933,0.085636 0.067018,0.043908 0.089974,0.1051801 0.1633259,0.1194921 0.047132,0.00893 0.1229773,-0.016986 0.1892213,-0.00797 0.0877,0.012488 0.140681,0.087618 0.207143,0.085636 0.08094,-0.00198 0.119905,-0.090714 0.189219,-0.1035598 0.151717,-0.027752 0.208068,0.016921 0.274867,0.1115261 0.07487,0.012984 0.07685,-0.086867 0.1454,-0.051779 -0.03759,0.074732 0.01368,0.1088991 0.04383,0.1712721 0.01949,0.040043 0.01566,0.068292 0.03387,0.085636 0.04096,0.039049 0.121134,0.039706 0.181252,0.077675 0.06344,0.03985 0.09853,0.113707 0.171294,0.197162 0.07487,0.08534 0.200767,0.174995 0.300758,0.181229 0.09446,0.006 0.170878,-0.02754 0.248972,-0.01792 0.177807,0.02181 0.287898,0.109561 0.412299,0.205128 0.0695,0.05333 0.133046,0.09145 0.15536,0.155341 0.01572,0.0446 0.008,0.103333 0.0259,0.153347 0.03798,0.106855 0.193881,0.159876 0.137433,0.344537 0.02586,0.05421 0.08309,0.07362 0.1454,0.111525 0.04981,0.03033 0.09343,0.09288 0.147391,0.101569 0.03491,0.006 0.07335,-0.0097 0.103573,-0.008 0.09774,0.007 0.164275,0.04496 0.248973,0.07767 0.0525,0.02022 0.118417,0.0281 0.153367,0.05178 0.04365,0.02944 0.04976,0.127291 0.103572,0.153347 0.0352,0.01705 0.11471,-0.007 0.173287,0 0.09228,0.01061 0.217412,0.06812 0.300758,0.06971 0.05061,9.91e-4 0.09255,-0.0214 0.137431,-0.01792 0.104356,0.008 0.185951,0.07379 0.266901,0.147373 -1.035431,1.669053 -2.701367,2.908245 -4.662762,3.381628 C 9.768732,15.285461 9.747105,15.208608 9.743823,15.133656 9.736863,14.970603 9.762901,14.85614 9.735853,14.705477 9.715866,14.591515 9.689379,14.416717 9.648213,14.345007 9.6021579,14.265211 9.4226036,14.13081 9.3315027,14.080124 9.2713451,14.04682 9.1998331,14.034662 9.1343162,14.002449 8.9943437,13.933901 8.7217125,13.788412 8.6602723,13.649988 8.6424739,13.61014 8.6455032,13.557052 8.6264119,13.512571 8.5891247,13.42466 8.5108808,13.348424 8.4551187,13.263629 8.3489534,13.101835 8.2633189,12.898958 8.1543595,12.73189 8.0992741,12.64705 8.0514294,12.550525 7.9910334,12.482948 7.9556357,12.443101 7.8422446,12.405494 7.8277074,12.345532 7.8083177,12.266137 7.7486481,12.157317 7.7579951,12.09659 7.7704233,12.01472 7.9295369,11.950241 7.9292883,11.875529 7.92901,11.812099 7.845515,11.774068 7.8277075,11.72019 c -0.043354,-0.131089 0.023883,-0.20748 0.075689,-0.316654 0.017102,-0.03588 0.033987,-0.09503 0.051785,-0.121484 0.03152,-0.04717 0.095463,-0.06043 0.1374329,-0.111527 0.023467,-0.02864 0.039087,-0.08695 0.069712,-0.127458 0.065328,-0.08663 0.1703095,-0.118971 0.1971865,-0.197161 0.021875,-0.06373 0.035712,-0.38334 0.00995,-0.489919 -0.014915,-0.06175 -0.073631,-0.112845 -0.095606,-0.171272 -0.038878,-0.103525 -0.046575,-0.2173163 -0.1533672,-0.2150861 -0.065924,9.913e-4 -0.1130002,0.075494 -0.155359,0.1214841 -0.010142,0.06116 -0.00588,0.126708 -0.069712,0.145381 C 7.797676,10.265335 7.7604472,10.13358 7.6464467,10.099079 7.6011053,10.0853 7.5294248,10.08587 7.5010466,10.073181 7.4178238,10.035922 7.3915735,9.9152791 7.3038633,9.868061 7.2304814,9.8289105 7.1670678,9.8425876 7.1226112,9.7824248 7.1041165,9.7409949 7.117624,9.6646557 7.1126522,9.6091611 7.0184888,9.5541525 6.9395143,9.3488908 6.8298193,9.3004732 6.7571335,9.2681616 6.6459152,9.2715517 6.5549534,9.240727 6.512197,9.2262562 6.4781402,9.208519 6.4334548,9.1989049 6.3783686,9.1866147 6.3227545,9.1844658 6.2800876,9.1630572 6.1099072,9.0788096 6.0187847,8.8067089 5.8080353,8.8125467 5.7181474,8.8145291 5.6305597,8.8986784 5.5491038,8.8981828 5.4681648,8.8977369 5.3319799,8.8336867 5.2304186,8.7866568 5.1249197,8.7376941 5.0087067,8.7115681 4.9216925,8.6671646 4.8513929,8.6312851 4.8018705,8.5649417 4.7404403,8.5377149 4.6934083,8.5169007 4.6256632,8.5141298 4.5870731,8.4958925 4.5321859,8.4699244 4.4741519,8.413889 4.405821,8.3664428 4.3409905,8.3216429 4.2709335,8.2532122 4.2683881,8.1951708 4.2654051,8.1279708 4.3311401,8.070558 4.3381005,8.0059747 4.3602741,7.8016892 4.2079285,7.6546727 4.1130292,7.5339807 4.0427296,7.4442818 3.9604679,7.3680474 3.8899496,7.2850386 c 0.00397,-0.055109 0.00397,-0.064493 0,-0.1194921 -0.053396,-0.051738 -0.09893,-0.1296218 -0.155359,-0.2071197 -0.051009,-0.069876 -0.1485073,-0.1446622 -0.1613344,-0.223052 -0.015811,-0.096438 0.036691,-0.1792662 0,-0.2728405 -0.061152,-0.155283 -0.278756,-0.085834 -0.2509645,0.1194923 0.00796,0.056594 0.087397,0.1330869 0.1115398,0.1891958 0.024759,0.057189 0.020751,0.1282674 0.04382,0.1971621 0.022174,0.06601 0.08849,0.1227961 0.1115398,0.197162 0.036491,0.1174511 0.036203,0.2432399 0.069711,0.3166542 0.029533,0.065218 0.1366901,0.1281649 0.075688,0.2071198 C 3.653254,7.7061701 3.6238381,7.6250226 3.5732562,7.5777945 3.5450172,7.5515291 3.4414158,7.5014928 3.4258645,7.4403786 3.4128387,7.389929 3.458805,7.3209071 3.4437905,7.2591487 3.4142588,7.1380899 3.1697897,7.1347841 3.1689246,7.0102067 3.1684773,6.9320052 3.2695807,6.9225155 3.2705054,6.8469008 3.2711718,6.7641398 3.157543,6.6940221 3.1330727,6.6238488 3.1107,6.5595231 3.1075648,6.4574423 3.0992122,6.3669406 3.0912576,6.2819992 3.1006757,6.1835332 3.0812863,6.1179985 3.0636865,6.0590253 2.974856,5.978374 2.9179602,5.9467264 2.8426891,5.9049 2.783517,5.9223434 2.746667,5.8610905 2.7146493,5.8075685 2.6938738,5.6957233 2.6869135,5.6380384 2.6744845,5.5348799 2.6829254,5.4215232 2.6769582,5.3114265 c -0.00597,-0.1102651 -0.016904,-0.2160864 0,-0.334578 C 2.7195122,4.8938894 2.7989096,4.8539162 2.8422725,4.7717202 2.8725005,4.7145312 2.8758872,4.6433609 2.9099933,4.5825243 2.9729344,4.4704751 3.1105703,4.3683576 3.202785,4.2579038 3.3022184,4.1389167 3.3935691,4.0234935 3.4517576,3.8874783 3.4726387,3.8392094 3.5275323,3.7335752 3.5194782,3.674384 3.5081427,3.5919204 3.353811,3.5236548 3.366111,3.4254419 3.3740657,3.3645854 3.459795,3.3640119 3.4856178,3.3039583 3.4988425,3.2729353 3.510815,3.1876292 3.511511,3.15061 3.5125054,3.067849 3.4689131,2.9820725 3.4856178,2.8937018 3.4997374,2.8182754 3.6130813,2.7872865 3.5553302,2.704506 3.4980566,2.6225379 3.3936478,2.7476737 3.3302589,2.6945482 3.2720902,2.6457837 3.3428156,2.5871049 3.3481849,2.4973862 3.3501736,2.4617047 3.3264804,2.4222418 3.3302589,2.3958178 3.3352306,2.3574605 3.4118908,2.292118 3.3920042,2.2663679 3.3609809,2.2271185 3.3270856,2.1484329 3.2784726,2.0851382 4.2371606,1.3183664 5.3863792,0.77766756 6.6425918,0.54966394 h 0.00198 c 0.015611,0.0265628 0.027447,0.0581073 0.065729,0.0697038 0.074873,-0.0387539 0.1505484,0.002973 0.2330384,0 0.080343,-0.002973 0.1524502,-0.039766 0.2410056,-0.0258899 0.1564982,0.0244813 0.374638,0.17858253 0.4979455,0.0955937 0.031023,-0.0210123 0.023746,-0.0591531 0.051785,-0.11351755 0.022274,-0.0435114 0.056302,-0.0897894 0.07768,-0.14339059 0.062345,-0.001982 0.1245941,-0.001991 0.1872274,-0.001991 z"
     style="fill:#dfdfdf;stroke-width:1.01972" />
</svg>
