<?xml version="1.0" encoding="UTF-8" standalone="no"?>
<!-- Created with Inkscape (http://www.inkscape.org/) -->

<svg
   width="64"
   height="64"
   viewBox="0 0 64 64.000004"
   version="1.1"
   id="svg5"
   inkscape:version="1.2.1 (9c6d41e410, 2022-07-14, custom)"
   sodipodi:docname="application-x-deb.svg"
   xmlns:inkscape="http://www.inkscape.org/namespaces/inkscape"
   xmlns:sodipodi="http://sodipodi.sourceforge.net/DTD/sodipodi-0.dtd"
   xmlns="http://www.w3.org/2000/svg"
   xmlns:svg="http://www.w3.org/2000/svg">
  <sodipodi:namedview
     id="namedview7"
     pagecolor="#ffffff"
     bordercolor="#000000"
     borderopacity="0.25"
     inkscape:showpageshadow="2"
     inkscape:pageopacity="0.0"
     inkscape:pagecheckerboard="0"
     inkscape:deskcolor="#d1d1d1"
     inkscape:document-units="px"
     showgrid="true"
     inkscape:zoom="4.7291416"
     inkscape:cx="-5.3920991"
     inkscape:cy="45.357069"
     inkscape:window-width="1920"
     inkscape:window-height="1002"
     inkscape:window-x="1920"
     inkscape:window-y="24"
     inkscape:window-maximized="1"
     inkscape:current-layer="svg5">
    <inkscape:grid
       type="xygrid"
       id="grid2821" />
  </sodipodi:namedview>
  <defs
     id="defs2">
    <linearGradient
       id="linear0"
       gradientUnits="userSpaceOnUse"
       x1="381"
       y1="-41.666668"
       x2="381"
       y2="-62.833332"
       gradientTransform="matrix(0.0530303,0,0,-0.125,20.823462,30.54294)">
      <stop
         offset="0"
         style="stop-color:rgb(12.941177%,12.941177%,12.941177%);stop-opacity:0.392157;"
         id="stop13780" />
      <stop
         offset="1"
         style="stop-color:rgb(49.411765%,34.117648%,76.078433%);stop-opacity:0;"
         id="stop13782" />
    </linearGradient>
  </defs>
  <g
     id="g2853">
    <path
       id="rect234"
       style="opacity:0.2;stroke-width:1;stroke-linecap:round;stroke-linejoin:round"
       d="m 14,5 h 24 l 16,16 v 36 c 0,2.216 -1.784,4 -4,4 H 14 c -2.216,0 -4,-1.784 -4,-4 V 9 c 0,-2.216 1.784,-4 4,-4 z"
       sodipodi:nodetypes="sccssssss" />
    <path
       id="rect448"
       style="fill:#f75e95;fill-opacity:1;stroke-width:1;stroke-linecap:round;stroke-linejoin:round"
       d="m 14,4 h 24 l 6,10 10,6 v 36 c 0,2.216 -1.784,4 -4,4 H 14 c -2.216,0 -4,-1.784 -4,-4 V 8 c 0,-2.216 1.784,-4 4,-4 z"
       sodipodi:nodetypes="scccssssss" />
    <path
       d="m 32.924417,40.632243 c 0.113632,-0.339693 0.133886,-0.543611 0.177313,-0.74135 -0.313087,0.391359 -0.144356,0.47478 -0.177313,0.74135 m 0.578627,-2.361368 c 0.05647,0.509796 -0.392388,0.708565 0.09921,0.37179 0.263996,-0.580858 -0.102646,-0.160663 -0.09921,-0.37179 m 8.591693,-4.464405 c 0.24477,-0.08737 0.600941,-0.04806 0.861675,-0.105564 -0.339006,0.02764 -0.675952,0.04428 -1.008606,0.08565 l 0.146999,0.01988 m 7.862701,9.523056 -0.05304,0.130676 c -0.09784,0.676639 -0.308967,1.346068 -0.631666,1.967092 0.357029,-0.655011 0.587037,-1.371643 0.684877,-2.097716 m -9.951148,2.114366 c -0.126505,-0.136289 -0.19997,-0.300042 -0.283907,-0.463623 0.07999,0.286653 0.24357,0.53314 0.395479,0.78409 l -0.111572,-0.320296 m -0.562149,0.02146 -0.05115,0.247861 c 0.238076,0.316005 0.427061,0.658272 0.730536,0.904416 -0.218509,-0.41642 -0.380545,-0.588411 -0.679385,-1.152277 m 2.963511,-11.384584 -0.136272,0.0277 0.126608,-0.01133 0.0096,-0.01631 m -0.38518,-0.104706 c 0.193277,0.03363 0.41757,0.05967 0.385334,0.104877 0.212449,-0.04562 0.259653,-0.08682 -0.385196,-0.104843 m 4.030992,8.706525 c 0.04408,-0.637056 -0.128135,-0.435369 -0.186015,-0.192709 0.06734,0.03457 0.120857,0.449324 0.186015,0.192709 m -0.716735,1.823937 c 0.216277,-0.290944 0.374194,-0.60918 0.429121,-0.93823 -0.04978,0.2343 -0.178514,0.436845 -0.302101,0.650719 -0.675952,0.416419 -0.06351,-0.247174 0,-0.499669 -0.727103,0.89549 -0.09956,0.536917 -0.12702,0.78718 m -1.941859,0.47272 c -0.361852,0.0046 0.06806,0.18181 0.540607,0.253078 0.131036,-0.0999 0.248735,-0.200279 0.354351,-0.29829 -0.293794,0.07032 -0.593149,0.07197 -0.894941,0.04521 m -10.46987,-4.346997 c 0.113632,-0.340208 0.133886,-0.544298 0.177313,-0.741522 -0.313258,0.39153 -0.144356,0.475123 -0.177313,0.741522 m 0.578284,-2.361368 c 0.05647,0.509967 -0.392217,0.708221 0.09938,0.371447 0.263996,-0.580858 -0.102645,-0.160148 -0.09938,-0.371447 m 8.591006,-4.465435 c 0.244376,-0.08735 0.60113,-0.04806 0.861263,-0.105581 -0.338594,0.0277 -0.675488,0.04427 -1.008023,0.0857 l 0.146777,0.01989 m 7.863044,9.523915 -0.05304,0.130676 c -0.09784,0.67681 -0.308967,1.346239 -0.631666,1.967263 0.357028,-0.65501 0.587037,-1.371643 0.684877,-2.097716 m -9.950633,2.114023 c -0.12599,-0.136289 -0.199971,-0.300213 -0.283907,-0.463108 0.07999,0.286825 0.243741,0.53314 0.39565,0.78409 L 40.007234,45.44391 m -0.562149,0.02128 -0.05115,0.24786 c 0.238076,0.316177 0.427061,0.658444 0.730536,0.904588 -0.218509,-0.416419 -0.380545,-0.588411 -0.679385,-1.152448 m 2.963168,-11.384756 -0.135877,0.0277 0.126676,-0.01133 0.0093,-0.01631 m 5.396628,8.867188 c 0.01996,0.534891 -0.156338,0.794818 -0.315799,1.254475 l -0.286739,0.142348 c -0.234403,0.454749 0.02328,0.288713 -0.144596,0.650256 -0.36635,0.324794 -1.110188,1.016005 -1.348282,1.079292 -0.174086,-0.0039 0.117751,-0.205017 0.155908,-0.283615 -0.490914,0.335744 -0.393075,0.50396 -1.142663,0.708393 l -0.0218,-0.04892 c -1.847281,0.867855 -4.413597,-0.85172 -4.379954,-3.197639 -0.01957,0.148819 -0.05613,0.111571 -0.09698,0.171305 -0.09526,-1.20686 0.558544,-2.419042 1.661042,-2.914591 1.078467,-0.532797 2.34283,-0.31446 3.115248,0.404919 -0.424658,-0.55494 -1.26934,-1.143179 -2.269708,-1.088766 -0.980456,0.01596 -1.897917,0.637845 -2.203794,1.313282 -0.502072,0.31549 -0.560604,1.216988 -0.779284,1.381942 -0.294738,2.160882 0.553738,3.093963 1.989234,4.192514 0.225306,0.151874 0.06342,0.175133 0.09358,0.290703 -0.47684,-0.222799 -0.91317,-0.559402 -1.27243,-0.971358 0.190701,0.278242 0.396336,0.54876 0.662219,0.761432 -0.44989,-0.151737 -1.05066,-1.087736 -1.22557,-1.125842 0.774993,1.385375 3.144085,2.429169 4.385275,1.910791 -0.574335,0.02231 -1.30367,0.01202 -1.948553,-0.225546 -0.27172,-0.139379 -0.639562,-0.427405 -0.573649,-0.481131 1.693449,0.631203 3.442238,0.477784 4.907086,-0.694524 0.373009,-0.290034 0.780177,-0.783077 0.897927,-0.789737 -0.177192,0.266106 0.03038,0.127964 -0.105786,0.362882 0.370795,-0.597989 -0.161676,-0.243535 0.383651,-1.032638 l 0.201361,0.276749 c -0.07539,-0.496819 0.617608,-1.099374 0.547095,-1.884528 0.158998,-0.239982 0.177193,0.258605 0.0086,0.810764 0.233957,-0.612613 0.06188,-0.711139 0.121751,-1.216884 0.06454,0.170035 0.150347,0.350471 0.194048,0.530033 -0.152578,-0.592239 0.155909,-0.996969 0.232635,-1.341278 -0.07583,-0.03321 -0.235295,0.261695 -0.272097,-0.437481 0.0057,-0.303766 0.08495,-0.159187 0.115314,-0.234008 -0.05944,-0.03431 -0.216226,-0.267223 -0.311371,-0.713783 0.06852,-0.105169 0.184505,0.272097 0.278534,0.287374 -0.06054,-0.354918 -0.164542,-0.625676 -0.168988,-0.898202 -0.27498,-0.573426 -0.09736,0.07661 -0.320004,-0.246196 -0.292729,-0.910835 0.242625,-0.211436 0.27898,-0.625006 0.443094,0.640952 0.695674,1.635106 0.812104,2.046564 -0.08871,-0.5019 -0.231743,-0.988317 -0.406721,-1.458788 0.135053,0.0569 -0.217101,-1.032432 0.175407,-0.311062 -0.420607,-1.537472 -1.792868,-2.974153 -3.055857,-3.648216 0.1545,0.141095 0.349785,0.318116 0.280044,0.346026 -0.628233,-0.373164 -0.518378,-0.402687 -0.609352,-0.560261 -0.511512,-0.207866 -0.544126,0.01699 -0.88399,5.15e-4 -0.963806,-0.511169 -1.149529,-0.456756 -2.03678,-0.776537 l 0.04037,0.188641 c -0.638875,-0.212672 -0.744439,0.08016 -1.434981,3.44e-4 -0.04188,-0.03244 0.221427,-0.118609 0.438219,-0.149849 -0.617763,0.08153 -0.588926,-0.121699 -1.193472,0.02231 0.148819,-0.104191 0.306736,-0.173537 0.465511,-0.262107 -0.503617,0.03055 -1.202913,0.29266 -0.987151,0.05407 -0.821681,0.366126 -2.281036,0.880042 -3.099971,1.646795 l -0.02575,-0.17182 c -0.375224,0.449547 -1.636497,1.342978 -1.736911,1.926068 l -0.100586,0.02317 c -0.194821,0.33008 -0.321498,0.704102 -0.476324,1.043451 -0.255242,0.434614 -0.374366,0.167357 -0.337976,0.235502 -0.502244,1.016674 -0.752164,1.870968 -0.967583,2.571809 0.153454,0.22915 0.0039,1.379882 0.06179,2.300604 -0.25198,4.548341 3.197296,8.964856 6.967726,9.982731 0.552536,0.199113 1.374217,0.192247 2.073342,0.211128 -0.8246,-0.235158 -0.931022,-0.125303 -1.73468,-0.40509 -0.579485,-0.272921 -0.706333,-0.583605 -1.116916,-0.938917 l 0.162551,0.286704 C 39.313414,52.94433 39.650188,52.877387 38.995006,52.669692 l 0.173708,-0.224859 c -0.259704,-0.0206 -0.689855,-0.43942 -0.807949,-0.672862 l -0.285641,0.01133 c -0.342782,-0.422255 -0.525759,-0.726073 -0.512199,-0.962947 l -0.09235,0.164782 C 37.366213,50.804905 36.208616,49.399104 36.809042,49.726953 36.697471,49.62568 36.549167,49.56217 36.388332,49.270368 l 0.122196,-0.139259 c -0.288541,-0.372477 -0.531766,-0.847943 -0.513057,-1.00586 0.154141,0.207695 0.260906,0.245458 0.366985,0.281504 -0.72985,-1.807458 -0.770874,-0.09956 -1.323238,-1.839728 l 0.116635,-0.0093 c -0.08943,-0.135259 -0.144357,-0.28116 -0.216106,-0.42483 l 0.05098,-0.50602 c -0.525073,-0.606434 -0.146588,-2.578675 -0.07055,-3.66006 0.05201,-0.439763 0.438391,-0.908364 0.731223,-1.642676 l -0.178686,-0.03038 c 0.341924,-0.595277 1.951986,-2.391063 2.69797,-2.298888 0.361149,-0.45298 -0.07192,-0.0017 -0.14264,-0.115519 0.793703,-0.819793 1.04328,-0.579142 1.578823,-0.72676 0.577254,-0.342095 -0.495721,0.133715 -0.222113,-0.130452 0.998651,-0.254383 0.707535,-0.578799 2.010003,-0.707879 0.137491,0.07793 -0.318751,0.120498 -0.43324,0.221599 0.831637,-0.406464 2.632229,-0.313602 3.802356,0.225374 1.35671,0.633554 2.880948,2.505038 2.942742,4.265808 l 0.06852,0.01837 c -0.03459,0.700068 0.107332,1.509665 -0.139035,2.253058 l 0.16655,-0.35224 m -5.782665,-8.97155 c 0.193276,0.03363 0.417552,0.05967 0.385334,0.104877 0.212157,-0.04569 0.259875,-0.08689 -0.385334,-0.104877 m 4.032194,8.707211 c 0.04408,-0.637073 -0.128118,-0.435369 -0.186015,-0.192709 0.06734,0.03457 0.120857,0.449341 0.186015,0.192709 m -0.717491,1.823937 c 0.216278,-0.290944 0.374194,-0.609181 0.429122,-0.938231 -0.04978,0.2343 -0.178515,0.436674 -0.302102,0.65072 -0.675951,0.416419 -0.06351,-0.247174 0,-0.499669 -0.727103,0.89549 -0.09956,0.536916 -0.12702,0.78718 m -1.941515,0.473235 c -0.361835,0.0046 0.06797,0.181775 0.540521,0.253009 0.130967,-0.0999 0.248718,-0.200313 0.354282,-0.298325 -0.29369,0.07038 -0.593045,0.07209 -0.894803,0.04532"
       style="opacity:0.5;fill:#ffffff;stroke-width:1.71648"
       id="path1027" />
    <path
       d="M 54,21 H 42 c -2.216,0 -4,-1.784 -4,-4 V 4 l 16,16 z"
       style="opacity:0.2;fill:#000000;stroke-width:1;stroke-linecap:round;stroke-linejoin:round"
       id="path611"
       sodipodi:nodetypes="cssccc" />
    <path
       id="rect600"
       style="fill:#fbb4cd;fill-opacity:1;stroke-width:1;stroke-linecap:round;stroke-linejoin:round"
       d="M 54,20 H 42 c -2.216,0 -4,-1.784 -4,-4 V 4 l 8,8 z"
       sodipodi:nodetypes="cssccc" />
    <g
       id="g741"
       transform="matrix(0.94464938,0,0,1,-14.154714,0)">
      <path
         style="fill:#000000;fill-opacity:0.235294;fill-rule:nonzero;stroke:none"
         d="m 36.155969,4 v 29.105469 c 0,1.464844 1.179688,2.644531 2.648438,2.644531 h 5.289062 c 1.46875,0 2.648438,-1.179687 2.648438,-2.644531 V 4 Z m 0,0"
         id="path13789" />
      <path
         style="fill:#000000;fill-opacity:0.313726;fill-rule:nonzero;stroke:none"
         d="m 37.480188,4 h 7.9375 v 30.429688 h -7.9375 z m 0,0"
         id="path13791" />
      <path
         style="fill:#dedede;fill-opacity:1;fill-rule:nonzero;stroke:none"
         d="m 37.812219,22.851563 c -0.367187,0 -0.664062,0.296875 -0.664062,0.664062 v 0.660156 c 0,0.367188 0.296875,0.660157 0.664062,0.660157 h 1.984375 c 0.363282,0 0.660156,-0.292969 0.660156,-0.660157 h 0.417969 c 0.117188,0.199219 0.328125,0.332032 0.574219,0.332032 0.367188,0 0.660156,-0.296875 0.660156,-0.664063 0,-0.363281 -0.292968,-0.660156 -0.660156,-0.660156 -0.246094,0 -0.457031,0.132813 -0.574219,0.332031 H 40.45675 c 0,-0.367187 -0.296874,-0.664062 -0.660156,-0.664062 z m 0,0"
         id="path13793" />
      <path
         style="fill:#dedede;fill-opacity:1;fill-rule:nonzero;stroke:none"
         d="m 37.812219,26.160157 c -0.367187,0 -0.664062,0.296874 -0.664062,0.660156 v 0.664062 c 0,0.363282 0.296875,0.660156 0.664062,0.660156 h 1.984375 c 0.363282,0 0.660156,-0.296874 0.660156,-0.660156 h 0.417969 c 0.117188,0.195313 0.328125,0.328125 0.574219,0.328125 0.367188,0 0.660156,-0.292969 0.660156,-0.660156 0,-0.367187 -0.292968,-0.660156 -0.660156,-0.660156 -0.246094,0 -0.457031,0.132812 -0.574219,0.328125 H 40.45675 c 0,-0.363282 -0.296874,-0.660156 -0.660156,-0.660156 z m 0,0"
         id="path13795" />
      <path
         style="fill:#dedede;fill-opacity:1;fill-rule:nonzero;stroke:none"
         d="m 37.812219,29.46875 c -0.367187,0 -0.664062,0.292969 -0.664062,0.660157 v 0.660156 c 0,0.367187 0.296875,0.664062 0.664062,0.664062 h 1.984375 c 0.363282,0 0.660156,-0.296875 0.660156,-0.664062 h 0.417969 c 0.117188,0.199218 0.328125,0.332031 0.574219,0.332031 0.367188,0 0.660156,-0.296875 0.660156,-0.660156 0,-0.367188 -0.292968,-0.664063 -0.660156,-0.664063 -0.246094,0 -0.457031,0.132813 -0.574219,0.332032 H 40.45675 c 0,-0.367188 -0.296874,-0.660157 -0.660156,-0.660157 z m 0,0"
         id="path13797" />
      <path
         style="fill:#dedede;fill-opacity:1;fill-rule:nonzero;stroke:none"
         d="m 37.812219,19.546875 c -0.367187,0 -0.664062,0.292969 -0.664062,0.660156 v 0.660157 c 0,0.367187 0.296875,0.664062 0.664062,0.664062 h 1.984375 c 0.363282,0 0.660156,-0.296875 0.660156,-0.664062 h 0.417969 c 0.117188,0.199219 0.328125,0.332031 0.574219,0.332031 0.367188,0 0.660156,-0.296875 0.660156,-0.660156 0,-0.367188 -0.292968,-0.664063 -0.660156,-0.664063 -0.246094,0 -0.457031,0.132813 -0.574219,0.332031 H 40.45675 c 0,-0.367187 -0.296874,-0.660156 -0.660156,-0.660156 z m 0,0"
         id="path13799" />
      <path
         style="fill:#dedede;fill-opacity:1;fill-rule:nonzero;stroke:none"
         d="m 37.812219,16.238281 c -0.367187,0 -0.664062,0.296876 -0.664062,0.660157 V 17.5625 c 0,0.363281 0.296875,0.660157 0.664062,0.660157 h 1.984375 c 0.363282,0 0.660156,-0.296876 0.660156,-0.660157 h 0.417969 c 0.117188,0.195313 0.328125,0.328125 0.574219,0.328125 0.367188,0 0.660156,-0.292968 0.660156,-0.660156 0,-0.367188 -0.292968,-0.660156 -0.660156,-0.660156 -0.246094,0 -0.457031,0.132812 -0.574219,0.328125 H 40.45675 c 0,-0.363281 -0.296874,-0.660157 -0.660156,-0.660157 z m 0,0"
         id="path13801" />
      <path
         style="fill:#dedede;fill-opacity:1;fill-rule:nonzero;stroke:none"
         d="m 37.812219,12.929688 c -0.367187,0 -0.664062,0.296875 -0.664062,0.664062 v 0.660157 c 0,0.367187 0.296875,0.660156 0.664062,0.660156 h 1.984375 c 0.363282,0 0.660156,-0.292969 0.660156,-0.660156 h 0.417969 c 0.117188,0.199218 0.328125,0.332031 0.574219,0.332031 0.367188,0 0.660156,-0.296875 0.660156,-0.664063 0,-0.363281 -0.292968,-0.660156 -0.660156,-0.660156 -0.246094,0 -0.457031,0.132812 -0.574219,0.332031 H 40.45675 c 0,-0.367187 -0.296874,-0.664062 -0.660156,-0.664062 z m 0,0"
         id="path13803" />
      <path
         style="fill:#dedede;fill-opacity:1;fill-rule:nonzero;stroke:none"
         d="m 37.812219,9.625 c -0.367187,0 -0.664062,0.292969 -0.664062,0.660157 v 0.660156 c 0,0.367187 0.296875,0.664062 0.664062,0.664062 h 1.984375 c 0.363282,0 0.660156,-0.296875 0.660156,-0.664062 h 0.417969 c 0.117188,0.199218 0.328125,0.332031 0.574219,0.332031 0.367188,0 0.660156,-0.296875 0.660156,-0.660156 0,-0.367188 -0.292968,-0.664063 -0.660156,-0.664063 -0.246094,0 -0.457031,0.132813 -0.574219,0.332032 H 40.45675 C 40.45675,9.917969 40.159876,9.625 39.796594,9.625 Z m 0,0"
         id="path13805" />
      <path
         style="fill:#dedede;fill-opacity:1;fill-rule:nonzero;stroke:none"
         d="m 37.812219,6.316407 c -0.367187,0 -0.664062,0.296874 -0.664062,0.660156 v 0.664062 c 0,0.363282 0.296875,0.660156 0.664062,0.660156 h 1.984375 c 0.363282,0 0.660156,-0.296874 0.660156,-0.660156 h 0.417969 c 0.117188,0.195313 0.328125,0.328125 0.574219,0.328125 0.367188,0 0.660156,-0.292969 0.660156,-0.660156 0,-0.367187 -0.292968,-0.660156 -0.660156,-0.660156 -0.246094,0 -0.457031,0.132812 -0.574219,0.328125 H 40.45675 c 0,-0.363282 -0.296874,-0.660156 -0.660156,-0.660156 z m 0,0"
         id="path13807" />
      <path
         style="fill:#dedede;fill-opacity:1;fill-rule:nonzero;stroke:none"
         d="m 45.085657,21.199219 c 0.367187,0 0.664062,0.296875 0.664062,0.660156 v 0.664063 c 0,0.363281 -0.296875,0.660156 -0.664062,0.660156 h -1.984375 c -0.363282,0 -0.660156,-0.296875 -0.660156,-0.660156 h -0.417969 c -0.117188,0.195312 -0.328125,0.328125 -0.574219,0.328125 -0.367188,0 -0.660156,-0.292969 -0.660156,-0.660156 0,-0.367188 0.292968,-0.660157 0.660156,-0.660157 0.246094,0 0.457031,0.132813 0.574219,0.328125 h 0.417969 c 0,-0.363281 0.296874,-0.660156 0.660156,-0.660156 z m 0,0"
         id="path13809" />
      <path
         style="fill:#dedede;fill-opacity:1;fill-rule:nonzero;stroke:none"
         d="m 45.085657,24.507813 c 0.367187,0 0.664062,0.292968 0.664062,0.660156 v 0.660156 c 0,0.367188 -0.296875,0.664063 -0.664062,0.664063 h -1.984375 c -0.363282,0 -0.660156,-0.296875 -0.660156,-0.664063 h -0.417969 c -0.117188,0.199219 -0.328125,0.332032 -0.574219,0.332032 -0.367188,0 -0.660156,-0.296876 -0.660156,-0.660157 0,-0.367187 0.292968,-0.664062 0.660156,-0.664062 0.246094,0 0.457031,0.132812 0.574219,0.332031 h 0.417969 c 0,-0.367188 0.296874,-0.660156 0.660156,-0.660156 z m 0,0"
         id="path13811" />
      <path
         style="fill:#dedede;fill-opacity:1;fill-rule:nonzero;stroke:none"
         d="m 45.085657,27.8125 c 0.367187,0 0.664062,0.296875 0.664062,0.664063 v 0.660156 c 0,0.367188 -0.296875,0.660156 -0.664062,0.660156 h -1.984375 c -0.363282,0 -0.660156,-0.292968 -0.660156,-0.660156 h -0.417969 c -0.117188,0.199219 -0.328125,0.332031 -0.574219,0.332031 -0.367188,0 -0.660156,-0.296875 -0.660156,-0.664062 0,-0.363281 0.292968,-0.660157 0.660156,-0.660157 0.246094,0 0.457031,0.132813 0.574219,0.332032 h 0.417969 c 0,-0.367188 0.296874,-0.664063 0.660156,-0.664063 z m 0,0"
         id="path13813" />
      <path
         style="fill:#dedede;fill-opacity:1;fill-rule:nonzero;stroke:none"
         d="m 45.085657,31.121094 c 0.367187,0 0.664062,0.296875 0.664062,0.660156 v 0.664063 c 0,0.363281 -0.296875,0.660156 -0.664062,0.660156 h -1.984375 c -0.363282,0 -0.660156,-0.296875 -0.660156,-0.660156 h -0.417969 c -0.117188,0.195312 -0.328125,0.328125 -0.574219,0.328125 -0.367188,0 -0.660156,-0.292969 -0.660156,-0.660157 0,-0.367187 0.292968,-0.660156 0.660156,-0.660156 0.246094,0 0.457031,0.132813 0.574219,0.328125 h 0.417969 c 0,-0.363281 0.296874,-0.660156 0.660156,-0.660156 z m 0,0"
         id="path13815" />
      <path
         style="fill:#dedede;fill-opacity:1;fill-rule:nonzero;stroke:none"
         d="m 45.085657,17.890625 c 0.367187,0 0.664062,0.296875 0.664062,0.664063 v 0.660156 c 0,0.367187 -0.296875,0.660156 -0.664062,0.660156 h -1.984375 c -0.363282,0 -0.660156,-0.292969 -0.660156,-0.660156 h -0.417969 c -0.117188,0.199219 -0.328125,0.332031 -0.574219,0.332031 -0.367188,0 -0.660156,-0.296875 -0.660156,-0.664062 0,-0.363282 0.292968,-0.660156 0.660156,-0.660156 0.246094,0 0.457031,0.132812 0.574219,0.332031 h 0.417969 c 0,-0.367188 0.296874,-0.664063 0.660156,-0.664063 z m 0,0"
         id="path13817" />
      <path
         style="fill:#dedede;fill-opacity:1;fill-rule:nonzero;stroke:none"
         d="m 45.085657,14.585938 c 0.367187,0 0.664062,0.292969 0.664062,0.660156 v 0.660156 c 0,0.367188 -0.296875,0.664063 -0.664062,0.664063 h -1.984375 c -0.363282,0 -0.660156,-0.296875 -0.660156,-0.664063 h -0.417969 c -0.117188,0.199219 -0.328125,0.332031 -0.574219,0.332031 -0.367188,0 -0.660156,-0.296874 -0.660156,-0.660156 0,-0.367187 0.292968,-0.664062 0.660156,-0.664062 0.246094,0 0.457031,0.132812 0.574219,0.332031 h 0.417969 c 0,-0.367187 0.296874,-0.660156 0.660156,-0.660156 z m 0,0"
         id="path13819" />
      <path
         style="fill:#dedede;fill-opacity:1;fill-rule:nonzero;stroke:none"
         d="m 45.085657,11.277344 c 0.367187,0 0.664062,0.296875 0.664062,0.660156 v 0.664063 c 0,0.363281 -0.296875,0.660156 -0.664062,0.660156 h -1.984375 c -0.363282,0 -0.660156,-0.296875 -0.660156,-0.660156 h -0.417969 c -0.117188,0.195312 -0.328125,0.328125 -0.574219,0.328125 -0.367188,0 -0.660156,-0.292969 -0.660156,-0.660157 0,-0.367187 0.292968,-0.660156 0.660156,-0.660156 0.246094,0 0.457031,0.132813 0.574219,0.328125 h 0.417969 c 0,-0.363281 0.296874,-0.660156 0.660156,-0.660156 z m 0,0"
         id="path13821" />
      <path
         style="fill:#dedede;fill-opacity:1;fill-rule:nonzero;stroke:none"
         d="m 45.085657,7.96875 c 0.367187,0 0.664062,0.296875 0.664062,0.664063 v 0.660156 c 0,0.367188 -0.296875,0.660156 -0.664062,0.660156 h -1.984375 c -0.363282,0 -0.660156,-0.292968 -0.660156,-0.660156 H 42.023157 C 41.905969,9.492188 41.695032,9.625 41.448938,9.625 c -0.367188,0 -0.660156,-0.296875 -0.660156,-0.664062 0,-0.363281 0.292968,-0.660157 0.660156,-0.660157 0.246094,0 0.457031,0.132813 0.574219,0.332032 h 0.417969 c 0,-0.367188 0.296874,-0.664063 0.660156,-0.664063 z m 0,0"
         id="path13823" />
      <path
         style="fill:#dedede;fill-opacity:1;fill-rule:nonzero;stroke:none"
         d="m 45.085657,4.664063 c 0.367187,0 0.664062,0.292968 0.664062,0.660156 v 0.660156 c 0,0.367188 -0.296875,0.664063 -0.664062,0.664063 h -1.984375 c -0.363282,0 -0.660156,-0.296875 -0.660156,-0.664063 h -0.417969 c -0.117188,0.199219 -0.328125,0.332032 -0.574219,0.332032 -0.367188,0 -0.660156,-0.296876 -0.660156,-0.660157 0,-0.367187 0.292968,-0.664062 0.660156,-0.664062 0.246094,0 0.457031,0.132812 0.574219,0.332031 h 0.417969 c 0,-0.367188 0.296874,-0.660156 0.660156,-0.660156 z m 0,0"
         id="path13825" />
      <path
         style="fill:#dedede;fill-opacity:1;fill-rule:nonzero;stroke:none"
         d="m 37.148157,4 v 0.332031 c 0,0.367188 0.296875,0.660157 0.664062,0.660157 h 1.984375 c 0.363282,0 0.660156,-0.292969 0.660156,-0.660157 h 0.417969 c 0.117188,0.199219 0.328125,0.332032 0.574219,0.332032 0.367188,0 0.660156,-0.296875 0.660156,-0.664063 z m 0,0"
         id="path13827" />
      <path
         style="fill:url(#linear0);fill-rule:nonzero;stroke:none"
         d="m 36.820032,38.398438 h 9.257812 v -3.96875 h -9.257812 z m 0,0"
         id="path13829" />
      <path
         style="fill:#bdbdbd;fill-opacity:1;fill-rule:nonzero;stroke:none"
         d="m 41.448938,31.121094 c 2.558594,0 4.628906,1.628906 4.628906,3.636719 0,2.011718 -2.070312,3.640625 -4.628906,3.640625 -2.558594,0 -4.628906,-1.628907 -4.628906,-3.640625 0,-2.007813 2.070312,-3.636719 4.628906,-3.636719 z m 0,0"
         id="path13831" />
      <path
         style="fill:#dedede;fill-opacity:1;fill-rule:nonzero;stroke:none"
         d="m 41.448938,34.429688 c -1.464844,0 -2.644531,1.179687 -2.644531,2.644531 L 37.480188,47.65625 v 2.648438 c 0,2.199219 1.769531,3.96875 3.96875,3.96875 2.199219,0 3.96875,-1.769531 3.96875,-3.96875 V 47.65625 L 44.093469,37.074219 c 0,-1.464844 -1.179687,-2.644531 -2.644531,-2.644531 z m 0,1.320312 c 0.734375,0 1.324219,0.589844 1.324219,1.324219 0,0.734375 -0.589844,1.324219 -1.324219,1.324219 -0.734375,0 -1.324219,-0.589844 -1.324219,-1.324219 0,-0.734375 0.589844,-1.324219 1.324219,-1.324219 z m 0,5.292969 c 1.097656,0 1.984375,0.886719 1.984375,1.984375 v 1.324219 c 0,1.097656 -0.886719,1.984375 -1.984375,1.984375 -1.097656,0 -1.984375,-0.886719 -1.984375,-1.984375 v -1.324219 c 0,-1.097656 0.886719,-1.984375 1.984375,-1.984375 z m 0,6.613281 c 1.464844,0 2.644531,1.179688 2.644531,2.648438 0,1.464843 -1.179687,2.644531 -2.644531,2.644531 -1.464844,0 -2.644531,-1.179688 -2.644531,-2.644531 0,-1.46875 1.179687,-2.648438 2.644531,-2.648438 z m 0,0"
         id="path13833" />
      <path
         style="fill:#dedede;fill-opacity:1;fill-rule:nonzero;stroke:none"
         d="m 40.788782,31.78125 h 1.320312 c 0.367188,0 0.664063,0.296875 0.664063,0.664063 v 4.628906 c 0,0.367188 -0.296875,0.660156 -0.664063,0.660156 h -1.320312 c -0.367188,0 -0.664063,-0.292968 -0.664063,-0.660156 v -4.628906 c 0,-0.367188 0.296875,-0.664063 0.664063,-0.664063 z m 0,0"
         id="path13835" />
    </g>
  </g>
</svg>
