<?xml version="1.0" encoding="UTF-8" standalone="no"?>
<!-- Created with Inkscape (http://www.inkscape.org/) -->

<svg
   width="64"
   height="64"
   viewBox="0 0 64 64.000003"
   version="1.1"
   id="svg5"
   inkscape:version="1.2.1 (9c6d41e410, 2022-07-14, custom)"
   sodipodi:docname="audio-x-generic.svg"
   xml:space="preserve"
   xmlns:inkscape="http://www.inkscape.org/namespaces/inkscape"
   xmlns:sodipodi="http://sodipodi.sourceforge.net/DTD/sodipodi-0.dtd"
   xmlns="http://www.w3.org/2000/svg"
   xmlns:svg="http://www.w3.org/2000/svg"><sodipodi:namedview
     id="namedview7"
     pagecolor="#ffffff"
     bordercolor="#000000"
     borderopacity="0.25"
     inkscape:showpageshadow="2"
     inkscape:pageopacity="0.0"
     inkscape:pagecheckerboard="0"
     inkscape:deskcolor="#d1d1d1"
     inkscape:document-units="px"
     showgrid="true"
     inkscape:zoom="7.4571314"
     inkscape:cx="61.149519"
     inkscape:cy="36.072852"
     inkscape:window-width="1920"
     inkscape:window-height="969"
     inkscape:window-x="0"
     inkscape:window-y="30"
     inkscape:window-maximized="1"
     inkscape:current-layer="svg5"><inkscape:grid
       type="xygrid"
       id="grid6565" /></sodipodi:namedview><defs
     id="defs2"><linearGradient
       id="a"
       x1="49.570999"
       x2="51.714001"
       y1="52.714001"
       y2="54.856998"
       gradientTransform="matrix(2.3333165,0,0,2.3333165,-167.52709,28.859837)"
       gradientUnits="userSpaceOnUse"><stop
         offset="0"
         id="stop1745" /><stop
         stop-opacity="0"
         offset="1"
         id="stop1747" /></linearGradient></defs><g
     id="g6946"><path
       id="rect234-6"
       style="opacity:0.2;stroke-linecap:round;stroke-linejoin:round"
       d="m 14,4.5 h 24 l 16,16 v 36 c 0,2.216 -1.784,4 -4,4 H 14 c -2.216,0 -4,-1.784 -4,-4 v -48 c 0,-2.216 1.784,-4 4,-4 z"
       sodipodi:nodetypes="sccssssss" /><path
       id="rect448-7"
       style="fill:#005a9e;fill-opacity:1;stroke-linecap:round;stroke-linejoin:round"
       d="m 14,3.5 h 24 l 6,10 10,6 v 36 c 0,2.216 -1.784,4 -4,4 H 14 c -2.216,0 -4,-1.784 -4,-4 v -48 c 0,-2.216 1.784,-4 4,-4 z"
       sodipodi:nodetypes="scccssssss" /><path
       d="M 54,20.5 H 42 c -2.216,0 -4,-1.784 -4,-4 v -13 l 16,16 z"
       style="opacity:0.2;fill:#000000;stroke-linecap:round;stroke-linejoin:round"
       id="path611-5"
       sodipodi:nodetypes="cssccc" /><path
       id="rect600-3"
       style="fill:#79a8cc;fill-opacity:1;stroke-linecap:round;stroke-linejoin:round"
       d="M 54,19.5 H 42 c -2.216,0 -4,-1.784 -4,-4 v -12 l 8,8 z"
       sodipodi:nodetypes="cssccc" /><path
       style="fill:#ffffff;fill-opacity:1;stroke-width:1.86383"
       d="m 32.799236,25.789115 c -0.803723,0 -1.051898,1.090186 -1.051898,1.737498 -0.0087,6.042764 0.02988,11.434095 0,17.473387 C 31.011254,44.9827 30.340399,44.9972 30,45 c -3.064762,-0.168339 -6.989355,1.749054 -6.989355,5.242016 0,3.363298 3.436946,3.451102 5.232249,3.451102 1.812811,0 5.251783,-1.75329 5.251783,-5.198441 V 33.577329 c 0.135768,-0.309003 0.774962,0.125476 1.014033,0.26266 2.43448,1.297865 4.588005,3.438088 4.733383,6.103352 0.159707,2.082631 -0.540032,4.120512 -1.327488,6.051212 2.638604,-2.926432 3.483267,-7.195516 1.64975,-10.652077 -0.937744,-2.006465 -3.053125,-3.242983 -4.23651,-5.106669 -0.798761,-1.259328 -1.328467,-2.674785 -1.747147,-4.106111 -0.198864,-0.344446 -0.579959,-0.34263 -0.781462,-0.34064 z"
       id="path2382"
       sodipodi:nodetypes="cccccccccccccccc" /></g></svg>
