<?xml version="1.0" encoding="UTF-8" standalone="no"?>
<svg
   width="64"
   height="64"
   viewBox="0 0 16.933333 16.933334"
   version="1.1"
   id="svg8"
   inkscape:version="1.2.2 (b0a8486541, 2022-12-01)"
   sodipodi:docname="image-x-generic.svg"
   xmlns:inkscape="http://www.inkscape.org/namespaces/inkscape"
   xmlns:sodipodi="http://sodipodi.sourceforge.net/DTD/sodipodi-0.dtd"
   xmlns:xlink="http://www.w3.org/1999/xlink"
   xmlns="http://www.w3.org/2000/svg"
   xmlns:svg="http://www.w3.org/2000/svg"
   xmlns:rdf="http://www.w3.org/1999/02/22-rdf-syntax-ns#"
   xmlns:cc="http://creativecommons.org/ns#"
   xmlns:dc="http://purl.org/dc/elements/1.1/">
  <defs
     id="defs2">
    <linearGradient
       id="linearGradient1353"
       x1="30.900999"
       x2="30.900999"
       y1="1.2898"
       y2="15.843"
       gradientTransform="matrix(1.0000197,0,0,1.0000197,-22.621546,-0.1323929)"
       gradientUnits="userSpaceOnUse">
      <stop
         stop-color="#5ab8f3"
         offset="0"
         id="stop21" />
      <stop
         stop-color="#2858e4"
         offset="1"
         id="stop23" />
    </linearGradient>
    <linearGradient
       gradientTransform="translate(78.430015)"
       gradientUnits="userSpaceOnUse"
       y2="46.915001"
       y1="17.219999"
       x2="32.136002"
       x1="32.136002"
       id="linearGradient992">
      <stop
         id="stop19"
         offset="0"
         stop-color="#e8f6fc" />
      <stop
         id="stop21-3"
         offset="1"
         stop-color="#ccdefa" />
    </linearGradient>
    <linearGradient
       id="linearGradient1353-6"
       x1="30.900999"
       x2="30.900999"
       y1="2.4221001"
       y2="14.645"
       gradientTransform="matrix(1.0000192,0,0,1.0000192,-22.468702,1.4560709)"
       gradientUnits="userSpaceOnUse">
      <stop
         stop-color="#319af6"
         offset="0"
         id="stop26" />
      <stop
         stop-color="#82cdfb"
         offset="1"
         id="stop28" />
    </linearGradient>
    <linearGradient
       id="linearGradient994"
       x1="542.64001"
       x2="543.25"
       y1="507.29001"
       y2="463.62"
       gradientTransform="matrix(0.18830131,9.3543436e-4,-0.00100894,0.17472025,-93.356397,-70.62172)"
       gradientUnits="userSpaceOnUse">
      <stop
         stop-color="#132e51"
         offset="0"
         id="stop31" />
      <stop
         stop-color="#2767b9"
         offset="1"
         id="stop33" />
    </linearGradient>
    <linearGradient
       id="linearGradient996"
       x1="516.85999"
       x2="518.53998"
       y1="446.70999"
       y2="431.85001"
       gradientTransform="matrix(0.15170943,0,0,0.15170943,-74.715614,-59.886107)"
       gradientUnits="userSpaceOnUse">
      <stop
         stop-color="#eefefe"
         offset="0"
         id="stop36" />
      <stop
         stop-color="#d6fefe"
         offset="1"
         id="stop38" />
    </linearGradient>
    <linearGradient
       inkscape:collect="always"
       xlink:href="#linearGradient1871"
       id="linearGradient2252"
       x1="12.5"
       y1="7"
       x2="12.5"
       y2="43"
       gradientUnits="userSpaceOnUse"
       gradientTransform="matrix(0.36811593,0,0,0.36811593,-0.3681155,-0.92029099)" />
    <linearGradient
       inkscape:collect="always"
       id="linearGradient1871">
      <stop
         style="stop-color:#ffffff;stop-opacity:1;"
         offset="0"
         id="stop1867" />
      <stop
         style="stop-color:#ffffff;stop-opacity:0.1"
         offset="0.12"
         id="stop2515" />
      <stop
         style="stop-color:#ffffff;stop-opacity:0.102"
         offset="0.89999998"
         id="stop2581" />
      <stop
         style="stop-color:#ffffff;stop-opacity:0.502"
         offset="1"
         id="stop1869" />
    </linearGradient>
  </defs>
  <sodipodi:namedview
     id="base"
     pagecolor="#ffffff"
     bordercolor="#666666"
     borderopacity="1.0"
     inkscape:pageopacity="0.0"
     inkscape:pageshadow="2"
     inkscape:zoom="7.9195959"
     inkscape:cx="28.031733"
     inkscape:cy="34.345187"
     inkscape:document-units="mm"
     inkscape:current-layer="layer1"
     inkscape:document-rotation="0"
     showgrid="false"
     units="px"
     inkscape:window-width="1920"
     inkscape:window-height="965"
     inkscape:window-x="3280"
     inkscape:window-y="38"
     inkscape:window-maximized="1"
     inkscape:showpageshadow="2"
     inkscape:pagecheckerboard="0"
     inkscape:deskcolor="#d1d1d1" />
  <metadata
     id="metadata5">
    <rdf:RDF>
      <cc:Work
         rdf:about="">
        <dc:format>image/svg+xml</dc:format>
        <dc:type
           rdf:resource="http://purl.org/dc/dcmitype/StillImage" />
        <dc:title />
      </cc:Work>
    </rdf:RDF>
  </metadata>
  <g
     inkscape:label="图层 1"
     inkscape:groupmode="layer"
     id="layer1">
    <path
       d="M 4.2333342,1.6565205 C 4.6886955e-4,1.6565205 0,2.3972793 0,6.6260856 v 4.0492754 c 0,4.228808 4.6886955e-4,4.969567 4.2333342,4.969567 h 8.4666648 c 4.232866,0 4.233333,-0.740759 4.233333,-4.969567 V 6.6260856 c 0,-4.2288065 -4.67e-4,-4.9695651 -4.233333,-4.9695651 z"
       style="display:inline;opacity:0.1;fill:#000000;fill-opacity:1;stroke:none;stroke-width:0.138043;stroke-linecap:round;stroke-linejoin:round;stroke-miterlimit:4;stroke-dasharray:none;stroke-dashoffset:0;stroke-opacity:1;enable-background:new"
       id="path3132"
       sodipodi:nodetypes="sssssssss" />
    <path
       id="rect877"
       style="display:inline;fill:#a3dbf0;fill-opacity:1;stroke:none;stroke-width:0.138043;stroke-linecap:round;stroke-linejoin:round;stroke-miterlimit:4;stroke-dasharray:none;stroke-dashoffset:0;stroke-opacity:1;enable-background:new"
       d="m 4.2333342,1.4724627 c -4.04927577,0 -4.04927577,0.5567006 -4.04927577,4.785507 v 4.0492743 c 0,4.228808 0,4.785509 4.04927577,4.785509 h 8.4666648 c 4.049275,0 4.049275,-0.556702 4.049275,-4.785509 V 6.2579695 c 0,-4.2288063 0,-4.785507 -4.049275,-4.785507 z"
       sodipodi:nodetypes="cssccsscc" />
    <path
       id="rect1743"
       style="fill:#ffda64;fill-opacity:1;stroke-width:0.368116;stroke-linejoin:round"
       d="M 12.005468,1.4724624 6.6260868,11.963767 H 11.595651 L 16.409917,2.5559599 C 15.974094,1.6486925 14.978202,1.4724624 12.699999,1.4724624 Z" />
    <path
       id="rect3139"
       style="fill:#b6e2f3;fill-opacity:1;stroke-width:0.368116;stroke-linejoin:round"
       d="M 8.7600095,1.4724624 3.3130434,11.963767 H 6.6260868 L 12.005468,1.4724624 Z" />
    <path
       id="rect3986"
       style="fill:#b6e2f3;fill-opacity:1;stroke-width:0.368116;stroke-linejoin:round"
       d="m 16.409917,2.5559599 -4.814266,9.4078071 h 3.313044 L 16.749274,8.4192129 V 6.2579695 c 0,-1.8495955 -5.51e-4,-2.9967011 -0.339357,-3.7020096 z" />
    <path
       id="rect4143"
       style="fill:#8fbf3a;fill-opacity:1;stroke-width:0.413509;stroke-linejoin:round"
       d="m 0.19771965,11.963767 c 0.0766887,2.724676 0.59045703,3.128986 4.03561455,3.128986 h 8.4666648 c 3.445157,0 3.958933,-0.40431 4.035615,-3.128986 z" />
    <path
       id="rect4602"
       style="opacity:0.1;fill:#000000;stroke-width:0.368116;stroke-linejoin:round"
       d="M 12.699999,3.865216 A 1.6565216,1.6565216 0 0 0 11.043477,5.5217377 1.6565216,1.6565216 0 0 0 12.699999,7.1782595 1.6565216,1.6565216 0 0 0 14.356521,5.5217378 1.6565216,1.6565216 0 0 0 12.699999,3.865216 Z M 6.6260868,6.0739116 3.3130434,12.331883 H 11.595651 L 9.11087,7.5463753 8.2667908,9.1727003 Z" />
    <path
       id="rect1000"
       style="fill:#f1f2f2;fill-opacity:1;stroke-width:0.368116;stroke-linejoin:round"
       d="M 6.6260868,5.7057958 9.9391302,11.963767 H 3.3130434 Z"
       sodipodi:nodetypes="cccc" />
    <path
       id="rect1472"
       style="fill:#f8f8f8;fill-opacity:1;stroke-width:0.278782;stroke-linejoin:round"
       d="m 9.11087,7.1782596 2.484781,4.7855074 H 6.6260868 Z"
       sodipodi:nodetypes="cccc" />
    <circle
       style="fill:#f9f9f9;fill-opacity:1;stroke-width:0.368116;stroke-linejoin:round"
       id="path4390"
       cx="12.700001"
       cy="5.1536217"
       r="1.6565217" />
    <path
       id="rect2673"
       style="opacity:0.1;fill:#ffffff;stroke-width:0.499331;stroke-linejoin:round"
       d="M 12.073811,1.4724624 5.0019602,15.092753 h 7.6980788 c 1.796617,0 2.795848,-0.109775 3.351869,-0.601064 0.56232,-0.848983 0.697407,-2.213598 0.697407,-4.387196 V 6.2579695 c 0,-4.2288063 0,-4.7855071 -4.049276,-4.7855071 z" />
    <path
       id="path1984"
       style="display:inline;opacity:0.7;fill:url(#linearGradient2252);fill-opacity:1;stroke:none;stroke-width:0.0365239;stroke-linecap:round;stroke-linejoin:round;stroke-miterlimit:4;stroke-dasharray:none;stroke-dashoffset:0;stroke-opacity:1;enable-background:new"
       d="m 4.2333342,1.6565205 c -3.86521734,0 -3.86521734,0.7362319 -3.86521734,4.601449 v 4.0492745 c 0,3.865219 0,4.60145 3.86521734,4.60145 h 8.4666648 c 3.865217,0 3.865217,-0.736231 3.865217,-4.60145 V 6.2579695 c 0,-3.8652166 0,-4.601449 -3.865217,-4.601449 z M 4.42602,2.0246363 h 8.081294 c 3.689525,0 3.689787,0.6973696 3.689787,4.3591543 v 3.7976334 c 0,3.661786 -2.62e-4,4.359155 -3.689787,4.359155 H 4.42602 c -3.6895261,0 -3.68978767,-0.697369 -3.68978767,-4.359155 V 6.3837906 c 0,-3.6617851 2.6157e-4,-4.3591543 3.68978767,-4.3591543 z"
       sodipodi:nodetypes="ssssssssssssssssss" />
    <path
       id="path3421"
       style="display:inline;opacity:0.4;fill:#000000;fill-opacity:1;stroke:none;stroke-width:0.0365239;stroke-linecap:round;stroke-linejoin:round;stroke-miterlimit:4;stroke-dasharray:none;stroke-dashoffset:0;stroke-opacity:1;enable-background:new"
       d="M 4.2333342,1.2884046 C 4.6886955e-4,1.2884046 0,2.0291633 0,6.2579695 v 4.0492745 c 0,4.228808 4.6886955e-4,4.969567 4.2333342,4.969567 h 8.4666648 c 4.232866,0 4.233334,-0.74076 4.233334,-4.969565 V 6.2579695 c 0,-4.2288063 -4.68e-4,-4.9695649 -4.233334,-4.9695649 z m 0,0.3681159 h 8.4666648 c 3.865217,0 3.865217,0.7362323 3.865217,4.601449 v 4.0492745 c 0,3.865219 0,4.601451 -3.865217,4.601451 H 4.2333342 c -3.86521734,0 -3.86521734,-0.736232 -3.86521734,-4.601451 V 6.2579695 c 0,-3.8652173 0,-4.601449 3.86521734,-4.601449 z"
       sodipodi:nodetypes="ssssssssssssssssss" />
  </g>
</svg>
