<?xml version="1.0" encoding="UTF-8" standalone="no"?>
<!-- Created with Inkscape (http://www.inkscape.org/) -->

<svg
   width="64"
   height="64"
   viewBox="0 0 64 64.000004"
   version="1.1"
   id="svg5"
   inkscape:version="1.2.1 (9c6d41e410, 2022-07-14, custom)"
   sodipodi:docname="package-x-generic.svg"
   xmlns:inkscape="http://www.inkscape.org/namespaces/inkscape"
   xmlns:sodipodi="http://sodipodi.sourceforge.net/DTD/sodipodi-0.dtd"
   xmlns="http://www.w3.org/2000/svg"
   xmlns:svg="http://www.w3.org/2000/svg">
  <sodipodi:namedview
     id="namedview7"
     pagecolor="#ffffff"
     bordercolor="#000000"
     borderopacity="0.25"
     inkscape:showpageshadow="2"
     inkscape:pageopacity="0.0"
     inkscape:pagecheckerboard="0"
     inkscape:deskcolor="#d1d1d1"
     inkscape:document-units="px"
     showgrid="true"
     inkscape:zoom="7.8022427"
     inkscape:cx="2.4992814"
     inkscape:cy="20.827345"
     inkscape:window-width="1920"
     inkscape:window-height="1002"
     inkscape:window-x="1920"
     inkscape:window-y="24"
     inkscape:window-maximized="1"
     inkscape:current-layer="svg5">
    <inkscape:grid
       type="xygrid"
       id="grid1630" />
  </sodipodi:namedview>
  <defs
     id="defs2">
    <linearGradient
       id="linear0"
       gradientUnits="userSpaceOnUse"
       x1="381"
       y1="-41.666668"
       x2="381"
       y2="-62.833332"
       gradientTransform="matrix(0.0530303,0,0,-0.125,20.823462,30.54294)">
      <stop
         offset="0"
         style="stop-color:rgb(12.941177%,12.941177%,12.941177%);stop-opacity:0.392157;"
         id="stop13780" />
      <stop
         offset="1"
         style="stop-color:rgb(49.411765%,34.117648%,76.078433%);stop-opacity:0;"
         id="stop13782" />
    </linearGradient>
  </defs>
  <g
     id="g1661">
    <path
       id="rect234"
       style="opacity:0.2;stroke-width:1;stroke-linecap:round;stroke-linejoin:round"
       d="m 14,5 h 24 l 16,16 v 36 c 0,2.216 -1.784,4 -4,4 H 14 c -2.216,0 -4,-1.784 -4,-4 V 9 c 0,-2.216 1.784,-4 4,-4 z"
       sodipodi:nodetypes="sccssssss" />
    <path
       id="rect448"
       style="fill:#d7ac67;fill-opacity:1;stroke-width:1;stroke-linecap:round;stroke-linejoin:round"
       d="m 14,4 h 24 l 6,10 10,6 v 36 c 0,2.216 -1.784,4 -4,4 H 14 c -2.216,0 -4,-1.784 -4,-4 V 8 c 0,-2.216 1.784,-4 4,-4 z"
       sodipodi:nodetypes="scccssssss" />
    <path
       d="M 54,21 H 42 c -2.216,0 -4,-1.784 -4,-4 V 4 l 16,16 z"
       style="opacity:0.2;fill:#000000;stroke-width:1;stroke-linecap:round;stroke-linejoin:round"
       id="path611"
       sodipodi:nodetypes="cssccc" />
    <path
       id="rect600"
       style="fill:#eedcbf;fill-opacity:1;stroke-width:1;stroke-linecap:round;stroke-linejoin:round"
       d="M 54,20 H 42 c -2.216,0 -4,-1.784 -4,-4 V 4 l 8,8 z"
       sodipodi:nodetypes="cssccc" />
    <g
       id="g741"
       transform="matrix(0.93811078,0,0,1,-13.918304,0)">
      <path
         style="fill:#000000;fill-opacity:0.235294;fill-rule:nonzero;stroke:none"
         d="m 36.155969,4 v 29.105469 c 0,1.464844 1.179688,2.644531 2.648438,2.644531 h 5.289062 c 1.46875,0 2.648438,-1.179687 2.648438,-2.644531 V 4 Z m 0,0"
         id="path13789" />
      <path
         style="fill:#000000;fill-opacity:0.313726;fill-rule:nonzero;stroke:none"
         d="m 37.480188,4 h 7.9375 v 30.429688 h -7.9375 z m 0,0"
         id="path13791" />
      <path
         style="fill:#dedede;fill-opacity:1;fill-rule:nonzero;stroke:none"
         d="m 37.812219,22.851563 c -0.367187,0 -0.664062,0.296875 -0.664062,0.664062 v 0.660156 c 0,0.367188 0.296875,0.660157 0.664062,0.660157 h 1.984375 c 0.363282,0 0.660156,-0.292969 0.660156,-0.660157 h 0.417969 c 0.117188,0.199219 0.328125,0.332032 0.574219,0.332032 0.367188,0 0.660156,-0.296875 0.660156,-0.664063 0,-0.363281 -0.292968,-0.660156 -0.660156,-0.660156 -0.246094,0 -0.457031,0.132813 -0.574219,0.332031 H 40.45675 c 0,-0.367187 -0.296874,-0.664062 -0.660156,-0.664062 z m 0,0"
         id="path13793" />
      <path
         style="fill:#dedede;fill-opacity:1;fill-rule:nonzero;stroke:none"
         d="m 37.812219,26.160157 c -0.367187,0 -0.664062,0.296874 -0.664062,0.660156 v 0.664062 c 0,0.363282 0.296875,0.660156 0.664062,0.660156 h 1.984375 c 0.363282,0 0.660156,-0.296874 0.660156,-0.660156 h 0.417969 c 0.117188,0.195313 0.328125,0.328125 0.574219,0.328125 0.367188,0 0.660156,-0.292969 0.660156,-0.660156 0,-0.367187 -0.292968,-0.660156 -0.660156,-0.660156 -0.246094,0 -0.457031,0.132812 -0.574219,0.328125 H 40.45675 c 0,-0.363282 -0.296874,-0.660156 -0.660156,-0.660156 z m 0,0"
         id="path13795" />
      <path
         style="fill:#dedede;fill-opacity:1;fill-rule:nonzero;stroke:none"
         d="m 37.812219,29.46875 c -0.367187,0 -0.664062,0.292969 -0.664062,0.660157 v 0.660156 c 0,0.367187 0.296875,0.664062 0.664062,0.664062 h 1.984375 c 0.363282,0 0.660156,-0.296875 0.660156,-0.664062 h 0.417969 c 0.117188,0.199218 0.328125,0.332031 0.574219,0.332031 0.367188,0 0.660156,-0.296875 0.660156,-0.660156 0,-0.367188 -0.292968,-0.664063 -0.660156,-0.664063 -0.246094,0 -0.457031,0.132813 -0.574219,0.332032 H 40.45675 c 0,-0.367188 -0.296874,-0.660157 -0.660156,-0.660157 z m 0,0"
         id="path13797" />
      <path
         style="fill:#dedede;fill-opacity:1;fill-rule:nonzero;stroke:none"
         d="m 37.812219,19.546875 c -0.367187,0 -0.664062,0.292969 -0.664062,0.660156 v 0.660157 c 0,0.367187 0.296875,0.664062 0.664062,0.664062 h 1.984375 c 0.363282,0 0.660156,-0.296875 0.660156,-0.664062 h 0.417969 c 0.117188,0.199219 0.328125,0.332031 0.574219,0.332031 0.367188,0 0.660156,-0.296875 0.660156,-0.660156 0,-0.367188 -0.292968,-0.664063 -0.660156,-0.664063 -0.246094,0 -0.457031,0.132813 -0.574219,0.332031 H 40.45675 c 0,-0.367187 -0.296874,-0.660156 -0.660156,-0.660156 z m 0,0"
         id="path13799" />
      <path
         style="fill:#dedede;fill-opacity:1;fill-rule:nonzero;stroke:none"
         d="m 37.812219,16.238281 c -0.367187,0 -0.664062,0.296876 -0.664062,0.660157 V 17.5625 c 0,0.363281 0.296875,0.660157 0.664062,0.660157 h 1.984375 c 0.363282,0 0.660156,-0.296876 0.660156,-0.660157 h 0.417969 c 0.117188,0.195313 0.328125,0.328125 0.574219,0.328125 0.367188,0 0.660156,-0.292968 0.660156,-0.660156 0,-0.367188 -0.292968,-0.660156 -0.660156,-0.660156 -0.246094,0 -0.457031,0.132812 -0.574219,0.328125 H 40.45675 c 0,-0.363281 -0.296874,-0.660157 -0.660156,-0.660157 z m 0,0"
         id="path13801" />
      <path
         style="fill:#dedede;fill-opacity:1;fill-rule:nonzero;stroke:none"
         d="m 37.812219,12.929688 c -0.367187,0 -0.664062,0.296875 -0.664062,0.664062 v 0.660157 c 0,0.367187 0.296875,0.660156 0.664062,0.660156 h 1.984375 c 0.363282,0 0.660156,-0.292969 0.660156,-0.660156 h 0.417969 c 0.117188,0.199218 0.328125,0.332031 0.574219,0.332031 0.367188,0 0.660156,-0.296875 0.660156,-0.664063 0,-0.363281 -0.292968,-0.660156 -0.660156,-0.660156 -0.246094,0 -0.457031,0.132812 -0.574219,0.332031 H 40.45675 c 0,-0.367187 -0.296874,-0.664062 -0.660156,-0.664062 z m 0,0"
         id="path13803" />
      <path
         style="fill:#dedede;fill-opacity:1;fill-rule:nonzero;stroke:none"
         d="m 37.812219,9.625 c -0.367187,0 -0.664062,0.292969 -0.664062,0.660157 v 0.660156 c 0,0.367187 0.296875,0.664062 0.664062,0.664062 h 1.984375 c 0.363282,0 0.660156,-0.296875 0.660156,-0.664062 h 0.417969 c 0.117188,0.199218 0.328125,0.332031 0.574219,0.332031 0.367188,0 0.660156,-0.296875 0.660156,-0.660156 0,-0.367188 -0.292968,-0.664063 -0.660156,-0.664063 -0.246094,0 -0.457031,0.132813 -0.574219,0.332032 H 40.45675 C 40.45675,9.917969 40.159876,9.625 39.796594,9.625 Z m 0,0"
         id="path13805" />
      <path
         style="fill:#dedede;fill-opacity:1;fill-rule:nonzero;stroke:none"
         d="m 37.812219,6.316407 c -0.367187,0 -0.664062,0.296874 -0.664062,0.660156 v 0.664062 c 0,0.363282 0.296875,0.660156 0.664062,0.660156 h 1.984375 c 0.363282,0 0.660156,-0.296874 0.660156,-0.660156 h 0.417969 c 0.117188,0.195313 0.328125,0.328125 0.574219,0.328125 0.367188,0 0.660156,-0.292969 0.660156,-0.660156 0,-0.367187 -0.292968,-0.660156 -0.660156,-0.660156 -0.246094,0 -0.457031,0.132812 -0.574219,0.328125 H 40.45675 c 0,-0.363282 -0.296874,-0.660156 -0.660156,-0.660156 z m 0,0"
         id="path13807" />
      <path
         style="fill:#dedede;fill-opacity:1;fill-rule:nonzero;stroke:none"
         d="m 45.085657,21.199219 c 0.367187,0 0.664062,0.296875 0.664062,0.660156 v 0.664063 c 0,0.363281 -0.296875,0.660156 -0.664062,0.660156 h -1.984375 c -0.363282,0 -0.660156,-0.296875 -0.660156,-0.660156 h -0.417969 c -0.117188,0.195312 -0.328125,0.328125 -0.574219,0.328125 -0.367188,0 -0.660156,-0.292969 -0.660156,-0.660156 0,-0.367188 0.292968,-0.660157 0.660156,-0.660157 0.246094,0 0.457031,0.132813 0.574219,0.328125 h 0.417969 c 0,-0.363281 0.296874,-0.660156 0.660156,-0.660156 z m 0,0"
         id="path13809" />
      <path
         style="fill:#dedede;fill-opacity:1;fill-rule:nonzero;stroke:none"
         d="m 45.085657,24.507813 c 0.367187,0 0.664062,0.292968 0.664062,0.660156 v 0.660156 c 0,0.367188 -0.296875,0.664063 -0.664062,0.664063 h -1.984375 c -0.363282,0 -0.660156,-0.296875 -0.660156,-0.664063 h -0.417969 c -0.117188,0.199219 -0.328125,0.332032 -0.574219,0.332032 -0.367188,0 -0.660156,-0.296876 -0.660156,-0.660157 0,-0.367187 0.292968,-0.664062 0.660156,-0.664062 0.246094,0 0.457031,0.132812 0.574219,0.332031 h 0.417969 c 0,-0.367188 0.296874,-0.660156 0.660156,-0.660156 z m 0,0"
         id="path13811" />
      <path
         style="fill:#dedede;fill-opacity:1;fill-rule:nonzero;stroke:none"
         d="m 45.085657,27.8125 c 0.367187,0 0.664062,0.296875 0.664062,0.664063 v 0.660156 c 0,0.367188 -0.296875,0.660156 -0.664062,0.660156 h -1.984375 c -0.363282,0 -0.660156,-0.292968 -0.660156,-0.660156 h -0.417969 c -0.117188,0.199219 -0.328125,0.332031 -0.574219,0.332031 -0.367188,0 -0.660156,-0.296875 -0.660156,-0.664062 0,-0.363281 0.292968,-0.660157 0.660156,-0.660157 0.246094,0 0.457031,0.132813 0.574219,0.332032 h 0.417969 c 0,-0.367188 0.296874,-0.664063 0.660156,-0.664063 z m 0,0"
         id="path13813" />
      <path
         style="fill:#dedede;fill-opacity:1;fill-rule:nonzero;stroke:none"
         d="m 45.085657,31.121094 c 0.367187,0 0.664062,0.296875 0.664062,0.660156 v 0.664063 c 0,0.363281 -0.296875,0.660156 -0.664062,0.660156 h -1.984375 c -0.363282,0 -0.660156,-0.296875 -0.660156,-0.660156 h -0.417969 c -0.117188,0.195312 -0.328125,0.328125 -0.574219,0.328125 -0.367188,0 -0.660156,-0.292969 -0.660156,-0.660157 0,-0.367187 0.292968,-0.660156 0.660156,-0.660156 0.246094,0 0.457031,0.132813 0.574219,0.328125 h 0.417969 c 0,-0.363281 0.296874,-0.660156 0.660156,-0.660156 z m 0,0"
         id="path13815" />
      <path
         style="fill:#dedede;fill-opacity:1;fill-rule:nonzero;stroke:none"
         d="m 45.085657,17.890625 c 0.367187,0 0.664062,0.296875 0.664062,0.664063 v 0.660156 c 0,0.367187 -0.296875,0.660156 -0.664062,0.660156 h -1.984375 c -0.363282,0 -0.660156,-0.292969 -0.660156,-0.660156 h -0.417969 c -0.117188,0.199219 -0.328125,0.332031 -0.574219,0.332031 -0.367188,0 -0.660156,-0.296875 -0.660156,-0.664062 0,-0.363282 0.292968,-0.660156 0.660156,-0.660156 0.246094,0 0.457031,0.132812 0.574219,0.332031 h 0.417969 c 0,-0.367188 0.296874,-0.664063 0.660156,-0.664063 z m 0,0"
         id="path13817" />
      <path
         style="fill:#dedede;fill-opacity:1;fill-rule:nonzero;stroke:none"
         d="m 45.085657,14.585938 c 0.367187,0 0.664062,0.292969 0.664062,0.660156 v 0.660156 c 0,0.367188 -0.296875,0.664063 -0.664062,0.664063 h -1.984375 c -0.363282,0 -0.660156,-0.296875 -0.660156,-0.664063 h -0.417969 c -0.117188,0.199219 -0.328125,0.332031 -0.574219,0.332031 -0.367188,0 -0.660156,-0.296874 -0.660156,-0.660156 0,-0.367187 0.292968,-0.664062 0.660156,-0.664062 0.246094,0 0.457031,0.132812 0.574219,0.332031 h 0.417969 c 0,-0.367187 0.296874,-0.660156 0.660156,-0.660156 z m 0,0"
         id="path13819" />
      <path
         style="fill:#dedede;fill-opacity:1;fill-rule:nonzero;stroke:none"
         d="m 45.085657,11.277344 c 0.367187,0 0.664062,0.296875 0.664062,0.660156 v 0.664063 c 0,0.363281 -0.296875,0.660156 -0.664062,0.660156 h -1.984375 c -0.363282,0 -0.660156,-0.296875 -0.660156,-0.660156 h -0.417969 c -0.117188,0.195312 -0.328125,0.328125 -0.574219,0.328125 -0.367188,0 -0.660156,-0.292969 -0.660156,-0.660157 0,-0.367187 0.292968,-0.660156 0.660156,-0.660156 0.246094,0 0.457031,0.132813 0.574219,0.328125 h 0.417969 c 0,-0.363281 0.296874,-0.660156 0.660156,-0.660156 z m 0,0"
         id="path13821" />
      <path
         style="fill:#dedede;fill-opacity:1;fill-rule:nonzero;stroke:none"
         d="m 45.085657,7.96875 c 0.367187,0 0.664062,0.296875 0.664062,0.664063 v 0.660156 c 0,0.367188 -0.296875,0.660156 -0.664062,0.660156 h -1.984375 c -0.363282,0 -0.660156,-0.292968 -0.660156,-0.660156 H 42.023157 C 41.905969,9.492188 41.695032,9.625 41.448938,9.625 c -0.367188,0 -0.660156,-0.296875 -0.660156,-0.664062 0,-0.363281 0.292968,-0.660157 0.660156,-0.660157 0.246094,0 0.457031,0.132813 0.574219,0.332032 h 0.417969 c 0,-0.367188 0.296874,-0.664063 0.660156,-0.664063 z m 0,0"
         id="path13823" />
      <path
         style="fill:#dedede;fill-opacity:1;fill-rule:nonzero;stroke:none"
         d="m 45.085657,4.664063 c 0.367187,0 0.664062,0.292968 0.664062,0.660156 v 0.660156 c 0,0.367188 -0.296875,0.664063 -0.664062,0.664063 h -1.984375 c -0.363282,0 -0.660156,-0.296875 -0.660156,-0.664063 h -0.417969 c -0.117188,0.199219 -0.328125,0.332032 -0.574219,0.332032 -0.367188,0 -0.660156,-0.296876 -0.660156,-0.660157 0,-0.367187 0.292968,-0.664062 0.660156,-0.664062 0.246094,0 0.457031,0.132812 0.574219,0.332031 h 0.417969 c 0,-0.367188 0.296874,-0.660156 0.660156,-0.660156 z m 0,0"
         id="path13825" />
      <path
         style="fill:#dedede;fill-opacity:1;fill-rule:nonzero;stroke:none"
         d="m 37.148157,4 v 0.332031 c 0,0.367188 0.296875,0.660157 0.664062,0.660157 h 1.984375 c 0.363282,0 0.660156,-0.292969 0.660156,-0.660157 h 0.417969 c 0.117188,0.199219 0.328125,0.332032 0.574219,0.332032 0.367188,0 0.660156,-0.296875 0.660156,-0.664063 z m 0,0"
         id="path13827" />
      <path
         style="fill:url(#linear0);fill-rule:nonzero;stroke:none"
         d="m 36.820032,38.398438 h 9.257812 v -3.96875 h -9.257812 z m 0,0"
         id="path13829" />
      <path
         style="fill:#bdbdbd;fill-opacity:1;fill-rule:nonzero;stroke:none"
         d="m 41.448938,31.121094 c 2.558594,0 4.628906,1.628906 4.628906,3.636719 0,2.011718 -2.070312,3.640625 -4.628906,3.640625 -2.558594,0 -4.628906,-1.628907 -4.628906,-3.640625 0,-2.007813 2.070312,-3.636719 4.628906,-3.636719 z m 0,0"
         id="path13831" />
      <path
         style="fill:#dedede;fill-opacity:1;fill-rule:nonzero;stroke:none"
         d="m 41.448938,34.429688 c -1.464844,0 -2.644531,1.179687 -2.644531,2.644531 L 37.480188,47.65625 v 2.648438 c 0,2.199219 1.769531,3.96875 3.96875,3.96875 2.199219,0 3.96875,-1.769531 3.96875,-3.96875 V 47.65625 L 44.093469,37.074219 c 0,-1.464844 -1.179687,-2.644531 -2.644531,-2.644531 z m 0,1.320312 c 0.734375,0 1.324219,0.589844 1.324219,1.324219 0,0.734375 -0.589844,1.324219 -1.324219,1.324219 -0.734375,0 -1.324219,-0.589844 -1.324219,-1.324219 0,-0.734375 0.589844,-1.324219 1.324219,-1.324219 z m 0,5.292969 c 1.097656,0 1.984375,0.886719 1.984375,1.984375 v 1.324219 c 0,1.097656 -0.886719,1.984375 -1.984375,1.984375 -1.097656,0 -1.984375,-0.886719 -1.984375,-1.984375 v -1.324219 c 0,-1.097656 0.886719,-1.984375 1.984375,-1.984375 z m 0,6.613281 c 1.464844,0 2.644531,1.179688 2.644531,2.648438 0,1.464843 -1.179687,2.644531 -2.644531,2.644531 -1.464844,0 -2.644531,-1.179688 -2.644531,-2.644531 0,-1.46875 1.179687,-2.648438 2.644531,-2.648438 z m 0,0"
         id="path13833" />
      <path
         style="fill:#dedede;fill-opacity:1;fill-rule:nonzero;stroke:none"
         d="m 40.788782,31.78125 h 1.320312 c 0.367188,0 0.664063,0.296875 0.664063,0.664063 v 4.628906 c 0,0.367188 -0.296875,0.660156 -0.664063,0.660156 h -1.320312 c -0.367188,0 -0.664063,-0.292968 -0.664063,-0.660156 v -4.628906 c 0,-0.367188 0.296875,-0.664063 0.664063,-0.664063 z m 0,0"
         id="path13835" />
    </g>
  </g>
</svg>
