<?xml version="1.0" encoding="UTF-8" standalone="no"?>
<!-- Created with Inkscape (http://www.inkscape.org/) -->

<svg
   width="64"
   height="64"
   viewBox="0 0 64 64.000003"
   version="1.1"
   id="svg5"
   inkscape:version="1.2.2 (b0a8486541, 2022-12-01)"
   sodipodi:docname="text-x-script.svg"
   xmlns:inkscape="http://www.inkscape.org/namespaces/inkscape"
   xmlns:sodipodi="http://sodipodi.sourceforge.net/DTD/sodipodi-0.dtd"
   xmlns="http://www.w3.org/2000/svg"
   xmlns:svg="http://www.w3.org/2000/svg">
  <sodipodi:namedview
     id="namedview7"
     pagecolor="#ffffff"
     bordercolor="#000000"
     borderopacity="0.25"
     inkscape:showpageshadow="2"
     inkscape:pageopacity="0.0"
     inkscape:pagecheckerboard="0"
     inkscape:deskcolor="#d1d1d1"
     inkscape:document-units="px"
     showgrid="true"
     inkscape:zoom="5.5048545"
     inkscape:cx="-15.531746"
     inkscape:cy="11.716931"
     inkscape:window-width="1920"
     inkscape:window-height="988"
     inkscape:window-x="1920"
     inkscape:window-y="22"
     inkscape:window-maximized="1"
     inkscape:current-layer="svg5">
    <inkscape:grid
       type="xygrid"
       id="grid2787" />
  </sodipodi:namedview>
  <defs
     id="defs2" />
  <path
     id="rect234"
     style="opacity:0.2;stroke-linecap:round;stroke-linejoin:round"
     d="m 14,5 h 24 l 16,16 v 36 c 0,2.216 -1.784,4 -4,4 H 14 c -2.216,0 -4,-1.784 -4,-4 V 9 c 0,-2.216 1.784,-4 4,-4 z"
     sodipodi:nodetypes="sccssssss" />
  <path
     id="rect448"
     style="fill:#474747;fill-opacity:1;stroke-linecap:round;stroke-linejoin:round"
     d="m 14,4 h 24 l 6,10 10,6 v 36 c 0,2.216 -1.784,4 -4,4 H 14 c -2.216,0 -4,-1.784 -4,-4 V 8 c 0,-2.216 1.784,-4 4,-4 z"
     sodipodi:nodetypes="scccssssss" />
  <path
     d="M 54,21 H 42 c -2.216,0 -4,-1.784 -4,-4 V 4 l 16,16 z"
     style="opacity:0.2;fill:#000000;stroke-linecap:round;stroke-linejoin:round"
     id="path611"
     sodipodi:nodetypes="cssccc" />
  <path
     id="rect600"
     style="fill:#b3b3b3;fill-opacity:1;stroke-linecap:round;stroke-linejoin:round"
     d="M 54,20 H 42 c -2.216,0 -4,-1.784 -4,-4 V 4 l 8,8 z"
     sodipodi:nodetypes="cssccc" />
  <g
     id="g687"
     transform="matrix(1.7395335,0,0,1.7395335,17.125596,26.302078)"
     style="fill:#ffffff;fill-opacity:1">
    <path
       id="rect352"
       style="fill:#ffffff;fill-opacity:1;stroke:#000000;stroke-width:0;stroke-miterlimit:10;paint-order:stroke fill markers"
       d="m 4.8464024,1.1426144 c 0.5474045,0.085231 0.9194794,0.5945365 0.8342486,1.141941 L 3.9883424,13.153598 c -0.085231,0.547405 -0.5945365,0.91948 -1.141941,0.834249 C 2.2989969,13.902616 1.926922,13.39331 2.0121528,12.845906 L 3.7044614,1.976863 C 3.7896922,1.4294584 4.2989979,1.0573836 4.8464024,1.1426144 Z" />
    <path
       id="path409"
       style="fill:#ffffff;fill-opacity:1;stroke:#000000;stroke-width:0;stroke-miterlimit:10;paint-order:stroke fill markers"
       d="m 12.000001,5.0001463 c -9.6e-5,0.5539999 -0.377558,0.9999345 -0.846328,0.9998532 L 1.8459809,5.9983851 C 1.3772117,5.9983037 0.99990443,5.5522383 1.0000005,4.9982383 c 9.61e-5,-0.554 0.3775581,-0.9999345 0.8463273,-0.9998532 l 9.3076932,0.00161 c 0.468768,8.14e-5 0.846076,0.4461468 0.84598,1.0001468 z" />
    <path
       id="path411"
       style="fill:#ffffff;fill-opacity:1;stroke:#000000;stroke-width:0;stroke-miterlimit:10;paint-order:stroke fill markers"
       d="m 11,10 c -10e-5,0.554 -0.377566,0.999932 -0.846335,0.999847 l -9.30769263,-0.0017 C 0.37720403,10.998079 -1.0070701e-4,10.55201 -4.8003653e-7,9.99801 9.974011e-5,9.4440099 0.37756579,8.9980782 0.84633426,8.9981629 l 9.30769274,0.00168 C 10.622796,8.9999316 11.0001,9.446 11,10 Z" />
    <path
       id="path413"
       style="fill:#ffffff;fill-opacity:1;stroke:#000000;stroke-width:0;stroke-miterlimit:10;paint-order:stroke fill markers"
       d="m 9.1535985,1.1426148 c 0.5474045,0.085231 0.9194795,0.5945365 0.8342487,1.141941 L 8.2955395,13.153599 C 8.2103087,13.701003 7.701003,14.073078 7.1535985,13.987847 6.606194,13.902617 6.2341191,13.393311 6.3193498,12.845906 L 8.0116575,1.9768635 C 8.0968883,1.4294589 8.606194,1.0573841 9.1535985,1.1426148 Z" />
    <path
       id="path415"
       style="fill:#ffffff;fill-opacity:1;stroke:#000000;stroke-width:0;stroke-miterlimit:10;paint-order:stroke fill markers"
       d="m 15,0.99999982 c 0.554,0 1,0.30876918 1,0.69230768 v 7.6153843 c 0,0.3835385 -0.446,0.6923077 -1,0.6923077 -0.554001,0 -1,-0.3087692 -1,-0.6923077 V 1.6923075 C 14,1.308769 14.445999,0.99999982 15,0.99999982 Z" />
    <path
       id="path469"
       style="fill:#ffffff;fill-opacity:1;stroke:#000000;stroke-width:0;stroke-miterlimit:10;paint-order:stroke fill markers"
       d="M 16,13 A 1,1 0 0 1 15.000357,14 1,1 0 0 1 14,13.000714 a 1,1 0 0 1 0.998929,-1.000713 1,1 0 0 1 1.00107,0.998571 L 15,13 Z" />
  </g>
</svg>
