<?xml version="1.0" encoding="UTF-8" standalone="no"?>
<!-- Created with Inkscape (http://www.inkscape.org/) -->

<svg
   width="64"
   height="64"
   viewBox="0 0 64 64.000003"
   version="1.1"
   id="svg5"
   inkscape:version="1.2.2 (b0a8486541, 2022-12-01)"
   sodipodi:docname="x-office-document.svg"
   xmlns:inkscape="http://www.inkscape.org/namespaces/inkscape"
   xmlns:sodipodi="http://sodipodi.sourceforge.net/DTD/sodipodi-0.dtd"
   xmlns="http://www.w3.org/2000/svg"
   xmlns:svg="http://www.w3.org/2000/svg">
  <sodipodi:namedview
     id="namedview7"
     pagecolor="#ffffff"
     bordercolor="#000000"
     borderopacity="0.25"
     inkscape:showpageshadow="2"
     inkscape:pageopacity="0.0"
     inkscape:pagecheckerboard="0"
     inkscape:deskcolor="#d1d1d1"
     inkscape:document-units="px"
     showgrid="true"
     inkscape:zoom="10.222316"
     inkscape:cx="31.255149"
     inkscape:cy="37.613786"
     inkscape:window-width="1920"
     inkscape:window-height="988"
     inkscape:window-x="0"
     inkscape:window-y="22"
     inkscape:window-maximized="1"
     inkscape:current-layer="svg5">
    <inkscape:grid
       type="xygrid"
       id="grid3547" />
  </sodipodi:namedview>
  <defs
     id="defs2" />
  <path
     id="rect234"
     style="opacity:0.2;stroke-linecap:round;stroke-linejoin:round"
     d="m 14,5 h 24 l 16,16 v 36 c 0,2.216 -1.784,4 -4,4 H 14 c -2.216,0 -4,-1.784 -4,-4 V 9 c 0,-2.216 1.784,-4 4,-4 z"
     sodipodi:nodetypes="sccssssss" />
  <path
     id="rect448"
     style="fill:#5488c3;fill-opacity:1;stroke-linecap:round;stroke-linejoin:round"
     d="m 14,4 h 24 l 6,10 10,6 v 36 c 0,2.216 -1.784,4 -4,4 H 14 c -2.216,0 -4,-1.784 -4,-4 V 8 c 0,-2.216 1.784,-4 4,-4 z"
     sodipodi:nodetypes="scccssssss" />
  <path
     d="M 54,21 H 42 c -2.216,0 -4,-1.784 -4,-4 V 4 l 16,16 z"
     style="opacity:0.2;fill:#000000;stroke-linecap:round;stroke-linejoin:round"
     id="path611"
     sodipodi:nodetypes="cssccc" />
  <path
     id="rect600"
     style="fill:#a3c4e6;fill-opacity:1;stroke-linecap:round;stroke-linejoin:round"
     d="M 54,20 H 42 c -2.216,0 -4,-1.784 -4,-4 V 4 l 8,8 z"
     sodipodi:nodetypes="cssccc" />
  <g
     id="g450"
     transform="translate(0,1)"
     style="fill:#ffffff;fill-opacity:1">
    <path
       style="fill:#ffffff;fill-opacity:1;stroke-width:2;stroke-linecap:round;stroke-linejoin:round"
       d="m 18,47 a 1.4999695,1.4999695 44.998835 0 0 1.5,1.499939 h 17 a 1.5,1.5 135 0 0 1.5,-1.5 A 1.4999695,1.4999695 44.998835 0 0 36.5,45.5 h -17 A 1.5,1.5 135 0 0 18,47 Z"
       id="path1563"
       sodipodi:nodetypes="ccccc" />
    <path
       style="fill:#ffffff;fill-opacity:1;stroke-width:2;stroke-linecap:round;stroke-linejoin:round"
       d="m 18,41 a 1.4999695,1.4999695 44.998835 0 0 1.5,1.499939 h 25 a 1.5,1.5 135 0 0 1.5,-1.5 A 1.4999695,1.4999695 44.998835 0 0 44.5,39.5 h -25 A 1.5,1.5 135 0 0 18,41 Z"
       id="path1561"
       sodipodi:nodetypes="ccccc" />
    <path
       style="fill:#ffffff;fill-opacity:1;stroke-width:2;stroke-linecap:round;stroke-linejoin:round"
       d="m 18,35 a 1.4999695,1.4999695 44.998835 0 0 1.5,1.499939 h 25 a 1.5,1.5 135 0 0 1.5,-1.5 A 1.4999695,1.4999695 44.998835 0 0 44.5,33.5 h -25 A 1.5,1.5 135 0 0 18,35 Z"
       id="path1559"
       sodipodi:nodetypes="ccccc" />
    <path
       style="fill:#ffffff;fill-opacity:1;stroke-width:2;stroke-linecap:round;stroke-linejoin:round"
       d="m 18,29 a 1.4999695,1.4999695 44.998835 0 0 1.5,1.499939 h 25 a 1.5,1.5 135 0 0 1.5,-1.5 A 1.4999695,1.4999695 44.998835 0 0 44.5,27.5 h -25 A 1.5,1.5 135 0 0 18,29 Z"
       id="rect759-3"
       sodipodi:nodetypes="ccccc" />
  </g>
</svg>
