#define close2_width 16
#define close2_height 16
static unsigned char close2_bits[] = {
   0xe0, 0x07, 0xf8, 0x1f, 0xfc, 0x3f, 0xe6, 0x67, 0xc6, 0x63, 0x8f, 0xf1,
   0x1f, 0xf8, 0x3f, 0xfc, 0x3f, 0xfc, 0x1f, 0xf8, 0x8f, 0xf1, 0xc6, 0x63,
   0xe6, 0x67, 0xfc, 0x3f, 0xf8, 0x1f, 0xe0, 0x07 };
