#define closecircle12435_width 16
#define closecircle12435_height 16
static unsigned char closecircle12435_bits[] = {
   0xe0, 0x07, 0xf8, 0x1f, 0x3c, 0x3c, 0x0e, 0x70, 0x06, 0x60, 0x07, 0xe0,
   0x03, 0xc0, 0x03, 0xc0, 0x03, 0xc0, 0x03, 0xc0, 0x07, 0xe0, 0x06, 0x60,
   0x0e, 0x70, 0x3c, 0x3c, 0xf8, 0x1f, 0xe0, 0x07 };
