#define max_hover_width 16
#define max_hover_height 16
static unsigned char max_hover_bits[] = {
   0xe0, 0x07, 0xf8, 0x1f, 0xfc, 0x3f, 0x06, 0x60, 0x06, 0x60, 0xe7, 0xe7,
   0xe7, 0xe7, 0xe7, 0xe7, 0xe7, 0xe7, 0xe7, 0xe7, 0xe7, 0xe7, 0x06, 0x60,
   0x06, 0x60, 0xfc, 0x3f, 0xf8, 0x1f, 0xe0, 0x07 };
