#define max_toggled_hover_width 16
#define max_toggled_hover_height 16
static unsigned char max_toggled_hover_bits[] = {
   0xe0, 0x07, 0xf8, 0x1f, 0xfc, 0x3f, 0x3e, 0x60, 0x3e, 0x60, 0x3f, 0xe7,
   0x3f, 0xe7, 0x27, 0xe7, 0x27, 0xe0, 0x27, 0xe0, 0xe7, 0xff, 0x06, 0x7e,
   0x06, 0x7e, 0xfc, 0x3f, 0xf8, 0x1f, 0xe0, 0x07 };
