<?xml version="1.0" encoding="UTF-8" standalone="no"?>
<svg
   version="1.1"
   width="22"
   height="22"
   x="0"
   y="0"
   viewBox="0 0 22 22"
   xml:space="preserve"
   class=""
   id="svg2435"
   sodipodi:docname="menu.svg"
   inkscape:version="1.2.2 (b0a8486541, 2022-12-01)"
   xmlns:inkscape="http://www.inkscape.org/namespaces/inkscape"
   xmlns:sodipodi="http://sodipodi.sourceforge.net/DTD/sodipodi-0.dtd"
   xmlns="http://www.w3.org/2000/svg"
   xmlns:svg="http://www.w3.org/2000/svg"><defs
     id="defs2439" /><sodipodi:namedview
     id="namedview2437"
     pagecolor="#ffffff"
     bordercolor="#000000"
     borderopacity="0.25"
     inkscape:showpageshadow="2"
     inkscape:pageopacity="0.0"
     inkscape:pagecheckerboard="0"
     inkscape:deskcolor="#d1d1d1"
     showgrid="true"
     inkscape:zoom="21.436822"
     inkscape:cx="5.94771"
     inkscape:cy="15.534019"
     inkscape:window-width="1920"
     inkscape:window-height="990"
     inkscape:window-x="1920"
     inkscape:window-y="22"
     inkscape:window-maximized="1"
     inkscape:current-layer="svg2435"><inkscape:grid
       type="xygrid"
       id="grid2558" /></sodipodi:namedview><g
     id="g2433"
     transform="scale(0.91666667)"><path
       d="M 5,0 H 1 C 0.448,0 0,0.448 0,1 V 5 C 0,5.552 0.448,6 1,6 H 5 C 5.552,6 6,5.552 6,5 V 1 C 6,0.448 5.552,0 5,0 Z"
       fill="#000000"
       data-original="#000000"
       class=""
       id="path2415" /><path
       d="M 5,9 H 1 C 0.448,9 0,9.448 0,10 v 4 c 0,0.552 0.448,1 1,1 h 4 c 0.552,0 1,-0.448 1,-1 V 10 C 6,9.448 5.552,9 5,9 Z"
       fill="#000000"
       data-original="#000000"
       class=""
       id="path2417" /><path
       d="M 5,18 H 1 c -0.552,0 -1,0.448 -1,1 v 4 c 0,0.552 0.448,1 1,1 h 4 c 0.552,0 1,-0.448 1,-1 V 19 C 6,18.448 5.552,18 5,18 Z"
       fill="#000000"
       data-original="#000000"
       class=""
       id="path2419" /><path
       d="M 14,0 H 10 C 9.448,0 9,0.448 9,1 v 4 c 0,0.552 0.448,1 1,1 h 4 c 0.552,0 1,-0.448 1,-1 V 1 C 15,0.448 14.552,0 14,0 Z"
       fill="#000000"
       data-original="#000000"
       class=""
       id="path2421" /><path
       d="M 14,9 H 10 C 9.448,9 9,9.448 9,10 v 4 c 0,0.552 0.448,1 1,1 h 4 c 0.552,0 1,-0.448 1,-1 V 10 C 15,9.448 14.552,9 14,9 Z"
       fill="#000000"
       data-original="#000000"
       class=""
       id="path2423" /><path
       d="m 14,18 h -4 c -0.552,0 -1,0.448 -1,1 v 4 c 0,0.552 0.448,1 1,1 h 4 c 0.552,0 1,-0.448 1,-1 v -4 c 0,-0.552 -0.448,-1 -1,-1 z"
       fill="#000000"
       data-original="#000000"
       class=""
       id="path2425" /><path
       d="m 23,0 h -4 c -0.552,0 -1,0.448 -1,1 v 4 c 0,0.552 0.448,1 1,1 h 4 c 0.552,0 1,-0.448 1,-1 V 1 C 24,0.448 23.552,0 23,0 Z"
       fill="#000000"
       data-original="#000000"
       class=""
       id="path2427" /><path
       d="m 23,9 h -4 c -0.552,0 -1,0.448 -1,1 v 4 c 0,0.552 0.448,1 1,1 h 4 c 0.552,0 1,-0.448 1,-1 V 10 C 24,9.448 23.552,9 23,9 Z"
       fill="#000000"
       data-original="#000000"
       class=""
       id="path2429" /><path
       d="m 23,18 h -4 c -0.552,0 -1,0.448 -1,1 v 4 c 0,0.552 0.448,1 1,1 h 4 c 0.552,0 1,-0.448 1,-1 v -4 c 0,-0.552 -0.448,-1 -1,-1 z"
       fill="#000000"
       data-original="#000000"
       class=""
       id="path2431" /></g></svg>
