<?xml version="1.0" encoding="UTF-8" standalone="no"?>
<svg
   version="1.1"
   width="22"
   height="22"
   x="0"
   y="0"
   viewBox="0 0 22 22"
   xml:space="preserve"
   class=""
   id="svg46"
   sodipodi:docname="next.svg"
   inkscape:version="1.2.2 (b0a8486541, 2022-12-01)"
   xmlns:inkscape="http://www.inkscape.org/namespaces/inkscape"
   xmlns:sodipodi="http://sodipodi.sourceforge.net/DTD/sodipodi-0.dtd"
   xmlns="http://www.w3.org/2000/svg"
   xmlns:svg="http://www.w3.org/2000/svg"><defs
     id="defs50" /><sodipodi:namedview
     id="namedview48"
     pagecolor="#ffffff"
     bordercolor="#000000"
     borderopacity="0.25"
     inkscape:showpageshadow="2"
     inkscape:pageopacity="0.0"
     inkscape:pagecheckerboard="0"
     inkscape:deskcolor="#d1d1d1"
     showgrid="true"
     inkscape:zoom="20.365054"
     inkscape:cx="16.74437"
     inkscape:cy="10.901027"
     inkscape:window-width="1920"
     inkscape:window-height="990"
     inkscape:window-x="1920"
     inkscape:window-y="22"
     inkscape:window-maximized="1"
     inkscape:current-layer="svg46"><inkscape:grid
       type="xygrid"
       id="grid279"
       originx="0"
       originy="0" /></sodipodi:namedview><g
     id="g1608"
     transform="matrix(-1,0,0,1,21.032174,0)"><g
       id="g44"
       transform="matrix(0.03823418,0,0,0.03823418,1.5653337,1.5653337)">
<g
   id="g6">
	<g
   id="g4">
		<path
   d="m 448.14898,13.459135 c -10.056,0 -20.884,4.12 -32.148,11.884 L 133.03411,201.024 c -17.644,12.152 -27.252,28.504 -27.252,46.06 -0.004,17.56 9.78,33.924 27.428,46.076 l 283.20287,175.16487 c 11.284,7.768 22.568,11.736 32.604,11.736 h 0.012 c 10.76,0 18.916,-4.404 25.276,-12.972 6.268,-8.46 8.688,-20.476 8.688,-35.012 V 61.731135 c 0.004,-29.768 -12.784,-48.272 -34.844,-48.272 z"
   fill="#000000"
   data-original="#000000"
   class=""
   id="path2"
   sodipodi:nodetypes="scccccsscscs" />
	</g>
</g>
<g
   id="g12">
	<g
   id="g10">
		
	</g>
</g>
<g
   id="g14">
</g>
<g
   id="g16">
</g>
<g
   id="g18">
</g>
<g
   id="g20">
</g>
<g
   id="g22">
</g>
<g
   id="g24">
</g>
<g
   id="g26">
</g>
<g
   id="g28">
</g>
<g
   id="g30">
</g>
<g
   id="g32">
</g>
<g
   id="g34">
</g>
<g
   id="g36">
</g>
<g
   id="g38">
</g>
<g
   id="g40">
</g>
<g
   id="g42">
</g>
</g><path
       id="rect434"
       style="stroke-width:5.143;stroke-miterlimit:10;stroke-opacity:0.148351;paint-order:stroke fill markers"
       d="m 2,2 h 1 c 0.554,0 1,0.446 1,1 v 16 c 0,0.554 -0.446,1 -1,1 H 2 C 1.446,20 1,19.554 1,19 V 3 C 1,2.446 1.446,2 2,2 Z" /></g></svg>
