<?xml version="1.0" encoding="UTF-8" standalone="no"?>
<svg
   version="1.1"
   width="22"
   height="22"
   x="0"
   y="0"
   viewBox="0 0 22 22"
   xml:space="preserve"
   class=""
   id="svg2256"
   sodipodi:docname="pause.svg"
   inkscape:version="1.2.2 (b0a8486541, 2022-12-01)"
   xmlns:inkscape="http://www.inkscape.org/namespaces/inkscape"
   xmlns:sodipodi="http://sodipodi.sourceforge.net/DTD/sodipodi-0.dtd"
   xmlns="http://www.w3.org/2000/svg"
   xmlns:svg="http://www.w3.org/2000/svg"><defs
     id="defs2260" /><sodipodi:namedview
     id="namedview2258"
     pagecolor="#ffffff"
     bordercolor="#000000"
     borderopacity="0.25"
     inkscape:showpageshadow="2"
     inkscape:pageopacity="0.0"
     inkscape:pagecheckerboard="0"
     inkscape:deskcolor="#d1d1d1"
     showgrid="true"
     inkscape:zoom="27.41352"
     inkscape:cx="3.009464"
     inkscape:cy="11.381246"
     inkscape:window-width="1920"
     inkscape:window-height="990"
     inkscape:window-x="1920"
     inkscape:window-y="22"
     inkscape:window-maximized="1"
     inkscape:current-layer="svg2256"><inkscape:grid
       type="xygrid"
       id="grid2379" /></sodipodi:namedview><g
     id="g2254"
     transform="matrix(0.63636364,0,0,0.64285714,0.81818182,0.7142857)"><g
       id="Layer_33"
       data-name="Layer 33"><path
         d="M 14.357143,5.0000001 V 27 c 0,1.656854 -1.343146,3 -3,3 H 8 C 6.3431458,30 5,28.656854 5,27 V 5 C 5,3.3431458 6.3431458,2 8,2 h 3.357143 c 1.656854,0 3,1.3431458 3,3.0000001 z M 24,2 h -3.357143 c -1.656854,0 -3,1.3431458 -3,3 v 22 c 0,1.656854 1.343146,3 3,3 H 24 c 1.656854,0 3,-1.343146 3,-3 V 5 C 27,3.3431458 25.656854,2 24,2 Z"
         fill="#000000"
         data-original="#000000"
         class=""
         id="path2251"
         sodipodi:nodetypes="ssssssssssssssssss" /></g></g></svg>
