<?xml version="1.0" encoding="UTF-8" standalone="no"?>
<svg
   width="256"
   height="256"
   viewBox="0 0 256 256"
   fill="none"
   version="1.1"
   id="svg33"
   sodipodi:docname="folder-music2.svg"
   inkscape:version="1.2.1 (9c6d41e410, 2022-07-14, custom)"
   xml:space="preserve"
   xmlns:inkscape="http://www.inkscape.org/namespaces/inkscape"
   xmlns:sodipodi="http://sodipodi.sourceforge.net/DTD/sodipodi-0.dtd"
   xmlns:xlink="http://www.w3.org/1999/xlink"
   xmlns="http://www.w3.org/2000/svg"
   xmlns:svg="http://www.w3.org/2000/svg"
   xmlns:rdf="http://www.w3.org/1999/02/22-rdf-syntax-ns#"
   xmlns:cc="http://creativecommons.org/ns#"
   xmlns:dc="http://purl.org/dc/elements/1.1/"><metadata
     id="metadata37"><rdf:RDF><cc:Work
         rdf:about=""><dc:format>image/svg+xml</dc:format><dc:type
           rdf:resource="http://purl.org/dc/dcmitype/StillImage" /></cc:Work></rdf:RDF></metadata><sodipodi:namedview
     pagecolor="#ffffff"
     bordercolor="#666666"
     borderopacity="1"
     objecttolerance="10"
     gridtolerance="10"
     guidetolerance="10"
     inkscape:pageopacity="0"
     inkscape:pageshadow="2"
     inkscape:window-width="1920"
     inkscape:window-height="965"
     id="namedview35"
     showgrid="true"
     inkscape:zoom="2.6654387"
     inkscape:cx="179.33258"
     inkscape:cy="129.80978"
     inkscape:window-x="3280"
     inkscape:window-y="38"
     inkscape:window-maximized="1"
     inkscape:current-layer="svg33"
     inkscape:showpageshadow="2"
     inkscape:pagecheckerboard="0"
     inkscape:deskcolor="#d1d1d1"><inkscape:grid
       type="xygrid"
       id="grid252" /></sodipodi:namedview><defs
     id="defs31"><radialGradient
       id="paint2_radial"
       cx="0"
       cy="0"
       r="1"
       gradientUnits="userSpaceOnUse"
       gradientTransform="matrix(112.006,0,0,29.4624,-313.4949,21.0003)"><stop
         stop-color="white"
         id="stop11" /><stop
         offset="1"
         stop-color="white"
         stop-opacity="0.203922"
         id="stop13" /></radialGradient><radialGradient
       id="paint3_radial"
       cx="0"
       cy="0"
       r="1"
       gradientUnits="userSpaceOnUse"
       gradientTransform="matrix(112.006,0,0,28.4623,-277.7455,42.0002)"><stop
         stop-color="white"
         id="stop16" /><stop
         offset="1"
         stop-color="white"
         stop-opacity="0.203922"
         id="stop18" /></radialGradient><linearGradient
       id="paint0_linear"
       x1="241"
       y1="50"
       x2="17"
       y2="129"
       gradientUnits="userSpaceOnUse"><stop
         stop-color="#EC7223"
         id="stop21"
         offset="0"
         style="stop-color:#0e79d6;stop-opacity:1;" /><stop
         offset="0.874098"
         stop-color="#EC7223"
         id="stop23"
         style="stop-color:#0e79d6;stop-opacity:1;" /></linearGradient><linearGradient
       id="paint1_linear"
       x1="17"
       y1="52.999901"
       x2="241"
       y2="229"
       gradientUnits="userSpaceOnUse"
       spreadMethod="pad"><stop
         stop-color="#F3994A"
         id="stop26"
         offset="0"
         style="stop-color:#59b0f8;stop-opacity:1;" /><stop
         offset="1"
         stop-color="#F6B069"
         id="stop28"
         style="stop-color:#1c9afd;stop-opacity:1;" /></linearGradient><linearGradient
       inkscape:collect="always"
       xlink:href="#paint1_linear"
       id="linearGradient7276"
       gradientUnits="userSpaceOnUse"
       x1="17"
       y1="52.999901"
       x2="241"
       y2="229"
       gradientTransform="translate(-0.73141,-0.12785)" /><linearGradient
       inkscape:collect="always"
       xlink:href="#paint0_linear"
       id="linearGradient7305"
       gradientUnits="userSpaceOnUse"
       x1="241"
       y1="50"
       x2="17"
       y2="129"
       gradientTransform="translate(-0.73141,2.5791)" /><linearGradient
       id="paint0_linear-3"
       x1="241"
       y1="50"
       x2="17"
       y2="129"
       gradientUnits="userSpaceOnUse"
       gradientTransform="translate(-278.023,2.5703)"><stop
         stop-color="#EC7223"
         id="stop7326" /><stop
         offset="0.874098"
         stop-color="#EC7223"
         id="stop7328" /></linearGradient><linearGradient
       id="paint1_linear-6"
       x1="17"
       y1="53"
       x2="241"
       y2="229"
       gradientUnits="userSpaceOnUse"
       gradientTransform="translate(-278.023,2.5703)"
       xlink:href="#paint0_linear"><stop
         stop-color="#F3994A"
         id="stop7331" /><stop
         offset="1"
         stop-color="#F6B069"
         id="stop7333" /></linearGradient><radialGradient
       id="paint2_radial-7"
       cx="0"
       cy="0"
       r="1"
       gradientUnits="userSpaceOnUse"
       gradientTransform="matrix(112.006,0,0,29.4624,-265.7064,-77.3489)"><stop
         stop-color="white"
         id="stop7316" /><stop
         offset="1"
         stop-color="white"
         stop-opacity="0.203922"
         id="stop7318" /></radialGradient><radialGradient
       id="paint3_radial-5"
       cx="0"
       cy="0"
       r="1"
       gradientUnits="userSpaceOnUse"
       gradientTransform="matrix(112.006,0,0,28.4623,-264.0045,11.9955)"><stop
         stop-color="white"
         id="stop7321" /><stop
         offset="1"
         stop-color="white"
         stop-opacity="0.203922"
         id="stop7323" /></radialGradient></defs><path
     inkscape:connector-curvature="0"
     style="fill:url(#linearGradient7305)"
     d="m 54.98549,23.3513 c -35.3703,0 -38.9961,1.9993 -38.9961,37.2987 v 50.7061 h 224.0112 V 80.276 c 0,-35.2995 -3.626,-40.9239 -38.996,-40.9239 h -87.01 L 97.99349,23.3513 Z"
     id="secondario" /><path
     inkscape:connector-curvature="0"
     style="fill:url(#linearGradient7276);fill-opacity:1"
     d="m 54.98489,68.64665 c -35.3703,0 -38.9955,3.6252 -38.9955,38.9245 v 82.159 c 0,35.299 3.6252,38.924 38.9955,38.924 h 146.0197 c 35.371,0 38.996,-3.625 38.996,-38.924 v -98.1597 c 0,-35.2994 -3.625,-38.9246 -38.996,-38.9246 h -81.26 l -16.009,16.0008 z"
     id="primario" /><path
     id="path8333"
     style="fill:#ffffff;fill-opacity:0.3"
     d="m 54.98717,23.35 c -35.37026,0 -38.99609,1.999463 -38.99609,37.298828 v 4 C 15.99108,29.349463 19.61691,27.35 54.98717,27.35 h 43.00782 l 16.00195,16 h 87.00976 c 35.36997,0 38.9961,5.624363 38.9961,40.923828 v -4 C 240.0028,44.974363 236.37667,39.35 201.0067,39.35 h -87.00976 l -16.00195,-16 z" /><path
     id="path8338"
     style="fill:#000000;fill-opacity:0.3"
     d="m 15.99499,185.72617 v 4 c 0,35.29897 3.62582,38.92383 38.99609,38.92383 h 146.01953 c 35.37096,0 38.99609,-3.62486 38.99609,-38.92383 v -4 c 0,35.29897 -3.62513,38.92383 -38.99609,38.92383 H 54.99108 c -35.37027,0 -38.99609,-3.62486 -38.99609,-38.92383 z" /><path
     id="path8342"
     style="fill:#ffffff;fill-opacity:0.302772"
     d="m 119.75475,52.65 -16.00977,16 H 54.99499 c -35.37026,0 -38.99609,3.626616 -38.99609,38.92578 v 4 C 15.9989,76.276616 19.62473,72.65 54.99499,72.65 h 48.74999 l 16.00977,-16 h 81.25977 c 35.37096,0 38.99609,3.624363 38.99609,38.923828 v -4 C 240.01061,56.274363 236.38548,52.65 201.01452,52.65 Z" /><path
     id="path8348"
     style="fill:#000000;fill-opacity:0.3"
     d="m 15.99499,189.72617 v 4 c 0,35.29897 3.62582,38.92383 38.99609,38.92383 h 146.01953 c 35.37096,0 38.99609,-3.62486 38.99609,-38.92383 v -4 c 0,35.29897 -3.62513,38.92383 -38.99609,38.92383 H 54.99108 c -35.37027,0 -38.99609,-3.62486 -38.99609,-38.92383 z" /><path
     id="path8350"
     style="fill:#000000;fill-opacity:0.301111"
     d="m 119.75475,48.65 -16.00977,16 H 54.99499 c -35.37026,0 -38.99609,3.626616 -38.99609,38.92578 v 4 C 15.9989,72.276616 19.62473,68.65 54.99499,68.65 h 48.74999 l 16.00977,-16 h 81.25977 c 35.37096,0 38.99609,3.624363 38.99609,38.923828 v -4 C 240.01061,52.274363 236.38548,48.65 201.01452,48.65 Z" /><path
     style="fill:#ffffff;fill-opacity:0.748978;stroke-width:6.4035"
     d="m 131.64582,99.750562 c -2.75982,0 -3.612,3.774838 -3.612,5.999998 -0.0276,20.77206 0.10242,39.87816 0,60.63828 -2.33755,-0.4206 -4.16394,-0.561 -6,-0.60066 -12.21538,-0.69444 -23.462172,7.1895 -24.000006,18.0195 0,11.56134 11.853886,11.94288 18.018546,11.94288 6.22485,0 17.96605,-8.1123 17.98146,-17.94942 v -51.27852 c 0.005,-1.347 2.66106,0.4314 3.48198,0.90288 8.35955,4.46142 15.7543,11.8185 16.2535,20.98038 0.54852,7.15902 -1.85437,14.16426 -4.55836,20.8011 8.88026,-10.58148 11.4167,-25.82004 5.66491,-36.61668 -3.21998,-6.89724 -10.48376,-11.14776 -14.54731,-17.5542 -2.48571,-3.92322 -4.98294,-9.59292 -5.50878,-12.73332 -0.0838,-0.5004 -0.19578,-0.93804 -0.4128,-1.38156 -0.78635,-1.223038 -2.76116,-1.170898 -2.76116,-1.170898 z"
     id="path2382"
     sodipodi:nodetypes="cccccccccccccsccc" /></svg>
