<?xml version="1.0" encoding="UTF-8" standalone="no"?>
<svg
   width="256"
   height="256"
   viewBox="0 0 256 256"
   fill="none"
   version="1.1"
   id="svg33"
   sodipodi:docname="folder-nextcloud.svg"
   inkscape:version="1.2.1 (9c6d41e410, 2022-07-14, custom)"
   xml:space="preserve"
   xmlns:inkscape="http://www.inkscape.org/namespaces/inkscape"
   xmlns:sodipodi="http://sodipodi.sourceforge.net/DTD/sodipodi-0.dtd"
   xmlns:xlink="http://www.w3.org/1999/xlink"
   xmlns="http://www.w3.org/2000/svg"
   xmlns:svg="http://www.w3.org/2000/svg"
   xmlns:rdf="http://www.w3.org/1999/02/22-rdf-syntax-ns#"
   xmlns:cc="http://creativecommons.org/ns#"
   xmlns:dc="http://purl.org/dc/elements/1.1/"><metadata
     id="metadata37"><rdf:RDF><cc:Work
         rdf:about=""><dc:format>image/svg+xml</dc:format><dc:type
           rdf:resource="http://purl.org/dc/dcmitype/StillImage" /></cc:Work></rdf:RDF></metadata><sodipodi:namedview
     pagecolor="#ffffff"
     bordercolor="#666666"
     borderopacity="1"
     objecttolerance="10"
     gridtolerance="10"
     guidetolerance="10"
     inkscape:pageopacity="0"
     inkscape:pageshadow="2"
     inkscape:window-width="1920"
     inkscape:window-height="965"
     id="namedview35"
     showgrid="true"
     inkscape:zoom="3.084914"
     inkscape:cx="158.18918"
     inkscape:cy="152.35433"
     inkscape:window-x="1360"
     inkscape:window-y="38"
     inkscape:window-maximized="1"
     inkscape:current-layer="svg33"
     inkscape:showpageshadow="2"
     inkscape:pagecheckerboard="0"
     inkscape:deskcolor="#d1d1d1"><inkscape:grid
       type="xygrid"
       id="grid252" /></sodipodi:namedview><defs
     id="defs31"><radialGradient
       id="paint2_radial"
       cx="0"
       cy="0"
       r="1"
       gradientUnits="userSpaceOnUse"
       gradientTransform="matrix(112.006,0,0,29.4624,-313.4949,21.0003)"><stop
         stop-color="white"
         id="stop11" /><stop
         offset="1"
         stop-color="white"
         stop-opacity="0.203922"
         id="stop13" /></radialGradient><radialGradient
       id="paint3_radial"
       cx="0"
       cy="0"
       r="1"
       gradientUnits="userSpaceOnUse"
       gradientTransform="matrix(112.006,0,0,28.4623,-277.7455,42.0002)"><stop
         stop-color="white"
         id="stop16" /><stop
         offset="1"
         stop-color="white"
         stop-opacity="0.203922"
         id="stop18" /></radialGradient><linearGradient
       id="paint0_linear"
       x1="241"
       y1="50"
       x2="17"
       y2="129"
       gradientUnits="userSpaceOnUse"><stop
         stop-color="#EC7223"
         id="stop21"
         offset="0"
         style="stop-color:#0e79d6;stop-opacity:1;" /><stop
         offset="0.874098"
         stop-color="#EC7223"
         id="stop23"
         style="stop-color:#0e79d6;stop-opacity:1;" /></linearGradient><linearGradient
       id="paint1_linear"
       x1="17"
       y1="52.999901"
       x2="241"
       y2="229"
       gradientUnits="userSpaceOnUse"
       spreadMethod="pad"><stop
         stop-color="#F3994A"
         id="stop26"
         offset="0"
         style="stop-color:#59b0f8;stop-opacity:1;" /><stop
         offset="1"
         stop-color="#F6B069"
         id="stop28"
         style="stop-color:#1c9afd;stop-opacity:1;" /></linearGradient><linearGradient
       inkscape:collect="always"
       xlink:href="#paint1_linear"
       id="linearGradient7276"
       gradientUnits="userSpaceOnUse"
       x1="17"
       y1="52.999901"
       x2="241"
       y2="229"
       gradientTransform="translate(-0.73141,-0.12785)" /><linearGradient
       inkscape:collect="always"
       xlink:href="#paint0_linear"
       id="linearGradient7305"
       gradientUnits="userSpaceOnUse"
       x1="241"
       y1="50"
       x2="17"
       y2="129"
       gradientTransform="translate(-0.73141,2.5791)" /><linearGradient
       id="paint0_linear-3"
       x1="241"
       y1="50"
       x2="17"
       y2="129"
       gradientUnits="userSpaceOnUse"
       gradientTransform="translate(-278.023,2.5703)"><stop
         stop-color="#EC7223"
         id="stop7326" /><stop
         offset="0.874098"
         stop-color="#EC7223"
         id="stop7328" /></linearGradient><linearGradient
       id="paint1_linear-6"
       x1="17"
       y1="53"
       x2="241"
       y2="229"
       gradientUnits="userSpaceOnUse"
       gradientTransform="translate(-278.023,2.5703)"
       xlink:href="#paint0_linear"><stop
         stop-color="#F3994A"
         id="stop7331" /><stop
         offset="1"
         stop-color="#F6B069"
         id="stop7333" /></linearGradient><radialGradient
       id="paint2_radial-7"
       cx="0"
       cy="0"
       r="1"
       gradientUnits="userSpaceOnUse"
       gradientTransform="matrix(112.006,0,0,29.4624,-265.7064,-77.3489)"><stop
         stop-color="white"
         id="stop7316" /><stop
         offset="1"
         stop-color="white"
         stop-opacity="0.203922"
         id="stop7318" /></radialGradient><radialGradient
       id="paint3_radial-5"
       cx="0"
       cy="0"
       r="1"
       gradientUnits="userSpaceOnUse"
       gradientTransform="matrix(112.006,0,0,28.4623,-264.0045,11.9955)"><stop
         stop-color="white"
         id="stop7321" /><stop
         offset="1"
         stop-color="white"
         stop-opacity="0.203922"
         id="stop7323" /></radialGradient></defs><path
     inkscape:connector-curvature="0"
     style="fill:url(#linearGradient7305)"
     d="m 54.98549,23.3513 c -35.3703,0 -38.9961,1.9993 -38.9961,37.2987 v 50.7061 h 224.0112 V 80.276 c 0,-35.2995 -3.626,-40.9239 -38.996,-40.9239 h -87.01 L 97.99349,23.3513 Z"
     id="secondario" /><path
     inkscape:connector-curvature="0"
     style="fill:url(#linearGradient7276);fill-opacity:1"
     d="m 54.98489,68.64665 c -35.3703,0 -38.9955,3.6252 -38.9955,38.9245 v 82.159 c 0,35.299 3.6252,38.924 38.9955,38.924 h 146.0197 c 35.371,0 38.996,-3.625 38.996,-38.924 v -98.1597 c 0,-35.2994 -3.625,-38.9246 -38.996,-38.9246 h -81.26 l -16.009,16.0008 z"
     id="primario" /><path
     id="path8333"
     style="fill:#ffffff;fill-opacity:0.3"
     d="m 54.98717,23.35 c -35.37026,0 -38.99609,1.999463 -38.99609,37.298828 v 4 C 15.99108,29.349463 19.61691,27.35 54.98717,27.35 h 43.00782 l 16.00195,16 h 87.00976 c 35.36997,0 38.9961,5.624363 38.9961,40.923828 v -4 C 240.0028,44.974363 236.37667,39.35 201.0067,39.35 h -87.00976 l -16.00195,-16 z" /><path
     id="path8338"
     style="fill:#000000;fill-opacity:0.3"
     d="m 15.99499,185.72617 v 4 c 0,35.29897 3.62582,38.92383 38.99609,38.92383 h 146.01953 c 35.37096,0 38.99609,-3.62486 38.99609,-38.92383 v -4 c 0,35.29897 -3.62513,38.92383 -38.99609,38.92383 H 54.99108 c -35.37027,0 -38.99609,-3.62486 -38.99609,-38.92383 z" /><path
     id="path8342"
     style="fill:#ffffff;fill-opacity:0.302772"
     d="m 119.75475,52.65 -16.00977,16 H 54.99499 c -35.37026,0 -38.99609,3.626616 -38.99609,38.92578 v 4 C 15.9989,76.276616 19.62473,72.65 54.99499,72.65 h 48.74999 l 16.00977,-16 h 81.25977 c 35.37096,0 38.99609,3.624363 38.99609,38.923828 v -4 C 240.01061,56.274363 236.38548,52.65 201.01452,52.65 Z" /><path
     id="path8348"
     style="fill:#000000;fill-opacity:0.3"
     d="m 15.99499,189.72617 v 4 c 0,35.29897 3.62582,38.92383 38.99609,38.92383 h 146.01953 c 35.37096,0 38.99609,-3.62486 38.99609,-38.92383 v -4 c 0,35.29897 -3.62513,38.92383 -38.99609,38.92383 H 54.99108 c -35.37027,0 -38.99609,-3.62486 -38.99609,-38.92383 z" /><path
     id="path8350"
     style="fill:#000000;fill-opacity:0.301111"
     d="m 119.75475,48.65 -16.00977,16 H 54.99499 c -35.37026,0 -38.99609,3.626616 -38.99609,38.92578 v 4 C 15.9989,72.276616 19.62473,68.65 54.99499,68.65 h 48.74999 l 16.00977,-16 h 81.25977 c 35.37096,0 38.99609,3.624363 38.99609,38.923828 v -4 C 240.01061,52.274363 236.38548,48.65 201.01452,48.65 Z" /><path
     d="m 127.99499,117.098 c -14.53818,0 -26.83879,9.63691 -30.593374,22.60061 -3.280134,-6.935 -10.502349,-11.84909 -18.890222,-11.84909 a 20.939591,20.939591 0 0 0 -20.805602,20 20.939591,20.939591 0 0 0 20.805602,19.99991 c 8.387873,0 15.604202,-4.91971 18.884335,-11.85471 3.754671,12.96968 16.061081,22.60632 30.704691,22.60632 14.56744,0 26.80391,-9.53033 30.64082,-22.38675 3.33259,6.81111 10.44322,11.63514 18.73207,11.63514 a 20.933792,20.933792 0 0 0 20.81088,-19.99991 20.939591,20.939591 0 0 0 -20.81088,-20 c -8.29412,0 -15.40563,4.82966 -18.73822,11.63523 -3.83076,-12.85677 -16.06723,-22.39238 -30.63467,-22.38675 z m 0,11.73654 c 11.10569,0 19.89184,8.44357 19.89184,19.01498 0,10.57132 -8.78615,19.01499 -19.78641,19.01499 A 19.72517,19.72517 0 0 1 108.3199,147.84952 c -0.10543,-10.57141 8.68072,-19.01498 19.67509,-19.01498 z m -49.483597,10.75152 c 4.81481,0 8.592854,3.6307 8.592854,8.26346 0,4.63267 -3.772157,8.25784 -8.592854,8.26346 a 8.5190068,8.5190068 0 0 1 -8.592853,-8.26346 8.5072685,8.5072685 0 0 1 8.592854,-8.25784 z m 98.961917,0 c 4.82009,0 8.59813,3.6307 8.59813,8.26346 0,4.63267 -3.77804,8.26346 -8.59813,8.26346 a 8.5190068,8.5190068 0 0 1 -8.59285,-8.26346 8.5072685,8.5072685 0 0 1 8.59285,-8.25784 z"
     id="path14366"
     style="fill:#ffffff;fill-opacity:0.75;stroke-width:5.86708" /></svg>
