<?xml version="1.0" encoding="UTF-8" standalone="no"?>
<svg
   width="256"
   height="256"
   viewBox="0 0 256 256"
   fill="none"
   version="1.1"
   id="svg3051"
   sodipodi:docname="folder-drag-accept.svg"
   inkscape:version="1.2.1 (9c6d41e410, 2022-07-14, custom)"
   xmlns:inkscape="http://www.inkscape.org/namespaces/inkscape"
   xmlns:sodipodi="http://sodipodi.sourceforge.net/DTD/sodipodi-0.dtd"
   xmlns:xlink="http://www.w3.org/1999/xlink"
   xmlns="http://www.w3.org/2000/svg"
   xmlns:svg="http://www.w3.org/2000/svg">
  <sodipodi:namedview
     id="namedview3053"
     pagecolor="#ffffff"
     bordercolor="#000000"
     borderopacity="0.25"
     inkscape:showpageshadow="2"
     inkscape:pageopacity="0.0"
     inkscape:pagecheckerboard="0"
     inkscape:deskcolor="#d1d1d1"
     showgrid="true"
     inkscape:zoom="1.8053007"
     inkscape:cx="168.393"
     inkscape:cy="167.28515"
     inkscape:window-width="1920"
     inkscape:window-height="965"
     inkscape:window-x="3280"
     inkscape:window-y="38"
     inkscape:window-maximized="1"
     inkscape:current-layer="svg3051">
    <inkscape:grid
       type="xygrid"
       id="grid9782" />
  </sodipodi:namedview>
  <defs
     id="defs3049">
    <linearGradient
       id="paint0_linear"
       x1="239.732"
       y1="223.782"
       x2="23.7212"
       y2="23.7723"
       gradientUnits="userSpaceOnUse"
       gradientTransform="translate(128.2736,-12.735041)">
      <stop
         id="stop3020" />
      <stop
         offset="0.16"
         stop-opacity="0.433"
         id="stop3022" />
      <stop
         offset="0.194"
         stop-opacity="0.099"
         id="stop3024" />
      <stop
         offset="1"
         stop-opacity="0"
         id="stop3026" />
    </linearGradient>
    <linearGradient
       id="paint1_linear"
       x1="240"
       y1="66.2855"
       x2="2.1231"
       y2="123.963"
       gradientUnits="userSpaceOnUse"
       gradientTransform="translate(565.10116,5.2061904)">
      <stop
         stop-color="#EC7223"
         id="stop3029"
         offset="0"
         style="stop-color:#0e79d6;stop-opacity:1;" />
      <stop
         offset="0.874098"
         stop-color="#EC7223"
         id="stop3031"
         style="stop-color:#0e79d6;stop-opacity:1;" />
    </linearGradient>
    <linearGradient
       id="paint2_linear"
       x1="15.9999"
       y1="87.960602"
       x2="204.47301"
       y2="268.95499"
       gradientUnits="userSpaceOnUse"
       xlink:href="#linearGradient7573-5"
       gradientTransform="translate(565.08036,-1.4943098)">
      <stop
         stop-color="#F3994A"
         id="stop3034"
         offset="0"
         style="stop-color:#58aff8;stop-opacity:1;" />
      <stop
         offset="1"
         stop-color="#F6B069"
         id="stop3036"
         style="stop-color:#1f9bfd;stop-opacity:1;" />
    </linearGradient>
    <radialGradient
       id="paint3_radial"
       cx="0"
       cy="0"
       r="1"
       gradientUnits="userSpaceOnUse"
       gradientTransform="matrix(112.006,0,0,29.4624,137.2174,-13.1517)">
      <stop
         stop-color="white"
         id="stop3039" />
      <stop
         offset="1"
         stop-color="white"
         stop-opacity="0.203922"
         id="stop3041" />
    </radialGradient>
    <radialGradient
       id="paint4_radial"
       cx="0"
       cy="0"
       r="1"
       gradientUnits="userSpaceOnUse"
       gradientTransform="matrix(112.006,0,0,28.4623,123.726,99.7762)">
      <stop
         stop-color="white"
         id="stop3044" />
      <stop
         offset="1"
         stop-color="white"
         stop-opacity="0.203922"
         id="stop3046" />
    </radialGradient>
    <linearGradient
       inkscape:collect="always"
       xlink:href="#linearGradient7573-5"
       id="linearGradient9337-1"
       x1="8.1500664"
       y1="4.9288325"
       x2="61.794746"
       y2="64"
       gradientUnits="userSpaceOnUse"
       gradientTransform="matrix(4.0990851,0,0,4.0978051,-3.1706804,-5.7920884)" />
    <linearGradient
       inkscape:collect="always"
       id="linearGradient7573-5">
      <stop
         style="stop-color:#6fb7f6;stop-opacity:1;"
         offset="0"
         id="stop7569-3" />
      <stop
         style="stop-color:#0a94ff;stop-opacity:1;"
         offset="1"
         id="stop7571-5" />
    </linearGradient>
    <filter
       inkscape:collect="always"
       style="color-interpolation-filters:sRGB"
       id="filter9821"
       x="-0.034997369"
       y="-0.076376156"
       width="1.0699947"
       height="1.1527523">
      <feGaussianBlur
         inkscape:collect="always"
         stdDeviation="3.242071"
         id="feGaussianBlur9823" />
    </filter>
  </defs>
  <path
     id="rect5905-2"
     style="fill:#0e79d6;fill-opacity:1;stroke:#000000;stroke-width:0;stroke-linecap:square;stroke-linejoin:round;stroke-miterlimit:10;stroke-opacity:0.2;paint-order:markers fill stroke"
     d="m 37.820156,33.137068 h 69.684394 l 18.44591,14.342316 h 57.38719 34.84221 c 11.31932,0 20.49544,9.173246 20.49544,20.489029 V 199.09817 c 0,11.31579 -9.17612,20.48903 -20.49544,20.48903 H 37.820156 c -11.319325,0 -20.495449,-9.17324 -20.495449,-20.48903 V 53.626083 c 0,-11.315766 9.176124,-20.48902 20.495449,-20.489015 z"
     sodipodi:nodetypes="ccccccccsssc" />
  <path
     id="path9819"
     d="M -17.458717,56.862955 H -221.48876 c -5.05343,0 -9.14993,4.096616 -9.14993,9.15005 v 83.577945 c 0,5.05246 4.0965,9.14896 9.14993,9.14896 h 204.030043 c 5.053677,0 9.1501721,-4.0965 9.1501721,-9.14896 V 66.013005 c 0,-5.053434 -4.0964951,-9.15005 -9.1501721,-9.15005 z"
     fill="#fefefe"
     style="fill:#000000;fill-opacity:1;stroke-width:1.21162;filter:url(#filter9821)"
     transform="matrix(0.87908141,0,0,0.87908141,233.02704,21.262689)" />
  <path
     id="path7686-6"
     style="fill:#000000;fill-opacity:0.298042;stroke:#000000;stroke-width:0;stroke-linecap:square;stroke-linejoin:round;stroke-miterlimit:10;stroke-opacity:0.2;paint-order:markers fill stroke"
     d="m 218.17986,89.361159 c 11.31932,0 20.49544,9.173242 20.49544,20.489001 v 3.28144 c 0,-11.31575 -9.17612,-20.488998 -20.49544,-20.488998 h -92.2294 L 107.50455,106.98651 H 72.662363 37.820156 c -11.319325,0 -20.495449,9.17325 -20.495449,20.489 v -3.28144 c 0,-11.31576 9.176124,-20.489 20.495449,-20.489 h 34.842207 34.842187 l 18.44591,-14.343911 z"
     sodipodi:nodetypes="sscscccscsscccs" />
  <path
     id="path9817"
     d="M 217.67941,71.249856 H 38.320389 c -4.442377,0 -8.043534,3.601259 -8.043534,8.043639 v 73.471815 c 0,4.44153 3.601157,8.04268 8.043534,8.04268 H 217.67941 c 4.44259,0 8.04374,-3.60115 8.04374,-8.04268 V 79.293495 c 0,-4.44238 -3.60115,-8.043639 -8.04374,-8.043639 z"
     fill="#fefefe"
     style="stroke-width:1.06511" />
  <path
     id="path5910-2"
     style="fill:url(#linearGradient9337-1);fill-opacity:1;stroke:#000000;stroke-width:0;stroke-linecap:square;stroke-linejoin:round;stroke-miterlimit:10;stroke-opacity:0.2;paint-order:markers fill stroke"
     d="m 218.17986,92.643915 h -92.2294 L 107.50455,106.98625 H 72.662363 37.820156 c -11.319325,0 -20.495449,9.17324 -20.495449,20.489 v 71.62292 c 0,11.31579 9.176124,20.48903 20.495449,20.48903 H 218.17986 c 11.31932,0 20.49544,-9.17324 20.49544,-20.48903 v -85.96521 c 0,-11.3158 -9.17612,-20.489045 -20.49544,-20.489045 z"
     sodipodi:nodetypes="ccccccccsssc" />
  <path
     id="path7668-7"
     style="fill:#ffffff;fill-opacity:0.300627;stroke:#000000;stroke-width:0;stroke-linecap:square;stroke-linejoin:round;stroke-miterlimit:10;stroke-opacity:0.2;paint-order:markers fill stroke"
     d="m 37.820156,33.135461 c -11.319325,0 -20.495449,9.173263 -20.495449,20.48903 v 3.281435 c 0,-11.315754 9.176124,-20.489016 20.495449,-20.489016 h 69.684394 l 18.44591,14.343917 h 57.38719 34.84221 c 11.31932,0 20.49544,9.173262 20.49544,20.489029 v -3.281443 c 0,-11.315772 -9.17612,-20.489034 -20.49544,-20.489034 H 183.33765 125.95046 L 107.50455,33.135461 Z"
     sodipodi:nodetypes="sscscccscsscccs" />
  <path
     id="path7675-0"
     style="fill:#000000;fill-opacity:0.3;stroke:#000000;stroke-width:0;stroke-linecap:square;stroke-linejoin:round;stroke-miterlimit:10;stroke-opacity:0.2;paint-order:markers fill stroke"
     d="m 17.324707,195.81672 v 3.28145 c 0,11.31575 9.176124,20.48903 20.495449,20.48903 H 218.17986 c 11.31932,0 20.49544,-9.17328 20.49544,-20.48903 v -3.28145 c 0,11.31575 -9.17612,20.48904 -20.49544,20.48904 H 37.820156 c -11.319325,0 -20.495449,-9.17329 -20.495449,-20.48904 z" />
  <path
     id="path7682-9"
     style="fill:#000000;fill-opacity:0.300533;stroke:#000000;stroke-width:0;stroke-linecap:square;stroke-linejoin:round;stroke-miterlimit:10;stroke-opacity:0.2;paint-order:markers fill stroke"
     d="m 17.324707,199.09408 v 3.28144 c 0,11.31578 9.176124,20.48902 20.495449,20.48902 H 218.17986 c 11.31932,0 20.49544,-9.17324 20.49544,-20.48902 v -3.28144 c 0,11.31577 -9.17612,20.48901 -20.49544,20.48901 H 37.820156 c -11.319325,0 -20.495449,-9.17324 -20.495449,-20.48901 z" />
  <path
     id="path7684-3"
     style="fill:#ffffff;fill-opacity:0.303504;stroke:#000000;stroke-width:0;stroke-linecap:square;stroke-linejoin:round;stroke-miterlimit:10;stroke-opacity:0.2;paint-order:markers fill stroke"
     d="m 218.17986,92.639247 c 11.31932,0 20.49544,9.173243 20.49544,20.489003 v 3.28145 c 0,-11.31577 -9.17612,-20.489007 -20.49544,-20.489007 h -92.2294 L 107.50455,110.26461 H 72.662363 37.820156 c -11.319325,0 -20.495449,9.17324 -20.495449,20.489 v -3.28145 c 0,-11.31575 9.176124,-20.489 20.495449,-20.489 h 34.842207 34.842187 l 18.44591,-14.343912 z"
     sodipodi:nodetypes="sscscccscsscccs" />
</svg>
