<?xml version="1.0" encoding="UTF-8" standalone="no"?>
<svg
   width="16"
   height="16"
   version="1.1"
   id="svg7388"
   sodipodi:docname="folder3.svg"
   inkscape:version="1.2.2 (b0a8486541, 2022-12-01)"
   xmlns:inkscape="http://www.inkscape.org/namespaces/inkscape"
   xmlns:sodipodi="http://sodipodi.sourceforge.net/DTD/sodipodi-0.dtd"
   xmlns="http://www.w3.org/2000/svg"
   xmlns:svg="http://www.w3.org/2000/svg">
  <sodipodi:namedview
     id="namedview7390"
     pagecolor="#ffffff"
     bordercolor="#000000"
     borderopacity="0.25"
     inkscape:showpageshadow="2"
     inkscape:pageopacity="0.0"
     inkscape:pagecheckerboard="0"
     inkscape:deskcolor="#d1d1d1"
     showgrid="true"
     inkscape:zoom="39.011436"
     inkscape:cx="9.2665135"
     inkscape:cy="7.6644192"
     inkscape:window-width="1920"
     inkscape:window-height="977"
     inkscape:window-x="3280"
     inkscape:window-y="26"
     inkscape:window-maximized="1"
     inkscape:current-layer="svg7388">
    <inkscape:grid
       type="xygrid"
       id="grid7872" />
  </sodipodi:namedview>
  <defs
     id="defs7382">
    <style
       id="current-color-scheme"
       type="text/css">
   .ColorScheme-Text { color:#FFFFFF; } .ColorScheme-Highlight { color:#5294e2; }
  </style>
    <linearGradient
       id="arrongin"
       x1="0%"
       x2="0%"
       y1="0%"
       y2="100%">
      <stop
         offset="0%"
         style="stop-color:#dd9b44; stop-opacity:1"
         id="stop7329" />
      <stop
         offset="100%"
         style="stop-color:#ad6c16; stop-opacity:1"
         id="stop7331" />
    </linearGradient>
    <linearGradient
       id="aurora"
       x1="0%"
       x2="0%"
       y1="0%"
       y2="100%">
      <stop
         offset="0%"
         style="stop-color:#09D4DF; stop-opacity:1"
         id="stop7334" />
      <stop
         offset="100%"
         style="stop-color:#9269F4; stop-opacity:1"
         id="stop7336" />
    </linearGradient>
    <linearGradient
       id="fitdance"
       x1="0%"
       x2="0%"
       y1="0%"
       y2="100%">
      <stop
         offset="0%"
         style="stop-color:#1AD6AB; stop-opacity:1"
         id="stop7339" />
      <stop
         offset="100%"
         style="stop-color:#329DB6; stop-opacity:1"
         id="stop7341" />
    </linearGradient>
    <linearGradient
       id="oomox"
       x1="0%"
       x2="0%"
       y1="0%"
       y2="100%">
      <stop
         offset="0%"
         style="stop-color:#efefe7; stop-opacity:1"
         id="stop7344" />
      <stop
         offset="100%"
         style="stop-color:#8f8f8b; stop-opacity:1"
         id="stop7346" />
    </linearGradient>
    <linearGradient
       id="rainblue"
       x1="0%"
       x2="0%"
       y1="0%"
       y2="100%">
      <stop
         offset="0%"
         style="stop-color:#00F260; stop-opacity:1"
         id="stop7349" />
      <stop
         offset="100%"
         style="stop-color:#0575E6; stop-opacity:1"
         id="stop7351" />
    </linearGradient>
    <linearGradient
       id="sunrise"
       x1="0%"
       x2="0%"
       y1="0%"
       y2="100%">
      <stop
         offset="0%"
         style="stop-color: #FF8501; stop-opacity:1"
         id="stop7354" />
      <stop
         offset="100%"
         style="stop-color: #FFCB01; stop-opacity:1"
         id="stop7356" />
    </linearGradient>
    <linearGradient
       id="telinkrin"
       x1="0%"
       x2="0%"
       y1="0%"
       y2="100%">
      <stop
         offset="0%"
         style="stop-color: #b2ced6; stop-opacity:1"
         id="stop7359" />
      <stop
         offset="100%"
         style="stop-color: #6da5b7; stop-opacity:1"
         id="stop7361" />
    </linearGradient>
    <linearGradient
       id="60spsycho"
       x1="0%"
       x2="0%"
       y1="0%"
       y2="100%">
      <stop
         offset="0%"
         style="stop-color: #df5940; stop-opacity:1"
         id="stop7364" />
      <stop
         offset="25%"
         style="stop-color: #d8d15f; stop-opacity:1"
         id="stop7366" />
      <stop
         offset="50%"
         style="stop-color: #e9882a; stop-opacity:1"
         id="stop7368" />
      <stop
         offset="100%"
         style="stop-color: #279362; stop-opacity:1"
         id="stop7370" />
    </linearGradient>
    <linearGradient
       id="90ssummer"
       x1="0%"
       x2="0%"
       y1="0%"
       y2="100%">
      <stop
         offset="0%"
         style="stop-color: #f618c7; stop-opacity:1"
         id="stop7373" />
      <stop
         offset="20%"
         style="stop-color: #94ffab; stop-opacity:1"
         id="stop7375" />
      <stop
         offset="50%"
         style="stop-color: #fbfd54; stop-opacity:1"
         id="stop7377" />
      <stop
         offset="100%"
         style="stop-color: #0f83ae; stop-opacity:1"
         id="stop7379" />
    </linearGradient>
  </defs>
  <g
     transform="translate(-312 -80)"
     id="g7386"
     style="fill:#dddddd;fill-opacity:1">
    <path
       fill="currentColor"
       class="ColorScheme-Text"
       d="m 315.994,81 c -1.258,0.015 -2.179,-0.029 -2.932,0.387 -0.38989,0.22112 -0.68783,0.574396 -0.84,0.996 C 312.058,82.821 312,83.343 312,84 v 8 c 0,0.658 0.058,1.179 0.223,1.617 0.164,0.439 0.463,0.79 0.84,0.998 0.752,0.416 1.673,0.37 2.931,0.385 h 4.006 4.006 c 1.258,-0.015 2.179,0.03 2.932,-0.385 0.376,-0.207 0.675,-0.56 0.84,-0.998 C 327.942,93.179 328,92.657 328,92 v -6 c 0,-0.658 -0.058,-1.179 -0.223,-1.617 -0.02,-0.055 -0.048,-0.104 -0.074,-0.154 l -0.027,-0.057 c -0.16173,-0.330253 -0.41881,-0.604399 -0.738,-0.787 -0.753,-0.416 -1.674,-0.37 -2.932,-0.385 H 321 l -2,-2 h -3.004 z m 0.012,1 h 2.644 l 1.45,1.5 -1.45,1.5 H 316 c -1.258,0.015 -2.37261,0.0689 -3,0.5 V 84 c 0,-0.592 0.062,-1.006 0.16,-1.266 0.098,-0.26 0.203,-0.371 0.387,-0.472 0.366,-0.203 1.195,-0.247 2.459,-0.262 z M 321,84 h 2.992 c 1.264,0.015 2.092,0.06 2.46,0.262 0.183,0.1 0.288,0.212 0.386,0.472 0.098,0.26 0.162,0.674 0.162,1.266 v 6 c 0,0.592 -0.063,1.006 -0.16,1.266 -0.098,0.26 -0.203,0.371 -0.387,0.472 C 326.087,93.94 325.26,93.985 324,94 h -8 c -1.26,-0.015 -2.087,-0.06 -2.453,-0.262 -0.184,-0.1 -0.29,-0.212 -0.387,-0.472 C 313.063,93.006 313,92.592 313,92 v -4 c 0,-0.592 -0.0284,-1.024382 0.04,-1.266 0.0649,-0.229526 0.32437,-0.411754 0.509,-0.472 0.45159,-0.176704 1.25226,-0.248442 2.451,-0.262 h 3 z"
       overflow="visible"
       id="path7384"
       style="fill:#dddddd;fill-opacity:1"
       sodipodi:nodetypes="cccsscccccccsscccccccccccccccsscccccssscccccsssscccc" />
  </g>
</svg>
