<?xml version="1.0" encoding="UTF-8" standalone="no"?>
<svg
   height="16"
   width="16"
   version="1.1"
   id="svg8227"
   sodipodi:docname="sync_FILL0_wght400_GRAD0_opsz48.svg"
   inkscape:version="1.2.1 (9c6d41e410, 2022-07-14, custom)"
   xmlns:inkscape="http://www.inkscape.org/namespaces/inkscape"
   xmlns:sodipodi="http://sodipodi.sourceforge.net/DTD/sodipodi-0.dtd"
   xmlns="http://www.w3.org/2000/svg"
   xmlns:svg="http://www.w3.org/2000/svg">
  <defs
     id="defs8231">
    <inkscape:path-effect
       effect="fillet_chamfer"
       id="path-effect8715"
       is_visible="true"
       lpeversion="1"
       nodesatellites_param="F,0,1,1,0,1,0,1 @ F,0,1,1,0,1,0,1 @ F,0,0,1,0,0,0,1 @ F,0,0,1,0,0,0,1 @ F,0,0,1,0,0,0,1 @ F,0,0,1,0,0,0,1 @ F,0,0,1,0,0,0,1 @ F,0,1,1,0,1,0,1 @ F,0,1,1,0,1,0,1 @ F,0,0,1,0,0,0,1 @ F,0,0,1,0,0,0,1 @ F,0,0,1,0,0,0,1 @ F,0,0,1,0,0,0,1 @ F,0,0,1,0,0,0,1 @ F,0,1,1,0,1,0,1 @ F,0,1,1,0,1,0,1 @ F,0,1,1,0,1,0,1 | F,0,1,1,0,1,0,1 @ F,0,1,1,0,1,0,1 @ F,0,0,1,0,0,0,1 @ F,0,0,1,0,0,0,1 @ F,0,0,1,0,0,0,1 @ F,0,0,1,0,0,0,1 @ F,0,0,1,0,0,0,1 @ F,0,1,1,0,1,0,1 @ F,0,1,1,0,1,0,1 @ F,0,1,1,0,1,0,1 @ F,0,1,1,0,1,0,1 @ F,0,1,1,0,1,0,1 @ F,0,0,1,0,0,0,1 @ F,0,0,1,0,0,0,1 @ F,0,0,1,0,0,0,1 @ F,0,0,1,0,0,0,1 @ F,0,0,1,0,0,0,1"
       unit="px"
       method="auto"
       mode="F"
       radius="1"
       chamfer_steps="1"
       flexible="false"
       use_knot_distance="true"
       apply_no_radius="true"
       apply_with_radius="true"
       only_selected="true"
       hide_knots="false" />
  </defs>
  <sodipodi:namedview
     id="namedview8229"
     pagecolor="#ffffff"
     bordercolor="#000000"
     borderopacity="0.25"
     inkscape:showpageshadow="2"
     inkscape:pageopacity="0.0"
     inkscape:pagecheckerboard="0"
     inkscape:deskcolor="#d1d1d1"
     showgrid="true"
     inkscape:zoom="35.566094"
     inkscape:cx="10.150117"
     inkscape:cy="8.6599332"
     inkscape:window-width="1920"
     inkscape:window-height="965"
     inkscape:window-x="3280"
     inkscape:window-y="38"
     inkscape:window-maximized="1"
     inkscape:current-layer="svg8227">
    <inkscape:grid
       type="xygrid"
       id="grid8713" />
  </sodipodi:namedview>
  <path
     d="M 15.14,0.19403116 C 14.64302,0.21235559 14.495899,0.67807508 14.5,1.1750003 v 2.25 L 14.2,3.0500009 C 13.35,1.9833344 12.425,1.2083345 11.424999,0.72500123 10.425,0.2416671 9.3083336,3.5713969e-8 8.0749998,3.5713969e-8 6.3083339,3.5713969e-8 4.720834,0.52083342 3.3125,1.5625002 2.1723401,2.4058138 1.2831299,3.4118912 0.71036635,4.6839625 0.50229212,5.1460821 0.86540261,5.6086284 1.400001,5.6750007 1.7476856,5.718167 2.1043672,5.2513513 2.3785323,4.7725286 2.8608452,3.9301809 3.5221678,3.2226713 4.3625,2.65 5.4875001,1.8833335 6.7250001,1.5000003 8.0749998,1.5000003 c 1.0500006,0 1.9625002,0.1958335 2.7374992,0.5875005 C 11.5875,2.4791671 12.258333,3.0083335 12.825,3.675 l 0.525,0.7500001 h -2.099999 c -0.552285,0 -1.002803,0.2736158 -1.002803,0.8259005 0.09915,0.5057848 0.494464,0.6644706 1.002803,0.6740997 H 15 c 0.552285,0 1,-0.4477153 1,-1 v -3.75 C 16,0.62271554 15.692285,0.19403116 15.14,0.19403116 Z M 14.636168,10.312584 c -0.317299,-0.01313 -0.705454,0.467624 -1.01047,0.941886 -0.529603,0.823468 -1.145406,1.558669 -1.988198,2.120529 C 10.5125,14.125 9.2750008,14.5 7.925001,14.5 7.1250009,14.5 6.3125009,14.304167 5.487501,13.9125 4.662501,13.520834 3.933334,13.008334 3.3,12.374999 l -0.65,-0.725 h 2.1 c 0.5522847,0 0.9868042,-0.344147 0.9898225,-0.844153 C 5.7067792,10.382533 5.2800079,10.116422 4.75,10.15 H 1 C 0.44771526,10.15 3.5713967e-8,10.597715 3.5713967e-8,11.15 v 3.749999 C 3.5713967e-8,15.452284 0.26555967,15.899161 0.81784441,15.899161 1.2842251,15.897458 1.5211002,15.478566 1.5,14.899999 V 12.625 L 1.850001,13 C 2.7833337,14 3.7833333,14.75 4.85,15.250001 5.9166673,15.75 6.9416677,16 7.925001,16 9.6916663,16 11.283333,15.483333 12.7,14.449999 c 1.146837,-0.836515 2.014428,-1.88698 2.572183,-3.16489 0.204232,-0.467931 -0.0563,-0.94854 -0.636015,-0.972525 z"
     id="path8225"
     style="fill:#dfdfdf;fill-opacity:1;stroke-width:0.500001"
     sodipodi:nodetypes="ccccsssssssssccsccssscsssssccsccssscccssssss" />
</svg>
