<?xml version="1.0" encoding="UTF-8" standalone="no"?>
<svg
   inkscape:version="1.2.1 (9c6d41e410, 2022-07-14, custom)"
   sodipodi:docname="folder-android.svg"
   id="svg2313"
   class=""
   xml:space="preserve"
   viewBox="0 0 16 16"
   y="0"
   x="0"
   height="16"
   width="16"
   version="1.1"
   xmlns:inkscape="http://www.inkscape.org/namespaces/inkscape"
   xmlns:sodipodi="http://sodipodi.sourceforge.net/DTD/sodipodi-0.dtd"
   xmlns="http://www.w3.org/2000/svg"
   xmlns:svg="http://www.w3.org/2000/svg"><defs
     id="defs2317" /><sodipodi:namedview
     id="namedview2315"
     pagecolor="#ffffff"
     bordercolor="#000000"
     borderopacity="0.25"
     inkscape:showpageshadow="2"
     inkscape:pageopacity="0.0"
     inkscape:pagecheckerboard="0"
     inkscape:deskcolor="#d1d1d1"
     showgrid="true"
     inkscape:zoom="25.945335"
     inkscape:cx="-3.4688317"
     inkscape:cy="2.8521505"
     inkscape:window-width="1920"
     inkscape:window-height="965"
     inkscape:window-x="3280"
     inkscape:window-y="38"
     inkscape:window-maximized="1"
     inkscape:current-layer="svg2313"><inkscape:grid
       type="xygrid"
       id="grid2799" /></sodipodi:namedview><path
     id="android"
     d="m 4.50004,11.499983 c 0,0.320884 0.2625013,0.583384 0.5832418,0.583384 h 0.5833839 v 2.04163 C 5.6666657,14.609121 6.0575472,15 6.5416691,15 c 0.484122,0 0.8750036,-0.390879 0.8750036,-0.875003 v -2.04163 h 1.1666257 v 2.04163 C 8.5832984,14.609121 8.97418,15 9.4583033,15 9.9425648,15 10.333307,14.609121 10.333307,14.124997 v -2.04163 h 0.583382 c 0.320882,0 0.583383,-0.2625 0.583383,-0.583384 V 5.6665789 H 4.50004 Z M 3.0416811,5.6665789 c -0.4841788,0 -0.8750048,0.3908818 -0.8750048,0.8750042 V 10.62498 c 0,0.484122 0.390826,0.875003 0.8750048,0.875003 0.4841638,0 0.8750034,-0.390881 0.8750034,-0.875003 V 6.5415831 c 0,-0.4841224 -0.3908396,-0.8750042 -0.8750034,-0.8750042 z m 9.9166379,0 c -0.484123,0 -0.875004,0.3908818 -0.875004,0.8750042 V 10.62498 c 0,0.484122 0.390881,0.875003 0.875004,0.875003 0.484262,0 0.875005,-0.390881 0.875005,-0.875003 V 6.5415831 c 0,-0.4841224 -0.390743,-0.8750042 -0.875005,-0.8750042 z m -2.899132,-3.406577 0.758382,-0.7583415 c 0.116627,-0.116662 0.116627,-0.2975014 0,-0.4141639 -0.116762,-0.11666199 -0.297501,-0.11666199 -0.414262,0 L 9.5400638,1.9508398 C 9.0626613,1.7090882 8.535138,1.5831968 8.0000565,1.5833354 c -0.560003,0 -1.0850059,0.1341626 -1.5517673,0.3675044 L 5.5791652,1.0874965 c -0.1166262,-0.11666199 -0.2975017,-0.11666199 -0.4141228,0 -0.116762,0.1166619 -0.116762,0.2975013 0,0.4141639 L 5.9291658,2.2658805 C 5.4862047,2.5899288 5.1258429,3.0139908 4.8774811,3.5035731 4.6292602,3.9931554 4.4998993,4.5343979 4.50004,5.0833363 h 7.000032 c 0,-1.1608841 -0.565882,-2.1875089 -1.440885,-2.8233344 z M 6.5532886,3.9165777 H 6.5300473 A 0.28000129,0.28000129 0 0 1 6.2500482,3.6365765 v -0.02324 A 0.28000129,0.28000129 0 0 1 6.5300485,3.3333349 h 0.023241 a 0.28000129,0.28000129 0 0 1 0.2800019,0.2800013 v 0.02324 A 0.28000129,0.28000129 0 0 1 6.5532886,3.9165777 Z m 2.9167748,0 H 9.4466863 A 0.28000129,0.28000129 0 0 1 9.1666811,3.6365765 v -0.02324 A 0.28000129,0.28000129 0 0 1 9.4466827,3.3333349 H 9.47006 a 0.28000129,0.28000129 0 0 1 0.2800004,0.2800013 v 0.02324 A 0.28000129,0.28000129 0 0 1 9.4700598,3.9165777 Z"
     fill="#fad9b9"
     style="fill:#dedede;fill-opacity:1;stroke-width:0.140001" /></svg>
