<?xml version="1.0" encoding="UTF-8" standalone="no"?>
<svg
   width="16"
   height="16"
   version="1.1"
   id="svg7"
   sodipodi:docname="folder-publicshare2.svg"
   inkscape:version="1.2.1 (9c6d41e410, 2022-07-14, custom)"
   xmlns:inkscape="http://www.inkscape.org/namespaces/inkscape"
   xmlns:sodipodi="http://sodipodi.sourceforge.net/DTD/sodipodi-0.dtd"
   xmlns="http://www.w3.org/2000/svg"
   xmlns:svg="http://www.w3.org/2000/svg">
  <sodipodi:namedview
     id="namedview9"
     pagecolor="#ffffff"
     bordercolor="#666666"
     borderopacity="1.0"
     inkscape:pageshadow="2"
     inkscape:pageopacity="0.0"
     inkscape:pagecheckerboard="0"
     showgrid="true"
     inkscape:zoom="25.599351"
     inkscape:cx="18.301245"
     inkscape:cy="5.898587"
     inkscape:window-width="1920"
     inkscape:window-height="965"
     inkscape:window-x="3280"
     inkscape:window-y="38"
     inkscape:window-maximized="1"
     inkscape:current-layer="svg7"
     inkscape:showpageshadow="2"
     inkscape:deskcolor="#d1d1d1">
    <inkscape:grid
       type="xygrid"
       id="grid8828" />
  </sodipodi:namedview>
  <defs
     id="defs3">
    <style
       id="current-color-scheme"
       type="text/css">
   .ColorScheme-Text { color:#d3dae3; } .ColorScheme-Highlight { color:#5294e2; }
  </style>
    <style
       id="current-color-scheme-3"
       type="text/css">.ColorScheme-Text { color:#dedede; }</style>
  </defs>
  <path
     style="fill:#dedede;fill-opacity:1;fill-rule:nonzero;stroke:none;stroke-width:0.664131;stroke-opacity:0.600633"
     d="M 16,2.6467516 C 16,1.1800974 14.829674,0 13.375163,0 c -1.454513,0 -2.62484,1.1800974 -2.62484,2.6467516 0,0.2500875 0.03358,0.4923591 0.09817,0.7216054 L 6.6503051,5.8119132 C 6.1697733,5.2257723 5.4412258,4.8532467 4.6248391,4.8532467 3.1703266,4.8532467 2,6.0333437 2,7.499999 c 0,1.4666554 1.1703266,2.646753 2.6248391,2.646753 0.8163867,0 1.5449342,-0.3725251 2.025466,-0.9586673 l 4.1981919,2.4435563 c -0.06459,0.229246 -0.09817,0.471517 -0.09817,0.721606 C 10.750323,13.819901 11.92065,15 13.375163,15 14.829674,15 16,13.819901 16,12.353247 16,10.886591 14.829674,9.7064947 13.375163,9.7064947 c -0.891309,0 -1.676694,0.4428633 -2.152058,1.1253913 L 7.0869166,8.4247993 C 7.1928395,8.1356362 7.2496775,7.825633 7.2496775,7.499999 c 0,-0.325634 -0.056839,-0.6356371 -0.1627609,-0.9248003 L 11.223105,4.1681134 c 0.475364,0.6825287 1.260749,1.1253905 2.152058,1.1253905 C 14.829674,5.2935039 16,4.113407 16,2.6467516 Z m 0,0"
     id="path8489" />
</svg>
